<svg xmlns="http://www.w3.org/2000/svg" viewBox="0 0 655.39 364.22"><defs><style>.cls-1,.cls-10,.cls-11,.cls-12,.cls-2,.cls-29,.cls-3,.cls-30,.cls-31,.cls-4,.cls-43{fill:none;}.cls-1{stroke:#e9e8ea;stroke-width:8px;}.cls-1,.cls-10,.cls-11,.cls-12,.cls-13,.cls-14,.cls-2,.cls-29,.cls-3,.cls-30,.cls-31,.cls-4,.cls-43{stroke-miterlimit:10;}.cls-2,.cls-29,.cls-3,.cls-43{stroke:#ff3b5c;}.cls-11,.cls-13,.cls-2,.cls-4{stroke-width:6px;}.cls-12,.cls-14,.cls-3{stroke-width:2px;}.cls-30,.cls-4{stroke:#30abbf;}.cls-5{fill:#a7d4d8;}.cls-6{fill:#59999b;}.cls-7{fill:#d8eaef;}.cls-8{fill:#e3e82e;}.cls-9{fill:#fff;}.cls-10,.cls-11,.cls-12{stroke:#000;}.cls-13,.cls-14{fill:#fffdfd;stroke:#00c617;}.cls-15,.cls-16,.cls-20,.cls-24{font-size:14.57px;}.cls-15,.cls-16,.cls-20,.cls-24,.cls-39{font-family:MyriadPro-Regular, Myriad Pro;}.cls-16,.cls-39{fill:#ff3b5c;}.cls-17{letter-spacing:0em;}.cls-18{letter-spacing:0em;}.cls-19{letter-spacing:0em;}.cls-20{fill:#238f9b;}.cls-21{letter-spacing:-0.01em;}.cls-22{letter-spacing:0.01em;}.cls-23{letter-spacing:0em;}.cls-24{fill:#06b211;}.cls-25{letter-spacing:0em;}.cls-26{letter-spacing:0em;}.cls-27{letter-spacing:-0.01em;}.cls-28{letter-spacing:-0.01em;}.cls-29,.cls-30{stroke-width:0.75px;}.cls-31{stroke:#238f9b;}.cls-32{letter-spacing:-0.01em;}.cls-33{letter-spacing:-0.01em;}.cls-34{letter-spacing:-0.01em;}.cls-35{letter-spacing:-0.04em;}.cls-36{letter-spacing:-0.01em;}.cls-37{letter-spacing:0em;}.cls-38{letter-spacing:0em;}.cls-39{font-size:13.54px;}.cls-40{letter-spacing:-0.01em;}.cls-41{letter-spacing:0em;}.cls-42{letter-spacing:0em;}.cls-44{letter-spacing:0em;}.cls-45{letter-spacing:0.01em;}</style></defs><title>Resurs 3</title><g id="Lager_2" data-name="Lager 2"><g id="Lager_1-2" data-name="Lager 1"><path class="cls-1" d="M333,34.48l5.73,6.9a1.41,1.41,0,0,1-.11,1.94l-6.17,6.17"/><path class="cls-1" d="M511.56,34.48l5.73,6.9a1.42,1.42,0,0,1-.11,1.94L511,49.49"/><path class="cls-1" d="M133.46,34.48l5.73,6.9a1.4,1.4,0,0,1-.11,1.94l-6.17,6.17"/><circle class="cls-2" cx="237.14" cy="44.98" r="35.46"/><circle class="cls-3" cx="234.13" cy="40.57" r="15.16"/><line class="cls-3" x1="244.74" y1="51.18" x2="257.19" y2="61.79"/><circle class="cls-4" cx="436.98" cy="44.72" r="35.46"/><rect class="cls-5" x="411.65" y="23.21" width="51.02" height="43.24"/><rect class="cls-6" x="411.65" y="23.21" width="50.77" height="3.38"/><rect class="cls-7" x="411.65" y="46" width="51.02" height="20.45"/><rect class="cls-8" x="417.34" y="41.08" width="8.55" height="1.8"/><rect class="cls-9" x="427.73" y="41.08" width="8.55" height="1.8"/><line class="cls-10" x1="437.28" y1="55.69" x2="458.53" y2="55.69"/><line class="cls-10" x1="437.28" y1="49.89" x2="458.53" y2="49.89"/><line class="cls-10" x1="437.28" y1="52.79" x2="458.53" y2="52.79"/><line class="cls-10" x1="437.28" y1="58.59" x2="458.53" y2="58.59"/><line class="cls-10" x1="437.28" y1="61.49" x2="458.53" y2="61.49"/><line class="cls-10" x1="437.83" y1="64.39" x2="459.04" y2="64.39"/><line class="cls-10" x1="414.26" y1="58.7" x2="435.48" y2="58.7"/><line class="cls-10" x1="414.26" y1="52.98" x2="435.48" y2="52.98"/><line class="cls-10" x1="414.26" y1="55.84" x2="435.48" y2="55.84"/><line class="cls-10" x1="414.26" y1="61.53" x2="435.48" y2="61.53"/><line class="cls-10" x1="414.26" y1="64.39" x2="435.48" y2="64.39"/><circle class="cls-11" cx="38.46" cy="44.72" r="35.46"/><line class="cls-12" x1="18.25" y1="26.69" x2="58.67" y2="26.69"/><line class="cls-12" x1="18.25" y1="33.45" x2="58.67" y2="33.45"/><line class="cls-12" x1="18.25" y1="40.17" x2="58.67" y2="40.17"/><line class="cls-12" x1="18.25" y1="46.88" x2="58.67" y2="46.88"/><line class="cls-12" x1="18.25" y1="53.64" x2="58.67" y2="53.64"/><line class="cls-12" x1="18.25" y1="60.36" x2="58.67" y2="60.36"/><circle class="cls-13" cx="616.93" cy="38.46" r="35.46"/><polyline class="cls-14" points="603.2 39.74 611.2 48.81 635.28 27.82"/><text class="cls-15" transform="translate(11.18 106.46)">planning</text><text class="cls-16" transform="translate(192.2 106.45)">d<tspan class="cls-17" x="8.22" y="0">a</tspan><tspan x="15.18" y="0">ta g</tspan><tspan class="cls-17" x="38.26" y="0">a</tspan><tspan x="45.22" y="0">the</tspan><tspan class="cls-18" x="65.43" y="0">r</tspan><tspan class="cls-19" x="70.25" y="0">ing</tspan></text><text class="cls-20" transform="translate(402.89 106.46)">p<tspan class="cls-21" x="8.29" y="0">r</tspan><tspan x="12.91" y="0">odu</tspan><tspan class="cls-22" x="37.15" y="0">c</tspan><tspan class="cls-23" x="43.87" y="0">tion</tspan></text><text class="cls-24" transform="translate(591.12 104.03)"><tspan class="cls-25">v</tspan><tspan class="cls-23" x="6.95" y="0">alid</tspan><tspan class="cls-26" x="29.03" y="0">a</tspan><tspan x="36" y="0">tion </tspan></text><text class="cls-16" transform="translate(210.55 148.54)"><tspan class="cls-21">r</tspan><tspan x="4.62" y="0">esea</tspan><tspan class="cls-27" x="32.01" y="0">r</tspan><tspan class="cls-23" x="36.63" y="0">ch</tspan></text><text/><text class="cls-20" transform="translate(415.95 147.73)">desi<tspan class="cls-28" x="24.69" y="0">g</tspan><tspan x="32.75" y="0">n</tspan></text><text class="cls-20" transform="translate(404.93 195.14)">3 ske<tspan class="cls-28" x="30.46" y="0">t</tspan><tspan class="cls-23" x="35.2" y="0">ches</tspan></text><rect class="cls-29" x="199.11" y="130.26" width="76.08" height="25.09" rx="11.28"/><rect class="cls-30" x="398.33" y="131.88" width="76.08" height="25.09" rx="11.28"/><rect class="cls-30" x="385.53" y="178.82" width="101.66" height="25.09" rx="11.28"/><line class="cls-31" x1="436.37" y1="156.52" x2="436.37" y2="179.18"/><text class="cls-20" transform="translate(402.58 242.7)">l<tspan class="cls-32" x="3.44" y="0">o</tspan><tspan class="cls-33" x="11.33" y="0">v</tspan><tspan x="18.2" y="0">e &amp; h</tspan><tspan class="cls-17" x="48.57" y="0">a</tspan><tspan class="cls-28" x="55.53" y="0">t</tspan><tspan x="60.27" y="0">e</tspan></text><text class="cls-20" transform="translate(373.42 290.37)">ske<tspan class="cls-34" x="19.9" y="0">t</tspan><tspan x="24.63" y="0">ches </tspan><tspan class="cls-35" x="55.4" y="0">w</tspan><tspan class="cls-23" x="65.56" y="0">.</tspan><tspan x="0" y="17.48">di</tspan><tspan class="cls-36" x="11.63" y="17.48">ff</tspan><tspan x="19.93" y="17.48">e</tspan><tspan class="cls-21" x="27.23" y="17.48">r</tspan><tspan class="cls-23" x="31.85" y="17.48">e</tspan><tspan class="cls-25" x="39.15" y="17.48">n</tspan><tspan x="47.17" y="17.48">t perspe</tspan><tspan class="cls-22" x="96.79" y="17.48">c</tspan><tspan x="103.51" y="17.48">ti</tspan><tspan class="cls-21" x="111.74" y="17.48">v</tspan><tspan class="cls-23" x="118.6" y="17.48">e</tspan></text><text class="cls-20" transform="translate(411.43 354.84)">moc<tspan class="cls-18" x="26.67" y="0">k</tspan><tspan x="33.57" y="0">up</tspan></text><rect class="cls-30" x="390.92" y="223.31" width="90.9" height="28.15" rx="11.28"/><rect class="cls-30" x="365.14" y="275.75" width="142.45" height="39.83" rx="11.28"/><rect class="cls-30" x="396.99" y="338.76" width="78.75" height="25.09" rx="11.28"/><line class="cls-31" x1="436.37" y1="251" x2="436.37" y2="273.66"/><line class="cls-31" x1="436.37" y1="316.58" x2="436.37" y2="339.24"/><line class="cls-31" x1="436.37" y1="203.22" x2="436.37" y2="225.88"/><text class="cls-16" transform="translate(191.33 193.95)">b<tspan class="cls-37" x="8.29" y="0">r</tspan><tspan x="12.98" y="0">and</tspan></text><text class="cls-16" transform="translate(254.27 193.95)">persona</text><text class="cls-16" transform="translate(142.3 241.71)">fidget ma<tspan class="cls-38" x="58.36" y="0">r</tspan><tspan x="63.18" y="0">ket</tspan></text><text class="cls-39" transform="translate(263.52 243.58) scale(1.08 1)">s<tspan class="cls-40" x="5.36" y="0">c</tspan><tspan class="cls-41" x="11.35" y="0">ena</tspan><tspan class="cls-42" x="32.17" y="0">r</tspan><tspan x="36.66" y="0">io</tspan></text><rect class="cls-29" x="184.86" y="178.52" width="48.07" height="23.75" rx="11.28"/><rect class="cls-29" x="246.68" y="178.52" width="69.29" height="25.37" rx="11.28"/><rect class="cls-29" x="131.44" y="225.47" width="102.3" height="27.79" rx="11.28"/><rect class="cls-29" x="248.3" y="225.47" width="77.7" height="25.09" rx="11.28"/><line class="cls-43" x1="222.81" y1="154.65" x2="222.81" y2="177.31"/><line class="cls-43" x1="253.25" y1="156.23" x2="253.25" y2="178.89"/><line class="cls-43" x1="225.08" y1="203.19" x2="225.08" y2="225.85"/><line class="cls-43" x1="253.9" y1="203.96" x2="253.9" y2="226.62"/><text class="cls-16" transform="translate(138.96 291.84)">fidget <tspan class="cls-28" x="39.19" y="0">c</tspan><tspan x="45.63" y="0">o</tspan><tspan class="cls-17" x="53.63" y="0">n</tspan><tspan class="cls-28" x="61.65" y="0">t</tspan><tspan class="cls-44" x="66.39" y="0">e</tspan><tspan class="cls-45" x="73.64" y="0">x</tspan><tspan x="80.58" y="0">t</tspan></text><rect class="cls-29" x="132.14" y="275.6" width="102.3" height="27.79" rx="11.28"/><line class="cls-43" x1="225.78" y1="253.32" x2="225.78" y2="275.99"/><text class="cls-16" transform="translate(139.44 340.4)">fidget m<tspan class="cls-17" x="51.34" y="0">a</tspan><tspan class="cls-28" x="58.3" y="0">t</tspan><tspan x="63.04" y="0">e</tspan><tspan class="cls-18" x="70.34" y="0">r</tspan><tspan class="cls-19" x="75.16" y="0">ial</tspan></text><rect class="cls-29" x="132.62" y="324.16" width="102.3" height="27.79" rx="11.28"/><line class="cls-43" x1="226.26" y1="301.88" x2="226.26" y2="324.55"/></g></g></svg>