<svg xmlns="http://www.w3.org/2000/svg" viewBox="0 0 719.69 324.82"><defs><style>.cls-1,.cls-10,.cls-11,.cls-12,.cls-2,.cls-3,.cls-33,.cls-34,.cls-35,.cls-36,.cls-37,.cls-4{fill:none;}.cls-1{stroke:#e9e8ea;stroke-width:8px;}.cls-1,.cls-10,.cls-11,.cls-12,.cls-13,.cls-14,.cls-2,.cls-3,.cls-33,.cls-34,.cls-35,.cls-36,.cls-37,.cls-4{stroke-miterlimit:10;}.cls-2,.cls-3,.cls-34,.cls-36{stroke:#ff3b5c;}.cls-11,.cls-13,.cls-2,.cls-4{stroke-width:6px;}.cls-12,.cls-14,.cls-3{stroke-width:2px;}.cls-35,.cls-4{stroke:#30abbf;}.cls-5{fill:#a7d4d8;}.cls-6{fill:#59999b;}.cls-7{fill:#d8eaef;}.cls-8{fill:#e3e82e;}.cls-9{fill:#fff;}.cls-10,.cls-11,.cls-12,.cls-33{stroke:#000;}.cls-13,.cls-14{fill:#fffdfd;stroke:#00c617;}.cls-15,.cls-16,.cls-20,.cls-24{font-size:15.85px;font-family:MyriadPro-Regular, Myriad Pro;}.cls-16{fill:#ff3b5c;}.cls-17{letter-spacing:0em;}.cls-18{letter-spacing:0em;}.cls-19{letter-spacing:0em;}.cls-20{fill:#238f9b;}.cls-21{letter-spacing:-0.01em;}.cls-22{letter-spacing:0em;}.cls-23{letter-spacing:0.01em;}.cls-24{fill:#06b211;}.cls-25{letter-spacing:-0.01em;}.cls-26{letter-spacing:0.01em;}.cls-27{letter-spacing:-0.01em;}.cls-28{letter-spacing:-0.01em;}.cls-29{letter-spacing:0em;}.cls-30{letter-spacing:-0.01em;}.cls-31{letter-spacing:0.01em;}.cls-32{letter-spacing:0em;}.cls-33,.cls-34,.cls-35{stroke-width:0.75px;}.cls-37{stroke:#238f9b;}</style></defs><title>Resurs 6</title><g id="Lager_2" data-name="Lager 2"><g id="Lager_1-2" data-name="Lager 1"><path class="cls-1" d="M369.27,37.24l6.23,7.51a1.54,1.54,0,0,1-.12,2.12l-6.71,6.7"/><path class="cls-1" d="M563.48,37.24l6.23,7.51a1.54,1.54,0,0,1-.12,2.12l-6.71,6.7"/><path class="cls-1" d="M152.17,37.24l6.23,7.51a1.54,1.54,0,0,1-.12,2.12l-6.71,6.7"/><circle class="cls-2" cx="264.96" cy="48.66" r="38.58"/><circle class="cls-3" cx="261.69" cy="43.87" r="16.49"/><line class="cls-3" x1="273.23" y1="55.41" x2="286.76" y2="66.95"/><circle class="cls-4" cx="482.36" cy="48.38" r="38.58"/><rect class="cls-5" x="454.8" y="24.98" width="55.51" height="47.04"/><rect class="cls-6" x="454.8" y="24.98" width="55.23" height="3.67"/><rect class="cls-7" x="454.8" y="49.78" width="55.51" height="22.24"/><rect class="cls-8" x="460.99" y="44.43" width="9.3" height="1.96"/><rect class="cls-9" x="472.29" y="44.43" width="9.3" height="1.96"/><line class="cls-10" x1="482.68" y1="60.32" x2="505.8" y2="60.32"/><line class="cls-10" x1="482.68" y1="54.01" x2="505.8" y2="54.01"/><line class="cls-10" x1="482.68" y1="57.17" x2="505.8" y2="57.17"/><line class="cls-10" x1="482.68" y1="63.48" x2="505.8" y2="63.48"/><line class="cls-10" x1="482.68" y1="66.63" x2="505.8" y2="66.63"/><line class="cls-10" x1="483.27" y1="69.79" x2="506.36" y2="69.79"/><line class="cls-10" x1="457.64" y1="63.6" x2="480.72" y2="63.6"/><line class="cls-10" x1="457.64" y1="57.37" x2="480.72" y2="57.37"/><line class="cls-10" x1="457.64" y1="60.48" x2="480.72" y2="60.48"/><line class="cls-10" x1="457.64" y1="66.67" x2="480.72" y2="66.67"/><line class="cls-10" x1="457.64" y1="69.79" x2="480.72" y2="69.79"/><circle class="cls-11" cx="48.82" cy="48.38" r="38.58"/><line class="cls-12" x1="26.84" y1="28.78" x2="70.8" y2="28.78"/><line class="cls-12" x1="26.84" y1="36.12" x2="70.8" y2="36.12"/><line class="cls-12" x1="26.84" y1="43.43" x2="70.8" y2="43.43"/><line class="cls-12" x1="26.84" y1="50.74" x2="70.8" y2="50.74"/><line class="cls-12" x1="26.84" y1="58.09" x2="70.8" y2="58.09"/><line class="cls-12" x1="26.84" y1="65.39" x2="70.8" y2="65.39"/><circle class="cls-13" cx="678.11" cy="41.58" r="38.58"/><polyline class="cls-14" points="663.18 42.97 671.88 52.84 698.08 30"/><text class="cls-15" transform="translate(19.15 115.54)">planning</text><text class="cls-16" transform="translate(216.07 115.54)">d<tspan class="cls-17" x="8.94" y="0">a</tspan><tspan class="cls-18" x="16.51" y="0">ta g</tspan><tspan class="cls-17" x="41.62" y="0">a</tspan><tspan class="cls-18" x="49.19" y="0">the</tspan><tspan class="cls-19" x="71.17" y="0">r</tspan><tspan x="76.42" y="0">ing</tspan></text><text class="cls-20" transform="translate(445.27 115.54)">p<tspan class="cls-21" x="9.02" y="0">r</tspan><tspan class="cls-22" x="14.04" y="0">odu</tspan><tspan class="cls-23" x="40.41" y="0">c</tspan><tspan x="47.72" y="0">tion</tspan></text><text class="cls-24" transform="translate(650.04 112.9)"><tspan class="cls-17">v</tspan><tspan x="7.56" y="0">alid</tspan><tspan class="cls-17" x="31.58" y="0">a</tspan><tspan x="39.16" y="0">tion </tspan></text><text class="cls-15" transform="translate(6.47 159.57)">p<tspan class="cls-25" x="9.02" y="0">r</tspan><tspan x="14.04" y="0">oje</tspan><tspan class="cls-26" x="34.53" y="0">c</tspan><tspan x="41.84" y="0">t plan</tspan></text><text class="cls-15" transform="translate(5.59 211.05)">p<tspan class="cls-25" x="9.02" y="0">r</tspan><tspan x="14.04" y="0">oje</tspan><tspan class="cls-26" x="34.53" y="0">c</tspan><tspan x="41.84" y="0">t goal</tspan></text><text class="cls-16" transform="translate(228.98 160.45)"><tspan class="cls-25">w</tspan><tspan x="11.51" y="0">o</tspan><tspan class="cls-19" x="20.21" y="0">r</tspan><tspan class="cls-18" x="25.45" y="0">kshops</tspan></text><text class="cls-16" transform="translate(144 211.05)">futu<tspan class="cls-25" x="27.34" y="0">r</tspan><tspan x="32.36" y="0">e </tspan><tspan class="cls-25" x="43.66" y="0">w</tspan><tspan x="55.17" y="0">o</tspan><tspan class="cls-19" x="63.87" y="0">r</tspan><tspan x="69.11" y="0">kshop</tspan></text><text class="cls-16" transform="translate(285.55 211.05)"><tspan class="cls-27">c</tspan><tspan x="7" y="0">odesi</tspan><tspan class="cls-28" x="42.57" y="0">g</tspan><tspan class="cls-29" x="51.33" y="0">n </tspan></text><text class="cls-16" transform="translate(197.2 263.88)">anal<tspan class="cls-27" x="27.81" y="0">y</tspan><tspan x="35.18" y="0">sis</tspan></text><text class="cls-16" transform="translate(291.2 264.76)">anal<tspan class="cls-27" x="27.81" y="0">y</tspan><tspan x="35.18" y="0">sis</tspan></text><text class="cls-20" transform="translate(449.15 160.45)">p<tspan class="cls-21" x="9.02" y="0">r</tspan><tspan class="cls-22" x="14.04" y="0">o</tspan><tspan class="cls-30" x="22.74" y="0">t</tspan><tspan x="27.89" y="0">o</tspan><tspan class="cls-31" x="36.59" y="0">t</tspan><tspan x="41.98" y="0">ype</tspan></text><text class="cls-20" transform="translate(409.93 212.02)">app definition &amp; goals</text><text class="cls-20" transform="translate(505.72 263.88)">ske<tspan class="cls-30" x="21.65" y="0">t</tspan><tspan class="cls-22" x="26.8" y="0">ches </tspan></text><text class="cls-20" transform="translate(506.96 314.65)">wi<tspan class="cls-21" x="15.37" y="0">r</tspan><tspan class="cls-22" x="20.4" y="0">ef</tspan><tspan class="cls-32" x="32.96" y="0">r</tspan><tspan x="38.07" y="0">ame</tspan></text><rect class="cls-33" x="0.9" y="142.32" width="89.33" height="27.29" rx="11.28"/><rect class="cls-33" x="0.38" y="194.27" width="89.81" height="27.29" rx="11.28"/><rect class="cls-34" x="223.59" y="141.44" width="82.76" height="27.29" rx="11.28"/><rect class="cls-35" x="439.3" y="143.2" width="82.76" height="27.29" rx="11.28"/><rect class="cls-34" x="135.54" y="194.27" width="122.38" height="27.29" rx="11.28"/><rect class="cls-34" x="272.89" y="194.27" width="88.05" height="27.29" rx="11.28"/><rect class="cls-34" x="185.73" y="245.33" width="73.08" height="27.29" rx="11.28"/><rect class="cls-34" x="274.65" y="245.33" width="84.52" height="27.29" rx="11.28"/><rect class="cls-35" x="400.68" y="194.27" width="161.89" height="27.29" rx="11.28"/><rect class="cls-35" x="400.3" y="245.33" width="71.58" height="27.29" rx="11.28"/><rect class="cls-35" x="494.91" y="245.33" width="85.67" height="27.29" rx="11.28"/><rect class="cls-35" x="497.55" y="297.15" width="85.67" height="27.29" rx="11.28"/><text class="cls-20" transform="translate(404.23 264.38)">use cases</text><line class="cls-10" x1="45.28" y1="169.17" x2="45.28" y2="193.83"/><line class="cls-36" x1="246.92" y1="168.29" x2="246.92" y2="192.94"/><line class="cls-36" x1="280.04" y1="170.01" x2="280.04" y2="194.66"/><line class="cls-36" x1="249.39" y1="221.1" x2="249.39" y2="245.75"/><line class="cls-36" x1="280.75" y1="221.94" x2="280.75" y2="246.59"/><line class="cls-37" x1="499.98" y1="221.06" x2="499.98" y2="245.71"/><line class="cls-37" x1="480.78" y1="170.01" x2="480.78" y2="194.66"/><line class="cls-37" x1="463.17" y1="221.96" x2="463.17" y2="246.61"/><line class="cls-37" x1="501.91" y1="273.02" x2="501.91" y2="297.68"/></g></g></svg>