<svg xmlns="http://www.w3.org/2000/svg" viewBox="0 0 691.12 359.27"><defs><style>.cls-1,.cls-10,.cls-11,.cls-12,.cls-2,.cls-3,.cls-35,.cls-36,.cls-37,.cls-38,.cls-39,.cls-4{fill:none;}.cls-1{stroke:#e9e8ea;stroke-width:8px;}.cls-1,.cls-10,.cls-11,.cls-12,.cls-13,.cls-14,.cls-2,.cls-3,.cls-35,.cls-36,.cls-37,.cls-38,.cls-39,.cls-4{stroke-miterlimit:10;}.cls-2,.cls-3,.cls-36,.cls-38{stroke:#ff3b5c;}.cls-11,.cls-13,.cls-2,.cls-4{stroke-width:6px;}.cls-12,.cls-14,.cls-3{stroke-width:2px;}.cls-37,.cls-4{stroke:#30abbf;}.cls-5{fill:#a7d4d8;}.cls-6{fill:#59999b;}.cls-7{fill:#d8eaef;}.cls-8{fill:#e3e82e;}.cls-9{fill:#fff;}.cls-10,.cls-11,.cls-12,.cls-35{stroke:#000;}.cls-13,.cls-14{fill:#fffdfd;stroke:#00c617;}.cls-15,.cls-16,.cls-20,.cls-24,.cls-25{font-size:15.11px;}.cls-15,.cls-16,.cls-20,.cls-24,.cls-25,.cls-40{font-family:MyriadPro-Regular, Myriad Pro;}.cls-16,.cls-40{fill:#ff3b5c;}.cls-17{letter-spacing:0em;}.cls-18{letter-spacing:0em;}.cls-19{letter-spacing:0em;}.cls-20{fill:#238f9b;}.cls-21{letter-spacing:-0.01em;}.cls-22{letter-spacing:0em;}.cls-23{letter-spacing:0.01em;}.cls-24{fill:#06b211;}.cls-25{letter-spacing:-0.01em;}.cls-26{letter-spacing:-0.01em;}.cls-27{letter-spacing:0em;}.cls-28{letter-spacing:0em;}.cls-29{letter-spacing:-0.01em;}.cls-30{letter-spacing:0.02em;}.cls-31{letter-spacing:-0.04em;}.cls-32{letter-spacing:0.01em;}.cls-33{letter-spacing:-0.01em;}.cls-34{letter-spacing:0.01em;}.cls-35,.cls-36,.cls-37{stroke-width:0.75px;}.cls-39{stroke:#238f9b;}.cls-40{font-size:15.11px;}.cls-41{letter-spacing:0em;}.cls-42{letter-spacing:-0.01em;}.cls-43{letter-spacing:0em;}.cls-44{letter-spacing:0em;}</style></defs><title>Resurs 2</title><g id="Lager_2" data-name="Lager 2"><g id="Lager_1-2" data-name="Lager 1"><path class="cls-1" d="M356.79,35.66l5.95,7.16a1.46,1.46,0,0,1-.12,2l-6.4,6.4"/><path class="cls-1" d="M542,35.66,548,42.82a1.47,1.47,0,0,1-.11,2l-6.4,6.4"/><path class="cls-1" d="M149.75,35.66l5.94,7.16a1.46,1.46,0,0,1-.12,2l-6.39,6.4"/><circle class="cls-2" cx="257.31" cy="46.55" r="36.79"/><circle class="cls-3" cx="254.19" cy="41.98" r="15.73"/><line class="cls-3" x1="265.2" y1="52.98" x2="278.11" y2="63.99"/><circle class="cls-4" cx="464.64" cy="46.28" r="36.79"/><rect class="cls-5" x="438.36" y="23.96" width="52.94" height="44.86"/><rect class="cls-6" x="438.36" y="23.96" width="52.67" height="3.5"/><rect class="cls-7" x="438.36" y="47.61" width="52.94" height="21.21"/><rect class="cls-8" x="444.27" y="42.51" width="8.87" height="1.87"/><rect class="cls-9" x="455.04" y="42.51" width="8.87" height="1.87"/><line class="cls-10" x1="464.94" y1="57.67" x2="486.99" y2="57.67"/><line class="cls-10" x1="464.94" y1="51.65" x2="486.99" y2="51.65"/><line class="cls-10" x1="464.94" y1="54.66" x2="486.99" y2="54.66"/><line class="cls-10" x1="464.94" y1="60.68" x2="486.99" y2="60.68"/><line class="cls-10" x1="464.94" y1="63.69" x2="486.99" y2="63.69"/><line class="cls-10" x1="465.52" y1="66.69" x2="487.53" y2="66.69"/><line class="cls-10" x1="441.07" y1="60.79" x2="463.08" y2="60.79"/><line class="cls-10" x1="441.07" y1="54.85" x2="463.08" y2="54.85"/><line class="cls-10" x1="441.07" y1="57.82" x2="463.08" y2="57.82"/><line class="cls-10" x1="441.07" y1="63.72" x2="463.08" y2="63.72"/><line class="cls-10" x1="441.07" y1="66.69" x2="463.08" y2="66.69"/><circle class="cls-11" cx="51.18" cy="46.28" r="36.79"/><line class="cls-12" x1="30.22" y1="27.58" x2="72.15" y2="27.58"/><line class="cls-12" x1="30.22" y1="34.59" x2="72.15" y2="34.59"/><line class="cls-12" x1="30.22" y1="41.56" x2="72.15" y2="41.56"/><line class="cls-12" x1="30.22" y1="48.53" x2="72.15" y2="48.53"/><line class="cls-12" x1="30.22" y1="55.54" x2="72.15" y2="55.54"/><line class="cls-12" x1="30.22" y1="62.5" x2="72.15" y2="62.5"/><circle class="cls-13" cx="651.33" cy="39.79" r="36.79"/><polyline class="cls-14" points="637.09 41.12 645.39 50.53 670.37 28.74"/><text class="cls-15" transform="translate(22.88 110.33)">planning</text><text class="cls-16" transform="translate(210.68 110.33)">d<tspan class="cls-17" x="8.52" y="0">a</tspan><tspan x="15.75" y="0">ta g</tspan><tspan class="cls-17" x="39.69" y="0">a</tspan><tspan class="cls-18" x="46.91" y="0">the</tspan><tspan class="cls-19" x="67.88" y="0">r</tspan><tspan x="72.88" y="0">ing</tspan></text><text class="cls-20" transform="translate(429.27 110.33)">p<tspan class="cls-21" x="8.6" y="0">r</tspan><tspan class="cls-22" x="13.39" y="0">odu</tspan><tspan class="cls-23" x="38.54" y="0">c</tspan><tspan x="45.51" y="0">tion</tspan></text><text class="cls-24" transform="translate(624.55 107.81)"><tspan class="cls-17">v</tspan><tspan x="7.21" y="0">alid</tspan><tspan class="cls-17" x="30.12" y="0">a</tspan><tspan x="37.35" y="0">tion </tspan></text><text class="cls-25" transform="translate(9.06 152.32)">r<tspan class="cls-18" x="4.79" y="0">esea</tspan><tspan class="cls-26" x="33.21" y="0">r</tspan><tspan class="cls-27" x="38" y="0">ch plan</tspan></text><text class="cls-15" transform="translate(4.93 201.42)">i<tspan class="cls-28" x="3.54" y="0">n</tspan><tspan class="cls-29" x="11.86" y="0">t</tspan><tspan x="16.78" y="0">e</tspan><tspan class="cls-30" x="24.35" y="0">r</tspan><tspan x="29.67" y="0">view </tspan><tspan class="cls-31" x="62.38" y="0">w</tspan><tspan x="72.91" y="0">.</tspan><tspan x="0" y="18.14">p</tspan><tspan class="cls-26" x="8.6" y="18.14">r</tspan><tspan x="13.39" y="18.14">odu</tspan><tspan class="cls-32" x="38.54" y="18.14">c</tspan><tspan class="cls-18" x="45.51" y="18.14">t </tspan><tspan class="cls-33" x="53.72" y="18.14">o</tspan><tspan x="61.91" y="18.14">wner</tspan></text><text class="cls-16" transform="translate(223.84 153.16)">i<tspan class="cls-28" x="3.54" y="0">n</tspan><tspan class="cls-29" x="11.86" y="0">t</tspan><tspan x="16.78" y="0">e</tspan><tspan class="cls-30" x="24.35" y="0">r</tspan><tspan x="29.67" y="0">vie</tspan><tspan class="cls-29" x="48.05" y="0">w</tspan><tspan x="59.08" y="0">s</tspan></text><text/><text class="cls-20" transform="translate(432.98 153.16)">p<tspan class="cls-21" x="8.6" y="0">r</tspan><tspan class="cls-22" x="13.39" y="0">o</tspan><tspan class="cls-29" x="21.69" y="0">t</tspan><tspan x="26.6" y="0">o</tspan><tspan class="cls-34" x="34.9" y="0">t</tspan><tspan x="40.04" y="0">ype</tspan></text><text class="cls-20" transform="translate(419.92 202.34)">desi<tspan class="cls-29" x="25.62" y="0">g</tspan><tspan x="33.98" y="0">n studio</tspan></text><rect class="cls-35" x="3.73" y="135.87" width="96.35" height="26.03" rx="11.28"/><rect class="cls-35" x="0.38" y="185.41" width="101.39" height="42.52" rx="11.28"/><rect class="cls-36" x="217.85" y="135.03" width="78.93" height="26.03" rx="11.28"/><rect class="cls-37" x="423.58" y="136.71" width="78.93" height="26.03" rx="11.28"/><rect class="cls-36" x="200.84" y="185.41" width="133.73" height="26.03" rx="11.28"/><rect class="cls-37" x="411.09" y="185.41" width="105.47" height="26.03" rx="11.28"/><line class="cls-10" x1="51.18" y1="161.48" x2="51.18" y2="184.99"/><line class="cls-38" x1="257.42" y1="162.28" x2="257.42" y2="185.79"/><line class="cls-39" x1="463.14" y1="162.28" x2="463.14" y2="185.79"/><text class="cls-40" transform="translate(211.32 203.31) rotate(-0.12)">thema<tspan class="cls-41" x="40.85" y="0">n</tspan><tspan x="49.18" y="0">tic anal</tspan><tspan class="cls-42" x="94.22" y="0">y</tspan><tspan x="101.25" y="0">sis</tspan></text><text class="cls-20" transform="translate(436.74 251.68)">ske<tspan class="cls-29" x="20.65" y="0">t</tspan><tspan x="25.56" y="0">ches</tspan></text><text class="cls-20" transform="translate(431.99 301.14)">wi<tspan class="cls-26" x="14.66" y="0">r</tspan><tspan x="19.45" y="0">ef</tspan><tspan class="cls-43" x="31.44" y="0">r</tspan><tspan x="36.3" y="0">ame</tspan></text><text class="cls-20" transform="translate(435.01 349.55)">moc<tspan class="cls-44" x="27.67" y="0">k</tspan><tspan x="34.82" y="0">ups</tspan></text><rect class="cls-37" x="423.64" y="234.75" width="80.46" height="26.03" rx="11.28"/><rect class="cls-37" x="423.03" y="283.45" width="81.7" height="26.03" rx="11.28"/><rect class="cls-37" x="423.03" y="332.87" width="81.7" height="26.03" rx="11.28"/><line class="cls-39" x1="463.88" y1="260.3" x2="463.88" y2="283.81"/><line class="cls-39" x1="463.88" y1="309.86" x2="463.88" y2="333.37"/><line class="cls-39" x1="463.67" y1="210.72" x2="463.67" y2="234.23"/></g></g></svg>