<svg xmlns="http://www.w3.org/2000/svg" viewBox="0 0 712 362.74"><defs><style>.cls-1,.cls-10,.cls-11,.cls-12,.cls-2,.cls-3,.cls-38,.cls-39,.cls-4,.cls-40,.cls-41,.cls-42,.cls-43{fill:none;}.cls-1{stroke:#e9e8ea;stroke-width:8px;}.cls-1,.cls-10,.cls-11,.cls-12,.cls-13,.cls-14,.cls-2,.cls-3,.cls-38,.cls-39,.cls-4,.cls-40,.cls-41,.cls-42,.cls-43{stroke-miterlimit:10;}.cls-2,.cls-3,.cls-39,.cls-41{stroke:#ff3b5c;}.cls-11,.cls-13,.cls-2,.cls-4{stroke-width:6px;}.cls-12,.cls-14,.cls-3{stroke-width:2px;}.cls-4,.cls-40{stroke:#30abbf;}.cls-5{fill:#a7d4d8;}.cls-6{fill:#59999b;}.cls-7{fill:#d8eaef;}.cls-8{fill:#e3e82e;}.cls-9{fill:#fff;}.cls-10,.cls-11,.cls-12,.cls-38{stroke:#000;}.cls-13,.cls-14{fill:#fffdfd;stroke:#00c617;}.cls-15,.cls-16,.cls-19,.cls-23{font-size:15.32px;font-family:MyriadPro-Regular, Myriad Pro;}.cls-16{fill:#ff3b5c;}.cls-17{letter-spacing:0em;}.cls-18{letter-spacing:0em;}.cls-19{fill:#238f9b;}.cls-20{letter-spacing:-0.01em;}.cls-21{letter-spacing:0em;}.cls-22{letter-spacing:0.01em;}.cls-23{fill:#06b211;}.cls-24{letter-spacing:0em;}.cls-25{letter-spacing:-0.01em;}.cls-26{letter-spacing:0em;}.cls-27{letter-spacing:0.01em;}.cls-28{letter-spacing:-0.01em;}.cls-29{letter-spacing:0.02em;}.cls-30{letter-spacing:0em;}.cls-31{letter-spacing:-0.04em;}.cls-32{letter-spacing:-0.01em;}.cls-33{letter-spacing:0.01em;}.cls-34{letter-spacing:-0.01em;}.cls-35{letter-spacing:0.01em;}.cls-36{letter-spacing:0em;}.cls-37{letter-spacing:0em;}.cls-38,.cls-39,.cls-40{stroke-width:0.75px;}.cls-42{stroke:#238f9b;}.cls-43{stroke:#06b211;}</style></defs><title>Resurs 5</title><g id="Lager_2" data-name="Lager 2"><g id="Lager_1-2" data-name="Lager 1"><path class="cls-1" d="M364.16,36.1l6,7.25a1.5,1.5,0,0,1-.11,2l-6.49,6.48"/><path class="cls-1" d="M551.88,36.1l6,7.25a1.49,1.49,0,0,1-.12,2l-6.48,6.48"/><path class="cls-1" d="M154.32,36.1l6,7.25a1.49,1.49,0,0,1-.12,2l-6.48,6.48"/><circle class="cls-2" cx="263.33" cy="47.14" r="37.29"/><circle class="cls-3" cx="260.17" cy="42.5" r="15.94"/><line class="cls-3" x1="271.32" y1="53.66" x2="284.41" y2="64.81"/><circle class="cls-4" cx="473.46" cy="46.87" r="37.29"/><rect class="cls-5" x="446.83" y="24.25" width="53.65" height="45.47"/><rect class="cls-6" x="446.83" y="24.25" width="53.38" height="3.55"/><rect class="cls-7" x="446.83" y="48.22" width="53.65" height="21.5"/><rect class="cls-8" x="452.81" y="43.04" width="8.99" height="1.89"/><rect class="cls-9" x="463.74" y="43.04" width="8.99" height="1.89"/><line class="cls-10" x1="473.77" y1="58.41" x2="496.12" y2="58.41"/><line class="cls-10" x1="473.77" y1="52.31" x2="496.12" y2="52.31"/><line class="cls-10" x1="473.77" y1="55.36" x2="496.12" y2="55.36"/><line class="cls-10" x1="473.77" y1="61.46" x2="496.12" y2="61.46"/><line class="cls-10" x1="473.77" y1="64.51" x2="496.12" y2="64.51"/><line class="cls-10" x1="474.35" y1="67.55" x2="496.66" y2="67.55"/><line class="cls-10" x1="449.57" y1="61.57" x2="471.88" y2="61.57"/><line class="cls-10" x1="449.57" y1="55.55" x2="471.88" y2="55.55"/><line class="cls-10" x1="449.57" y1="58.56" x2="471.88" y2="58.56"/><line class="cls-10" x1="449.57" y1="64.54" x2="471.88" y2="64.54"/><line class="cls-10" x1="449.57" y1="67.55" x2="471.88" y2="67.55"/><circle class="cls-11" cx="54.42" cy="46.87" r="37.29"/><line class="cls-12" x1="33.17" y1="27.91" x2="75.67" y2="27.91"/><line class="cls-12" x1="33.17" y1="35.02" x2="75.67" y2="35.02"/><line class="cls-12" x1="33.17" y1="42.08" x2="75.67" y2="42.08"/><line class="cls-12" x1="33.17" y1="49.14" x2="75.67" y2="49.14"/><line class="cls-12" x1="33.17" y1="56.25" x2="75.67" y2="56.25"/><line class="cls-12" x1="33.17" y1="63.31" x2="75.67" y2="63.31"/><circle class="cls-13" cx="662.67" cy="40.29" r="37.29"/><polyline class="cls-14" points="648.24 41.64 656.65 51.17 681.97 29.09"/><text class="cls-15" transform="translate(25.74 111.78)">planning</text><text class="cls-16" transform="translate(216.08 111.78)">d<tspan class="cls-17" x="8.64" y="0">a</tspan><tspan x="15.96" y="0">ta g</tspan><tspan class="cls-17" x="40.23" y="0">a</tspan><tspan x="47.55" y="0">the</tspan><tspan class="cls-18" x="68.79" y="0">r</tspan><tspan x="73.86" y="0">ing</tspan></text><text class="cls-19" transform="translate(437.62 111.78)">p<tspan class="cls-20" x="8.72" y="0">r</tspan><tspan class="cls-21" x="13.57" y="0">odu</tspan><tspan class="cls-22" x="39.06" y="0">c</tspan><tspan x="46.12" y="0">tion</tspan></text><text class="cls-23" transform="translate(635.54 109.23)"><tspan class="cls-24">v</tspan><tspan x="7.31" y="0">alid</tspan><tspan class="cls-24" x="30.53" y="0">a</tspan><tspan x="37.85" y="0">tion </tspan></text><text class="cls-15" transform="translate(14.28 154.33)">p<tspan class="cls-25" x="8.72" y="0">r</tspan><tspan class="cls-26" x="13.57" y="0">oje</tspan><tspan class="cls-27" x="33.38" y="0">c</tspan><tspan x="40.44" y="0">t plan</tspan></text><text class="cls-15" transform="translate(4.99 205.8)">i<tspan class="cls-17" x="3.58" y="0">n</tspan><tspan class="cls-28" x="12.02" y="0">t</tspan><tspan x="17" y="0">e</tspan><tspan class="cls-29" x="24.68" y="0">r</tspan><tspan class="cls-30" x="30.07" y="0">view </tspan><tspan class="cls-31" x="63.22" y="0">w</tspan><tspan class="cls-30" x="73.9" y="0">.</tspan><tspan x="0" y="18.38">p</tspan><tspan class="cls-25" x="8.72" y="18.38">r</tspan><tspan class="cls-26" x="13.57" y="18.38">odu</tspan><tspan class="cls-27" x="39.06" y="18.38">c</tspan><tspan x="46.12" y="18.38">t </tspan><tspan class="cls-32" x="54.44" y="18.38">o</tspan><tspan x="62.74" y="18.38">wner</tspan></text><text class="cls-16" transform="translate(231.91 155.18)">field study</text><text class="cls-16" transform="translate(223.96 204.1)">i<tspan class="cls-17" x="3.58" y="0">n</tspan><tspan class="cls-28" x="12.02" y="0">t</tspan><tspan x="17" y="0">e</tspan><tspan class="cls-29" x="24.68" y="0">r</tspan><tspan class="cls-30" x="30.07" y="0">view </tspan><tspan class="cls-31" x="63.22" y="0">w</tspan><tspan class="cls-30" x="73.9" y="0">. </tspan><tspan x="0" y="18.38">obse</tspan><tspan class="cls-29" x="30.87" y="18.38">r</tspan><tspan class="cls-24" x="36.26" y="18.38">va</tspan><tspan x="50.89" y="18.38">tions</tspan></text><text class="cls-16" transform="translate(214.82 266.22)">affini<tspan class="cls-33" x="31.95" y="0">t</tspan><tspan class="cls-26" x="37.16" y="0">y dia</tspan><tspan class="cls-28" x="67.23" y="0">g</tspan><tspan class="cls-34" x="75.7" y="0">r</tspan><tspan x="80.64" y="0">am</tspan></text><text class="cls-19" transform="translate(444.7 155.18)">p<tspan class="cls-20" x="8.72" y="0">r</tspan><tspan class="cls-21" x="13.57" y="0">o</tspan><tspan class="cls-28" x="21.98" y="0">t</tspan><tspan x="26.96" y="0">o</tspan><tspan class="cls-35" x="35.37" y="0">t</tspan><tspan x="40.58" y="0">ype</tspan></text><text class="cls-19" transform="translate(449.29 205.04)">ske<tspan class="cls-28" x="20.92" y="0">t</tspan><tspan x="25.9" y="0">ches</tspan></text><text class="cls-19" transform="translate(444.48 255.16)">wi<tspan class="cls-20" x="14.86" y="0">r</tspan><tspan class="cls-21" x="19.71" y="0">ef</tspan><tspan class="cls-36" x="31.86" y="0">r</tspan><tspan class="cls-21" x="36.79" y="0">ame</tspan></text><text class="cls-19" transform="translate(447.54 304.23)">moc<tspan class="cls-37" x="28.05" y="0">k</tspan><tspan x="35.29" y="0">ups</tspan></text><rect class="cls-38" x="12.29" y="137.66" width="80" height="26.38" rx="11.28"/><rect class="cls-38" x="0.38" y="187.87" width="102.09" height="47.48" rx="11.28"/><rect class="cls-39" x="225.22" y="136.81" width="80" height="26.38" rx="11.28"/><rect class="cls-40" x="436.8" y="138.51" width="80" height="26.38" rx="11.28"/><rect class="cls-39" x="215.88" y="187.87" width="98.68" height="38.97" rx="11.28"/><rect class="cls-39" x="210.35" y="249.14" width="109.75" height="26.38" rx="11.28"/><rect class="cls-40" x="436.02" y="187.87" width="81.55" height="26.38" rx="11.28"/><rect class="cls-40" x="435.39" y="237.23" width="82.81" height="26.38" rx="11.28"/><rect class="cls-40" x="435.39" y="287.32" width="82.81" height="26.38" rx="11.28"/><line class="cls-10" x1="49.31" y1="163.62" x2="49.31" y2="187.45"/><line class="cls-41" x1="265.22" y1="164.43" x2="265.22" y2="188.26"/><line class="cls-41" x1="265.22" y1="226.53" x2="265.22" y2="250.36"/><line class="cls-42" x1="476.8" y1="213.77" x2="476.8" y2="237.59"/><line class="cls-42" x1="476.8" y1="164.43" x2="476.8" y2="188.26"/><line class="cls-42" x1="476.8" y1="264" x2="476.8" y2="287.83"/><text class="cls-19" transform="translate(409.28 352.9)">i<tspan class="cls-24" x="3.58" y="0">n</tspan><tspan class="cls-28" x="12.02" y="0">t</tspan><tspan x="17" y="0">e</tspan><tspan class="cls-36" x="24.68" y="0">r</tspan><tspan x="29.61" y="0">a</tspan><tspan class="cls-22" x="36.99" y="0">c</tspan><tspan x="44.06" y="0">ti</tspan><tspan class="cls-25" x="52.71" y="0">v</tspan><tspan x="59.92" y="0">e p</tspan><tspan class="cls-20" x="79.56" y="0">r</tspan><tspan class="cls-21" x="84.42" y="0">o</tspan><tspan class="cls-28" x="92.83" y="0">t</tspan><tspan x="97.81" y="0">o</tspan><tspan class="cls-35" x="106.22" y="0">t</tspan><tspan x="111.42" y="0">ype</tspan></text><rect class="cls-40" x="403.61" y="335.98" width="146.38" height="26.38" rx="11.28"/><line class="cls-42" x1="476.8" y1="313.22" x2="476.8" y2="337.05"/><text class="cls-23" transform="translate(637.66 155.56)">e<tspan class="cls-24" x="7.67" y="0">v</tspan><tspan class="cls-21" x="14.98" y="0">alu</tspan><tspan class="cls-24" x="34.42" y="0">a</tspan><tspan x="41.74" y="0">tion</tspan></text><text class="cls-23" transform="translate(641.45 205.41)">user <tspan class="cls-28" x="30.44" y="0">t</tspan><tspan class="cls-21" x="35.42" y="0">est</tspan></text><rect class="cls-43" x="629.84" y="138.88" width="80" height="26.38" rx="11.28"/><rect class="cls-43" x="629.95" y="188.24" width="81.55" height="26.38" rx="11.28"/><line class="cls-43" x1="669.93" y1="164.8" x2="669.93" y2="188.63"/><text class="cls-15" transform="translate(332.58 166.75)"><tspan xml:space="preserve">    </tspan></text></g></g></svg>