<svg xmlns="http://www.w3.org/2000/svg" viewBox="0 0 67.61 50.62"><defs><style>.cls-1{fill:#fff;}.cls-2{fill:#191919;opacity:0.8;}</style></defs><title>Resurs 1</title><g id="Lager_2" data-name="Lager 2"><g id="Lager_1-2" data-name="Lager 1"><path class="cls-1" d="M12.48,5.47a7.24,7.24,0,0,1-.83-.24Z"/><path class="cls-2" d="M25.09,14.74a3.08,3.08,0,0,0,.07-1.65A12.79,12.79,0,0,1,24.89,8c.54-2.51.06-6.38.43-7.53s1.94,0,2.55.59,1.55,2.75,2.25,2.74a24,24,0,0,1,2.73-.11c.55.08.42.61,2.18-.65C37,1.65,37.65,0,38.65.4s.93,3.66.93,3.66l.05,4.23a18.14,18.14,0,0,1-.5,4.29A6.45,6.45,0,0,0,38.78,17a9.48,9.48,0,0,1,.3,6.66c-1,3.25-3.38,11.17-3.38,11.17l-1,8.58s-.4,2.25.9,2.77,2.92,1.23,1.71,2.7l-2.48.45L32.88,49a3.32,3.32,0,0,1-3.27.67c-2.15-.55-2.56-1.14-2.56-1.14s.13-.55-.95-.28.06.85-1.17,1.08a16.69,16.69,0,0,1-3,.31,12.86,12.86,0,0,1-2.45-.54A26.53,26.53,0,0,0,13.9,48L3,47s-3.19-.2-3-1.4A4.7,4.7,0,0,1,3.86,42a19,19,0,0,1,3.72-.48S8.1,42.59,6,43s.66.71.66.71,4.74.62,5.38.55,1.56.56,1.52-1.18-.59-4-.46-5.14.48-2.64.93-4.77a30.26,30.26,0,0,1,3.18-9.6,9.07,9.07,0,0,1,2.88-3.06L23,18.62a3.56,3.56,0,0,0,1.41-1.83Z"/><path class="cls-2" d="M57,25.09a2.32,2.32,0,0,0,0-1.2,9.45,9.45,0,0,1-.2-3.69c.4-1.82,0-4.64.31-5.49s1.42,0,1.86.43,1.14,2,1.64,2a17.66,17.66,0,0,1,2-.08c.4.06.3.44,1.58-.47,1.45-1,1.91-2.26,2.64-1.95s.68,2.67.68,2.67l0,3.08a13.34,13.34,0,0,1-.36,3.13A4.7,4.7,0,0,0,67,26.75a6.9,6.9,0,0,1,.21,4.86c-.7,2.37-2.46,8.14-2.46,8.14L64,46s-.29,1.64.66,2,2.13.89,1.24,2l-1.8.33L62.7,50a2.44,2.44,0,0,1-2.39.49c-1.57-.4-1.87-.83-1.87-.83s.1-.4-.69-.2,0,.61-.85.78a11.4,11.4,0,0,1-2.21.23,9.86,9.86,0,0,1-1.79-.39,18,18,0,0,0-4-.78l-8-.75s-2.33-.15-2.16-1a3.42,3.42,0,0,1,2.8-2.6,14,14,0,0,1,2.71-.35s.39.79-1.17,1.11.49.52.49.52,3.45.44,3.92.4,1.14.41,1.11-.86-.43-3-.34-3.75.35-1.93.68-3.48a22.12,22.12,0,0,1,2.31-7,6.71,6.71,0,0,1,2.11-2.23l2.13-1.4a2.61,2.61,0,0,0,1-1.33Z"/></g></g></svg>