<?xml version="1.0" encoding="utf-8"?>
<!-- Generator: Adobe Illustrator 23.0.6, SVG Export Plug-In . SVG Version: 6.00 Build 0)  -->
<svg version="1.1" id="Lager_1" xmlns="http://www.w3.org/2000/svg" xmlns:xlink="http://www.w3.org/1999/xlink" x="0px" y="0px"
	 viewBox="0 0 67.6 50.6" style="enable-background:new 0 0 67.6 50.6;" xml:space="preserve">
<style type="text/css">
	.st0{fill:#7767A3;}
	.st1{opacity:0.8;fill:#7767A3;enable-background:new    ;}
</style>
<title>Resurs 1</title>
<g>
	<g id="Lager_1-2">
		<path class="st0" d="M12.5,5.5c-0.3-0.1-0.6-0.1-0.8-0.2L12.5,5.5z"/>
		<path class="st1" d="M25.1,14.7c0.2-0.5,0.2-1.1,0.1-1.6c-0.4-1.7-0.5-3.4-0.3-5.1c0.5-2.5,0.1-6.4,0.4-7.5s1.9,0,2.5,0.6
			s1.5,2.8,2.3,2.7c0.9-0.1,1.8-0.1,2.7-0.1C33.4,3.8,33.3,4.3,35,3c2-1.4,2.6-3,3.6-2.6s0.9,3.7,0.9,3.7l0,4.2
			c0,1.4-0.2,2.9-0.5,4.3c-0.6,1.4-0.8,3-0.4,4.4c0.9,2.1,1,4.5,0.3,6.7c-1,3.3-3.4,11.2-3.4,11.2l-1,8.6c0,0-0.4,2.3,0.9,2.8
			s2.9,1.2,1.7,2.7l-2.5,0.5L32.9,49c-0.9,0.8-2.1,1.1-3.3,0.7c-2.1-0.5-2.6-1.1-2.6-1.1s0.1-0.5-1-0.3s0.1,0.8-1.2,1.1
			c-1,0.2-2,0.3-3,0.3c-0.8-0.1-1.7-0.3-2.5-0.5c-1.8-0.6-3.7-0.9-5.6-1.1L3,47c0,0-3.2-0.2-3-1.4c0.4-1.9,2-3.3,3.9-3.6
			c1.2-0.3,2.5-0.4,3.7-0.5c0,0,0.5,1.1-1.6,1.5s0.7,0.7,0.7,0.7s4.7,0.6,5.4,0.5s1.6,0.6,1.5-1.2s-0.6-4-0.5-5.1s0.5-2.6,0.9-4.8
			c0.5-3.4,1.6-6.6,3.2-9.6c0.7-1.2,1.7-2.3,2.9-3.1l2.9-1.9c0.7-0.4,1.2-1.1,1.4-1.8L25.1,14.7z"/>
		<path class="st1" d="M57,25.1c0.1-0.4,0.1-0.8,0-1.2c-0.3-1.2-0.4-2.5-0.2-3.7c0.4-1.8,0-4.6,0.3-5.5s1.4,0,1.9,0.4s1.1,2,1.6,2
			c0.7-0.1,1.3-0.1,2-0.1c0.4,0.1,0.3,0.4,1.6-0.5c1.4-1,1.9-2.3,2.6-1.9s0.7,2.7,0.7,2.7v3.1c0,1.1-0.1,2.1-0.4,3.1
			c-0.4,1-0.5,2.2-0.2,3.2c0.7,1.5,0.7,3.3,0.2,4.9c-0.7,2.4-2.5,8.1-2.5,8.1L64,46c0,0-0.3,1.6,0.7,2s2.1,0.9,1.2,2l-1.8,0.3
			L62.7,50c-0.7,0.6-1.6,0.8-2.4,0.5c-1.6-0.4-1.9-0.8-1.9-0.8s0.1-0.4-0.7-0.2s0,0.6-0.8,0.8c-0.7,0.1-1.5,0.2-2.2,0.2
			c-0.6-0.1-1.2-0.2-1.8-0.4c-1.3-0.4-2.6-0.7-4-0.8l-8-0.8c0,0-2.3-0.2-2.2-1c0.3-1.4,1.4-2.4,2.8-2.6c0.9-0.2,1.8-0.3,2.7-0.3
			c0,0,0.4,0.8-1.2,1.1s0.5,0.5,0.5,0.5s3.5,0.4,3.9,0.4s1.1,0.4,1.1-0.9s-0.4-3-0.3-3.8s0.3-1.9,0.7-3.5c0.4-2.4,1.2-4.8,2.3-7
			c0.5-0.9,1.2-1.7,2.1-2.2l2.1-1.4c0.5-0.3,0.8-0.8,1-1.3L57,25.1z"/>
	</g>
</g>
</svg>
