<svg id="Lager_1" data-name="Lager 1" xmlns="http://www.w3.org/2000/svg" viewBox="0 0 131.41 51.54"><defs><style>.cls-1{fill:#7767a3;opacity:0.8;isolation:isolate;}</style></defs><title>drone</title><g id="Lager_1-2" data-name="Lager 1-2"><rect class="cls-1" x="43.89" y="11.13" width="44.64" height="5.89"/><path class="cls-1" d="M118.31,25.9H106.24L87.25,20a.88.88,0,0,1-.51-.33C83.6,16.9,77.31,14.94,70,14.94s-13.83,2-16.85,4.91h0L33.8,25.74H21.73c-3.14,0-5.66,1.8-5.66,4.09s2.52,4.09,5.66,4.09H33.55L51.79,37c.62,0,1,.65,1.13,1.3h0c.12.82.63,1.48,1.25,1.31h8.18c.88,4.91,4.78,8,8.55,6.71,2.51-.82,4.53-3.43,5.16-6.71h9.3a1.27,1.27,0,0,0,1.26-1.31A1.17,1.17,0,0,1,87.75,37L106,33.92h12.33c3.14,0,5.66-1.8,5.66-4.09S121.45,25.9,118.31,25.9Z" transform="translate(-4 -6.27)"/><path class="cls-1" d="M25.63,10h0c1.76,0,3.14,1.8,3.14,4.09V25.74H22.49V14.12C22.49,11.83,23.87,10,25.63,10Z" transform="translate(-4 -6.27)"/><path class="cls-1" d="M113.4,10h0c1.76,0,3.15,1.8,3.15,4.09h0V25.74h-6.29V14.12c0-2.29,1.38-4.09,3.14-4.09Z" transform="translate(-4 -6.27)"/><polygon class="cls-1" points="39.99 9 3.02 9 0 7.85 43.26 7.85 39.99 9"/><polygon class="cls-1" points="128.14 8.51 91.17 8.51 88.15 7.36 131.41 7.36 128.14 8.51"/><path class="cls-1" d="M50,6.27h0c1.26,0,2.27,1.31,2.27,2.94h0v8.18h-4.4V9.21c0-1.63,1-2.94,2.13-2.94Z" transform="translate(-4 -6.27)"/><polygon class="cls-1" points="58.98 3.6 32.82 3.6 30.81 2.78 61.37 2.78 58.98 3.6"/><path class="cls-1" d="M90.39,6.27h0c1.26,0,2.26,1.31,2.26,2.94v8.18h-4.4V9.21C88.13,7.58,89.13,6.27,90.39,6.27Z" transform="translate(-4 -6.27)"/><polygon class="cls-1" points="99.34 3.6 73.19 3.6 71.05 2.78 101.73 2.78 99.34 3.6"/><polygon class="cls-1" points="52.81 41.06 50.05 43.03 49.92 33.21 53.07 33.21 52.81 41.06"/><polygon class="cls-1" points="50.05 43.03 52.81 41.06 55.46 50.06 54.32 51.21 50.05 43.03"/><polyline class="cls-1" points="77.71 33.54 77.97 41.39 80.73 43.35 80.86 33.54"/><polygon class="cls-1" points="80.73 43.35 77.97 41.39 75.33 50.23 76.46 51.53 80.73 43.35"/></g></svg>