<svg xmlns="http://www.w3.org/2000/svg" viewBox="0 0 80.17 24.14"><defs><style>.cls-1{fill:#191919;opacity:0.8;}</style></defs><title>Resurs 2</title><g id="Lager_2" data-name="Lager 2"><g id="Lager_1-2" data-name="Lager 1"><rect class="cls-1" x="26.77" y="5.2" width="27.27" height="2.79"/><path class="cls-1" d="M69.76,9.17H62.6a.75.75,0,0,1-.21,0L50.77,6.43a.81.81,0,0,1-.3-.13C48.55,5,44.71,4.06,40.28,4.06S31.85,5,30,6.38h0L18.17,9.15a.82.82,0,0,1-.22,0H10.8c-1.91,0-3.46.85-3.46,1.9S8.89,13,10.8,13H18l11.1,1.45a.71.71,0,0,1,.66.65h0a.73.73,0,0,0,.79.65h5a4.32,4.32,0,0,0,8.39,0h5.71a.73.73,0,0,0,.79-.65.71.71,0,0,1,.66-.65L62.25,13h7.51c1.91,0,3.46-.85,3.46-1.9S71.67,9.17,69.76,9.17Z"/><path class="cls-1" d="M13.19,1.78h0a1.9,1.9,0,0,1,1.9,1.9V9.13a0,0,0,0,1,0,0H11.29a0,0,0,0,1,0,0V3.68A1.9,1.9,0,0,1,13.19,1.78Z"/><path class="cls-1" d="M66.72,1.78h0a1.9,1.9,0,0,1,1.9,1.9V9.13a0,0,0,0,1,0,0H64.82a0,0,0,0,1,0,0V3.68a1.9,1.9,0,0,1,1.9-1.9Z"/><polygon class="cls-1" points="24.4 4.25 1.81 4.25 0 3.72 26.39 3.72 24.4 4.25"/><polygon class="cls-1" points="78.18 3.99 55.59 3.99 53.78 3.47 80.17 3.47 78.18 3.99"/><path class="cls-1" d="M28.1,0h0a1.35,1.35,0,0,1,1.35,1.35V5.2a0,0,0,0,1,0,0H26.75a0,0,0,0,1,0,0V1.35A1.35,1.35,0,0,1,28.1,0Z"/><polygon class="cls-1" points="36.02 1.69 20.05 1.69 18.77 1.32 37.42 1.32 36.02 1.69"/><path class="cls-1" d="M52.71,0h0a1.35,1.35,0,0,1,1.35,1.35V5.2a0,0,0,0,1,0,0H51.36a0,0,0,0,1,0,0V1.35A1.35,1.35,0,0,1,52.71,0Z"/><polygon class="cls-1" points="60.63 1.69 44.66 1.69 43.38 1.32 62.03 1.32 60.63 1.69"/><polygon class="cls-1" points="32.22 19.28 30.57 20.17 30.44 15.6 32.35 15.6 32.22 19.28"/><polygon class="cls-1" points="30.57 20.17 32.22 19.28 33.87 23.47 33.18 24.01 30.57 20.17"/><polyline class="cls-1" points="47.44 15.73 47.57 19.41 49.22 20.3 49.34 15.73"/><polygon class="cls-1" points="49.22 20.3 47.57 19.41 45.92 23.59 46.61 24.14 49.22 20.3"/></g></g></svg>