<svg xmlns="http://www.w3.org/2000/svg" viewBox="0 0 69.9 35.29"><defs><style>.cls-1,.cls-2{fill:#111;}.cls-1{opacity:0.7;}.cls-2{opacity:0.8;}</style></defs><title>Resurs 3</title><g id="Lager_2" data-name="Lager 2"><g id="Lager_1-2" data-name="Lager 1"><polygon class="cls-1" points="41.78 26.86 6.31 0 19.61 0 46.62 20.47 41.78 26.86"/><path class="cls-1" d="M19.61,33.41H68.18a1.72,1.72,0,0,1,1.72,1.72v.15a0,0,0,0,1,0,0h-52a0,0,0,0,1,0,0v-.17a1.71,1.71,0,0,1,1.71-1.71Z" transform="translate(87.8 68.7) rotate(180)"/><path class="cls-2" d="M40.56,28.49l7.95-10.55a.37.37,0,0,1,.65.1l5.05,13.84L40.87,29.31A.52.52,0,0,1,40.56,28.49Z"/><path class="cls-1" d="M3.41.51l.28.24a.12.12,0,0,0,.15,0L4.09.51"/><rect class="cls-1" x="36.96" y="12.98" width="7.1" height="14.74" transform="translate(60.26 61.17) rotate(-142.5)"/><rect class="cls-1" x="30.14" y="8.02" width="7.1" height="14.74" transform="translate(51.04 48.11) rotate(-142.5)"/><rect class="cls-1" x="23.31" y="3.25" width="7.1" height="14.74" transform="translate(41.71 35.4) rotate(-142.5)"/><polygon class="cls-1" points="12.74 9.19 18.37 13.52 27.34 1.82 24.89 0 19.77 0 12.74 9.19"/><polygon class="cls-1" points="5.91 4.22 11.54 8.54 18.07 0 9.38 0 5.91 4.22"/><polygon class="cls-1" points="0 0 4.72 3.76 7.5 0 3.75 0 0 0"/></g></g></svg>