<?xml version="1.0" encoding="utf-8"?>
<!-- Generator: Adobe Illustrator 23.0.6, SVG Export Plug-In . SVG Version: 6.00 Build 0)  -->
<svg version="1.1" id="Lager_1" xmlns="http://www.w3.org/2000/svg" xmlns:xlink="http://www.w3.org/1999/xlink" x="0px" y="0px"
	 viewBox="0 0 69.9 35.3" style="enable-background:new 0 0 69.9 35.3;" xml:space="preserve">
<style type="text/css">
	.st0{opacity:0.7;fill:#7767A3;enable-background:new    ;}
	.st1{opacity:0.8;fill:#7767A3;enable-background:new    ;}
</style>
<title>Resurs 3</title>
<g>
	<g id="Lager_1-2">
		<polygon class="st0" points="41.8,26.9 6.3,0 19.6,0 46.6,20.5 		"/>
		<path class="st0" d="M68.2,35.3H19.6c-0.9,0-1.7-0.8-1.7-1.7c0,0,0,0,0,0v-0.2l0,0h52l0,0v0.2C69.9,34.5,69.1,35.3,68.2,35.3
			L68.2,35.3z"/>
		<path class="st1" d="M40.6,28.5l8-10.6c0.1-0.2,0.4-0.2,0.5-0.1c0.1,0,0.1,0.1,0.1,0.2l5,13.8l-13.3-2.6c-0.3-0.1-0.5-0.3-0.4-0.6
			C40.5,28.6,40.5,28.6,40.6,28.5z"/>
		<path class="st0" d="M3.4,0.5l0.3,0.2c0,0,0.1,0,0.2,0l0.3-0.2"/>
		
			<rect x="33.1" y="16.8" transform="matrix(0.6088 -0.7934 0.7934 0.6088 -0.3072 40.1057)" class="st0" width="14.7" height="7.1"/>
		
			<rect x="26.3" y="11.8" transform="matrix(0.6088 -0.7934 0.7934 0.6088 0.9666 32.7423)" class="st0" width="14.7" height="7.1"/>
		<rect x="19.5" y="7.1" transform="matrix(0.6088 -0.7934 0.7934 0.6088 2.0829 25.4701)" class="st0" width="14.7" height="7.1"/>
		<polygon class="st0" points="12.7,9.2 18.4,13.5 27.3,1.8 24.9,0 19.8,0 		"/>
		<polygon class="st0" points="5.9,4.2 11.5,8.5 18.1,0 9.4,0 		"/>
		<polygon class="st0" points="0,0 4.7,3.8 7.5,0 3.8,0 		"/>
	</g>
</g>
</svg>
