<svg xmlns="http://www.w3.org/2000/svg" viewBox="0 0 114 817"><defs><style>.cls-1,.cls-2,.cls-3,.cls-6,.cls-8{fill:none;}.cls-1{stroke:#e9e8ea;stroke-width:8px;}.cls-1,.cls-2,.cls-3,.cls-8{stroke-miterlimit:10;}.cls-2,.cls-3{stroke:#fff;}.cls-2{stroke-width:6px;}.cls-3{stroke-width:2px;}.cls-10,.cls-4,.cls-5,.cls-9{isolation:isolate;}.cls-10,.cls-4,.cls-9{font-size:18.39px;font-family:MyriadPro-Regular, Myriad Pro;}.cls-10,.cls-4,.cls-7,.cls-9{fill:#fff;}.cls-8{stroke:#000;}.cls-9{letter-spacing:-0.01em;}.cls-10{letter-spacing:0.01em;}</style></defs><title>Resurs 1</title><g id="Lager_2" data-name="Lager 2"><g id="Lager_1-2" data-name="Lager 1"><rect width="114" height="817"/><g id="Layer_1" data-name="Layer 1"><path class="cls-1" d="M46.41,210.69l8.71,7.12a1.81,1.81,0,0,0,2.45-.14L65.35,210"/><ellipse class="cls-2" cx="55.88" cy="84.75" rx="44.09" ry="44.75"/><line class="cls-3" x1="30.75" y1="62.01" x2="81" y2="62.01"/><line class="cls-3" x1="30.75" y1="70.53" x2="81" y2="70.53"/><line class="cls-3" x1="30.75" y1="79.01" x2="81" y2="79.01"/><line class="cls-3" x1="30.75" y1="87.48" x2="81" y2="87.48"/><line class="cls-3" x1="30.75" y1="96.01" x2="81" y2="96.01"/><line class="cls-3" x1="30.75" y1="104.49" x2="81" y2="104.49"/><text class="cls-4" transform="translate(21.96 177.31) scale(0.99 1)">planning</text><ellipse class="cls-2" cx="55.88" cy="291.07" rx="44.09" ry="44.75"/><ellipse class="cls-3" cx="52.14" cy="285.51" rx="18.85" ry="19.13"/><line class="cls-3" x1="65.33" y1="298.9" x2="80.8" y2="312.29"/><g class="cls-5"><text class="cls-4" transform="translate(0 383.63) scale(0.99 1)">d</text><text class="cls-4" transform="translate(10.27 383.63) scale(0.99 1)">a</text><text class="cls-4" transform="translate(18.97 383.63) scale(0.99 1)">ta g</text><text class="cls-4" transform="translate(47.8 383.63) scale(0.99 1)">a</text><text class="cls-4" transform="translate(56.5 383.63) scale(0.99 1)">the</text><text class="cls-4" transform="translate(81.74 383.63) scale(0.99 1)">r</text><text class="cls-4" transform="translate(87.76 383.63) scale(0.99 1)">ing</text></g><ellipse class="cls-2" cx="55.88" cy="497.39" rx="44.09" ry="44.75"/><rect class="cls-6" x="24.39" y="470.24" width="63.44" height="54.57"/><rect class="cls-7" x="24.39" y="470.24" width="63.12" height="4.26"/><rect class="cls-7" x="24.39" y="499.01" width="63.44" height="25.8"/><rect class="cls-7" x="31.46" y="492.8" width="10.63" height="2.27"/><rect class="cls-7" x="44.38" y="492.8" width="10.63" height="2.27"/><line class="cls-8" x1="56.24" y1="511.24" x2="82.67" y2="511.24"/><line class="cls-8" x1="56.24" y1="503.92" x2="82.67" y2="503.92"/><line class="cls-8" x1="56.24" y1="507.58" x2="82.67" y2="507.58"/><line class="cls-8" x1="56.24" y1="514.9" x2="82.67" y2="514.9"/><line class="cls-8" x1="56.24" y1="518.56" x2="82.67" y2="518.56"/><line class="cls-8" x1="56.93" y1="522.22" x2="83.31" y2="522.22"/><line class="cls-8" x1="27.63" y1="515.04" x2="54.01" y2="515.04"/><line class="cls-8" x1="27.63" y1="507.81" x2="54.01" y2="507.81"/><line class="cls-8" x1="27.63" y1="511.43" x2="54.01" y2="511.43"/><line class="cls-8" x1="27.63" y1="518.61" x2="54.01" y2="518.61"/><line class="cls-8" x1="27.63" y1="522.22" x2="54.01" y2="522.22"/><g class="cls-5"><text class="cls-4" transform="translate(13.49 589.95) scale(0.99 1)">p</text><text class="cls-9" transform="translate(23.85 589.95) scale(0.99 1)">r</text><text class="cls-4" transform="translate(29.62 589.95) scale(0.99 1)">odu</text><text class="cls-10" transform="translate(59.9 589.95) scale(0.99 1)">c</text><text class="cls-4" transform="translate(68.3 589.95) scale(0.99 1)">tion</text></g><ellipse class="cls-2" cx="55.88" cy="703.71" rx="44.09" ry="44.75"/><polyline class="cls-3" points="38.81 705.33 48.76 716.77 78.7 690.28"/><g class="cls-5"><text class="cls-4" transform="translate(16.47 796.27) scale(0.99 1)">v</text><text class="cls-4" transform="translate(25.15 796.27) scale(0.99 1)">alid</text><text class="cls-4" transform="translate(52.74 796.27) scale(0.99 1)">a</text><text class="cls-4" transform="translate(61.45 796.27) scale(0.99 1)">tion</text></g><path class="cls-1" d="M46.41,417l8.71,7.12a1.81,1.81,0,0,0,2.45-.14l7.78-7.67"/><path class="cls-1" d="M46.41,623.33l8.71,7.12a1.81,1.81,0,0,0,2.45-.14l7.78-7.67"/></g></g></g></svg>