<svg xmlns="http://www.w3.org/2000/svg" xmlns:xlink="http://www.w3.org/1999/xlink" viewBox="0 0 686.1 67.16"><defs><style>.cls-1{fill:#f4bc08;}.cls-2{fill:url(#Namnlös_övertoning_6);}.cls-3{fill:url(#Namnlös_övertoning_2);}.cls-4{fill:url(#Namnlös_övertoning_3);}.cls-5{fill:url(#Namnlös_övertoning_4);}.cls-6{fill:url(#Namnlös_övertoning_5);}.cls-7{fill:url(#Namnlös_övertoning_6-2);}.cls-8{fill:url(#Namnlös_övertoning_16);}.cls-9{fill:url(#Namnlös_övertoning_16-2);}.cls-10,.cls-11,.cls-12{stroke:#9e9e9e;stroke-miterlimit:10;}.cls-10{fill:url(#Namnlös_övertoning_11);}.cls-11{fill:url(#Namnlös_övertoning_11-2);}.cls-12{fill:url(#Namnlös_övertoning_11-3);}.cls-13{fill:url(#Namnlös_övertoning_17);}.cls-14{fill:url(#Namnlös_övertoning_16-3);}.cls-15{fill:url(#Namnlös_övertoning_16-4);}.cls-16{fill:url(#Namnlös_övertoning_16-5);}.cls-17{fill:url(#Namnlös_övertoning_16-6);}.cls-18{opacity:0.15;}.cls-19{opacity:0.57;}.cls-20{fill:#a38f16;}.cls-21{fill:url(#Namnlös_övertoning_17-2);}</style><linearGradient id="Namnlös_övertoning_6" x1="-9.9" y1="958.14" x2="60.32" y2="958.14" gradientTransform="translate(1395.55 14.29) rotate(90) scale(0.75)" gradientUnits="userSpaceOnUse"><stop offset="0" stop-color="#6e71ff"/><stop offset="0.78" stop-color="#93b7ff"/><stop offset="1" stop-color="#6e71ff"/></linearGradient><linearGradient id="Namnlös_övertoning_2" x1="-9.9" y1="1041.58" x2="60.32" y2="1041.58" gradientTransform="translate(1395.55 14.29) rotate(90) scale(0.75)" gradientUnits="userSpaceOnUse"><stop offset="0" stop-color="#ffcd00"/><stop offset="0.77" stop-color="#ffed79"/><stop offset="1" stop-color="#ffcd00"/></linearGradient><linearGradient id="Namnlös_övertoning_3" x1="-9.9" y1="1185.07" x2="60.32" y2="1185.07" gradientTransform="translate(1395.55 14.29) rotate(90) scale(0.75)" gradientUnits="userSpaceOnUse"><stop offset="0" stop-color="#ff9500"/><stop offset="0.78" stop-color="#ffb500"/><stop offset="1" stop-color="#ff9500"/></linearGradient><linearGradient id="Namnlös_övertoning_4" x1="-9.9" y1="1329.58" x2="60.32" y2="1329.58" gradientTransform="translate(1395.55 14.29) rotate(90) scale(0.75)" gradientUnits="userSpaceOnUse"><stop offset="0" stop-color="#bf002d"/><stop offset="0.78" stop-color="#eb002d"/><stop offset="1" stop-color="#bf002d"/></linearGradient><linearGradient id="Namnlös_övertoning_5" x1="-9.9" y1="1472.05" x2="60.32" y2="1472.05" gradientTransform="translate(1395.55 14.29) rotate(90) scale(0.75)" gradientUnits="userSpaceOnUse"><stop offset="0" stop-color="#ed1c24"/><stop offset="0.78" stop-color="#ed5624"/><stop offset="1" stop-color="#ed1c24"/></linearGradient><linearGradient id="Namnlös_övertoning_6-2" x1="-19.06" y1="1635.38" x2="70.5" y2="1635.38" xlink:href="#Namnlös_övertoning_6"/><linearGradient id="Namnlös_övertoning_16" x1="51.67" y1="1641.69" x2="70.53" y2="1641.69" gradientTransform="translate(1395.55 14.29) rotate(90) scale(0.75)" gradientUnits="userSpaceOnUse"><stop offset="0"/><stop offset="0.78" stop-color="#333"/><stop offset="1"/></linearGradient><linearGradient id="Namnlös_övertoning_16-2" x1="-19.06" y1="1641.63" x2="-0.84" y2="1641.63" xlink:href="#Namnlös_övertoning_16"/><linearGradient id="Namnlös_övertoning_11" x1="7.01" y1="1426.91" x2="42.63" y2="1426.91" gradientTransform="translate(1395.55 14.29) rotate(90) scale(0.75)" gradientUnits="userSpaceOnUse"><stop offset="0" stop-color="#ed4b24"/><stop offset="0.78" stop-color="#ed5624"/><stop offset="1" stop-color="#ed1c24"/></linearGradient><linearGradient id="Namnlös_övertoning_11-2" x1="7.01" y1="1470.67" x2="42.63" y2="1470.67" xlink:href="#Namnlös_övertoning_11"/><linearGradient id="Namnlös_övertoning_11-3" x1="7.01" y1="1514.43" x2="42.63" y2="1514.43" xlink:href="#Namnlös_övertoning_11"/><linearGradient id="Namnlös_övertoning_17" x1="-9.9" y1="1283.28" x2="60.32" y2="1283.28" gradientTransform="translate(1395.55 14.29) rotate(90) scale(0.75)" gradientUnits="userSpaceOnUse"><stop offset="0" stop-color="#b3b3b3"/><stop offset="0.78" stop-color="#e6e6e6"/><stop offset="1" stop-color="#b3b3b3"/></linearGradient><linearGradient id="Namnlös_övertoning_16-3" x1="-8.88" y1="1219.16" x2="61.34" y2="1219.16" xlink:href="#Namnlös_övertoning_16"/><linearGradient id="Namnlös_övertoning_16-4" x1="-8.88" y1="1196.78" x2="61.34" y2="1196.78" xlink:href="#Namnlös_övertoning_16"/><linearGradient id="Namnlös_övertoning_16-5" x1="-8.88" y1="1174.39" x2="61.34" y2="1174.39" xlink:href="#Namnlös_övertoning_16"/><linearGradient id="Namnlös_övertoning_16-6" x1="-8.88" y1="1150.98" x2="61.34" y2="1150.98" xlink:href="#Namnlös_övertoning_16"/><linearGradient id="Namnlös_övertoning_17-2" x1="-10.91" y1="1376.9" x2="59.3" y2="1376.9" xlink:href="#Namnlös_övertoning_17"/></defs><title>Resurs 4</title><g id="Lager_2" data-name="Lager 2"><g id="Lager_1-2" data-name="Lager 1"><path class="cls-1" d="M130.47,49.61H38.88s-9.46-3.36-19.08-7V26.41c9.62-4.58,19.08-9.62,19.08-9.62h91.59Z"/><rect class="cls-2" x="667.79" y="6.87" width="18.32" height="52.66"/><rect class="cls-3" x="560.17" y="6.87" width="108.38" height="52.66"/><rect class="cls-4" x="452.55" y="6.87" width="108.38" height="52.66"/><rect class="cls-5" x="344.17" y="6.87" width="108.38" height="52.66"/><rect class="cls-6" x="237.32" y="6.87" width="108.38" height="52.66"/><path class="cls-7" d="M204.27,67.16h-82a22.29,22.29,0,0,1-12.13-3.61,24,24,0,0,1-11-20.23V23.84A24,24,0,0,1,110.62,3.3h0A22.09,22.09,0,0,1,122.3,0h82a22.56,22.56,0,0,1,14,4.88,20.29,20.29,0,0,1,3,2.75h17.63v51.9H221.22A26.51,26.51,0,0,1,218.7,62,22.86,22.86,0,0,1,204.27,67.16Z"/><path class="cls-8" d="M204.16,67.16h-82a22.7,22.7,0,0,1-12.13-3.51C125.7,56.94,145.16,53,166.23,53c19.39,0,37.4,3.36,52.28,9.08A22.52,22.52,0,0,1,204.16,67.16Z"/><path class="cls-9" d="M166.23,13.66c-20.91,0-40.15-3.89-55.72-10.45A22.48,22.48,0,0,1,122.19,0h82a23.05,23.05,0,0,1,14,4.73C203.32,10.38,185.46,13.66,166.23,13.66Z"/><circle class="cls-10" cx="325.36" cy="32.9" r="13.36"/><circle class="cls-11" cx="292.55" cy="32.9" r="13.36"/><circle class="cls-12" cx="259.73" cy="32.9" r="13.36"/><rect class="cls-13" x="431.18" y="6.87" width="3.82" height="52.66"/><rect class="cls-14" x="476.98" y="7.63" width="8.4" height="52.66"/><rect class="cls-15" x="493.77" y="7.63" width="8.4" height="52.66"/><rect class="cls-16" x="510.56" y="7.63" width="8.4" height="52.66"/><rect class="cls-17" x="528.11" y="7.63" width="8.4" height="52.66"/><g class="cls-18"><g class="cls-19"><path class="cls-20" d="M666.38,9.55a.84.84,0,1,1,.84.84A.85.85,0,0,1,666.38,9.55Z"/><path d="M667.68,9.55a.46.46,0,1,1-.46-.46.49.49,0,0,1,.46.46m.76,0a1.22,1.22,0,1,0-1.22,1.22,1.21,1.21,0,0,0,1.22-1.22Z"/></g><g class="cls-19"><path class="cls-20" d="M662.26,9.55a.84.84,0,1,1,.84.84A.85.85,0,0,1,662.26,9.55Z"/><path d="M663.48,9.55a.46.46,0,1,1-.46-.46.49.49,0,0,1,.46.46m.76,0A1.22,1.22,0,1,0,663,10.77a1.2,1.2,0,0,0,1.22-1.22Z"/></g><g class="cls-19"><path class="cls-20" d="M658.36,9.55a.84.84,0,1,1,.84.84A.85.85,0,0,1,658.36,9.55Z"/><path d="M659.66,9.55a.49.49,0,0,1-.46.46.46.46,0,0,1,0-.92.49.49,0,0,1,.46.46m.76,0a1.22,1.22,0,1,0-1.22,1.22,1.2,1.2,0,0,0,1.22-1.22Z"/></g><g class="cls-19"><path class="cls-20" d="M654.24,9.55a.84.84,0,1,1,.84.84A.85.85,0,0,1,654.24,9.55Z"/><path d="M655.46,9.55a.46.46,0,1,1-.45-.46.49.49,0,0,1,.45.46m.77,0A1.23,1.23,0,1,0,655,10.77a1.21,1.21,0,0,0,1.22-1.22Z"/></g><g class="cls-19"><path class="cls-20" d="M650,9.55a.84.84,0,1,1,.84.84A.85.85,0,0,1,650,9.55Z"/><path d="M651.34,9.55a.46.46,0,1,1-.46-.46.49.49,0,0,1,.46.46m.77,0a1.23,1.23,0,1,0-1.23,1.22,1.21,1.21,0,0,0,1.23-1.22Z"/></g><g class="cls-19"><path class="cls-20" d="M645.92,9.55a.84.84,0,1,1,.84.84A.85.85,0,0,1,645.92,9.55Z"/><path d="M647.14,9.55a.49.49,0,0,1-.45.46.43.43,0,0,1-.39-.46.49.49,0,0,1,.46-.46.43.43,0,0,1,.38.46m.77,0a1.22,1.22,0,1,0-1.22,1.22,1.21,1.21,0,0,0,1.22-1.22Z"/></g><g class="cls-19"><path class="cls-20" d="M664.62,13.21a.84.84,0,1,1,.84.84A.85.85,0,0,1,664.62,13.21Z"/><path d="M665.92,13.21a.46.46,0,1,1-.46-.46.49.49,0,0,1,.46.46m.76,0a1.22,1.22,0,1,0-1.22,1.22,1.21,1.21,0,0,0,1.22-1.22Z"/></g><g class="cls-19"><circle class="cls-20" cx="661.65" cy="13.21" r="0.84"/><path d="M662,13.21a.46.46,0,1,1-.46-.46.49.49,0,0,1,.46.46m.76,0a1.22,1.22,0,1,0-1.22,1.22,1.21,1.21,0,0,0,1.22-1.22Z"/></g><g class="cls-19"><path class="cls-20" d="M656.61,13.21a.84.84,0,1,1,.84.84A.85.85,0,0,1,656.61,13.21Z"/><path d="M657.91,13.21a.46.46,0,1,1-.46-.46.49.49,0,0,1,.46.46m.76,0a1.22,1.22,0,0,0-2.44,0,1.22,1.22,0,0,0,2.44,0Z"/></g><g class="cls-19"><path class="cls-20" d="M652.49,13.21a.84.84,0,1,1,.84.84A.85.85,0,0,1,652.49,13.21Z"/><path d="M653.71,13.21a.46.46,0,1,1-.46-.46.49.49,0,0,1,.46.46m.76,0a1.22,1.22,0,1,0-1.22,1.22,1.21,1.21,0,0,0,1.22-1.22Z"/></g><g class="cls-19"><circle class="cls-20" cx="649.13" cy="13.21" r="0.84"/><path d="M649.59,13.21a.46.46,0,1,1-.46-.46.49.49,0,0,1,.46.46m.76,0a1.22,1.22,0,1,0-1.22,1.22,1.21,1.21,0,0,0,1.22-1.22Z"/></g><g class="cls-19"><path class="cls-20" d="M666.38,16.88a.84.84,0,1,1,.84.84A.85.85,0,0,1,666.38,16.88Z"/><path d="M667.68,16.88a.46.46,0,0,1-.92,0,.47.47,0,0,1,.92,0m.76,0a1.22,1.22,0,1,0-1.22,1.22,1.21,1.21,0,0,0,1.22-1.22Z"/></g><g class="cls-19"><path class="cls-20" d="M662.26,16.88a.84.84,0,0,1,1.68,0,.84.84,0,0,1-1.68,0Z"/><path d="M663.48,16.88a.46.46,0,0,1-.92,0,.47.47,0,0,1,.92,0m.76,0A1.22,1.22,0,1,0,663,18.1a1.21,1.21,0,0,0,1.22-1.22Z"/></g><g class="cls-19"><path class="cls-20" d="M658.36,16.88a.84.84,0,1,1,.84.84A.85.85,0,0,1,658.36,16.88Z"/><path d="M659.66,16.88a.49.49,0,0,1-.46.45.48.48,0,0,1-.45-.45.42.42,0,0,1,.45-.39.43.43,0,0,1,.46.39m.76,0a1.22,1.22,0,1,0-1.22,1.22,1.21,1.21,0,0,0,1.22-1.22Z"/></g><g class="cls-19"><path class="cls-20" d="M654.24,16.88a.84.84,0,1,1,.84.84A.85.85,0,0,1,654.24,16.88Z"/><path d="M655.46,16.88a.46.46,0,0,1-.91,0c0-.23.3-.39.53-.39a.36.36,0,0,1,.38.39m.77,0A1.23,1.23,0,1,0,655,18.1a1.21,1.21,0,0,0,1.22-1.22Z"/></g><g class="cls-19"><path class="cls-20" d="M650,16.88a.84.84,0,1,1,.84.84A.85.85,0,0,1,650,16.88Z"/><path d="M651.34,16.88a.46.46,0,0,1-.91,0,.46.46,0,0,1,.91,0m.77,0a1.23,1.23,0,1,0-1.23,1.22,1.22,1.22,0,0,0,1.23-1.22Z"/></g><g class="cls-19"><path class="cls-20" d="M645.92,16.88a.84.84,0,1,1,.84.84A.85.85,0,0,1,645.92,16.88Z"/><path d="M647.14,16.88a.48.48,0,0,1-.45.45.42.42,0,1,1,.07-.84.36.36,0,0,1,.38.39m.77,0a1.22,1.22,0,1,0-1.22,1.22,1.21,1.21,0,0,0,1.22-1.22Z"/></g><g class="cls-19"><path class="cls-20" d="M664.62,20.54a.84.84,0,1,1,.84.84A.85.85,0,0,1,664.62,20.54Z"/><path d="M665.92,20.54a.46.46,0,1,1-.46-.46c.23.08.46.23.46.46m.76,0a1.22,1.22,0,1,0-1.22,1.22,1.2,1.2,0,0,0,1.22-1.22Z"/></g><g class="cls-19"><circle class="cls-20" cx="661.65" cy="20.54" r="0.84"/><path d="M662,20.54a.46.46,0,1,1-.46-.46.49.49,0,0,1,.46.46m.76,0a1.22,1.22,0,1,0-1.22,1.22,1.2,1.2,0,0,0,1.22-1.22Z"/></g><g class="cls-19"><path class="cls-20" d="M656.61,20.54a.84.84,0,1,1,.84.84A.85.85,0,0,1,656.61,20.54Z"/><path d="M657.91,20.54a.49.49,0,0,1-.46.46.45.45,0,0,1-.46-.46.44.44,0,0,1,.46-.46.49.49,0,0,1,.46.46m.76,0a1.22,1.22,0,1,0-1.22,1.22,1.21,1.21,0,0,0,1.22-1.22Z"/></g><g class="cls-19"><path class="cls-20" d="M652.49,20.54a.84.84,0,1,1,.84.84A.85.85,0,0,1,652.49,20.54Z"/><path d="M653.71,20.54a.46.46,0,1,1-.46-.46.49.49,0,0,1,.46.46m.76,0a1.22,1.22,0,1,0-1.22,1.22,1.2,1.2,0,0,0,1.22-1.22Z"/></g><g class="cls-19"><circle class="cls-20" cx="649.13" cy="20.54" r="0.84"/><path d="M649.59,20.54a.46.46,0,1,1-.46-.46.49.49,0,0,1,.46.46m.76,0a1.22,1.22,0,1,0-1.22,1.22,1.2,1.2,0,0,0,1.22-1.22Z"/></g><g class="cls-19"><path class="cls-20" d="M666.38,24.28a.84.84,0,1,1,.84.84A.85.85,0,0,1,666.38,24.28Z"/><path d="M667.68,24.28a.46.46,0,1,1-.46-.46.49.49,0,0,1,.46.46m.76,0a1.22,1.22,0,1,0-1.22,1.22,1.32,1.32,0,0,0,1.22-1.22Z"/></g><g class="cls-19"><path class="cls-20" d="M662.26,24.28a.84.84,0,1,1,.84.84A.85.85,0,0,1,662.26,24.28Z"/><path d="M663.48,24.28a.46.46,0,1,1-.46-.46.49.49,0,0,1,.46.46m.76,0A1.22,1.22,0,1,0,663,25.5a1.25,1.25,0,0,0,1.22-1.22Z"/></g><g class="cls-19"><path class="cls-20" d="M658.36,24.28a.84.84,0,1,1,.84.84A.85.85,0,0,1,658.36,24.28Z"/><path d="M659.66,24.28a.49.49,0,0,1-.46.46.46.46,0,0,1,0-.92.49.49,0,0,1,.46.46m.76,0a1.22,1.22,0,1,0-1.22,1.22,1.25,1.25,0,0,0,1.22-1.22Z"/></g><g class="cls-19"><path class="cls-20" d="M654.24,24.28a.84.84,0,1,1,.84.84A.85.85,0,0,1,654.24,24.28Z"/><path d="M655.46,24.28a.46.46,0,1,1-.45-.46.49.49,0,0,1,.45.46m.77,0A1.23,1.23,0,1,0,655,25.5a1.26,1.26,0,0,0,1.22-1.22Z"/></g><g class="cls-19"><path class="cls-20" d="M650,24.28a.84.84,0,1,1,.84.84A.85.85,0,0,1,650,24.28Z"/><path d="M651.34,24.28a.46.46,0,1,1-.46-.46.49.49,0,0,1,.46.46m.77,0a1.23,1.23,0,1,0-1.23,1.22,1.26,1.26,0,0,0,1.23-1.22Z"/></g><g class="cls-19"><path class="cls-20" d="M645.92,24.28a.84.84,0,1,1,.84.84A.85.85,0,0,1,645.92,24.28Z"/><path d="M647.14,24.28a.49.49,0,0,1-.45.46.43.43,0,0,1-.39-.46.49.49,0,0,1,.46-.46.43.43,0,0,1,.38.46m.77,0a1.22,1.22,0,1,0-1.22,1.22,1.32,1.32,0,0,0,1.22-1.22Z"/></g><g class="cls-19"><path class="cls-20" d="M664.62,27.94a.84.84,0,1,1,.84.84A.85.85,0,0,1,664.62,27.94Z"/><path d="M665.92,27.94a.46.46,0,1,1-.46-.46.49.49,0,0,1,.46.46m.76,0a1.22,1.22,0,1,0-1.22,1.22,1.21,1.21,0,0,0,1.22-1.22Z"/></g><g class="cls-19"><path class="cls-20" d="M660.81,27.94a.84.84,0,1,1,.84.84A.85.85,0,0,1,660.81,27.94Z"/><path d="M662,27.94a.46.46,0,1,1-.46-.46.49.49,0,0,1,.46.46m.76,0a1.22,1.22,0,1,0-1.22,1.22,1.21,1.21,0,0,0,1.22-1.22Z"/></g><g class="cls-19"><path class="cls-20" d="M656.61,27.94a.84.84,0,1,1,.84.84A.85.85,0,0,1,656.61,27.94Z"/><path d="M657.91,27.94a.46.46,0,1,1-.46-.46.49.49,0,0,1,.46.46m.76,0a1.22,1.22,0,0,0-2.44,0,1.22,1.22,0,0,0,2.44,0Z"/></g><g class="cls-19"><path class="cls-20" d="M652.49,27.94a.84.84,0,1,1,.84.84A.85.85,0,0,1,652.49,27.94Z"/><path d="M653.71,27.94a.46.46,0,1,1-.46-.46.49.49,0,0,1,.46.46m.76,0a1.22,1.22,0,1,0-1.22,1.22,1.21,1.21,0,0,0,1.22-1.22Z"/></g><g class="cls-19"><path class="cls-20" d="M648.29,27.94a.84.84,0,1,1,.84.84A.85.85,0,0,1,648.29,27.94Z"/><path d="M649.59,27.94a.46.46,0,1,1-.46-.46.49.49,0,0,1,.46.46m.76,0a1.22,1.22,0,1,0-1.22,1.22,1.21,1.21,0,0,0,1.22-1.22Z"/></g><g class="cls-19"><path class="cls-20" d="M666.38,31.61a.84.84,0,1,1,.84.84A.85.85,0,0,1,666.38,31.61Z"/><path d="M667.68,31.61a.46.46,0,0,1-.92,0,.46.46,0,1,1,.92,0m.76,0a1.22,1.22,0,1,0-1.22,1.22,1.21,1.21,0,0,0,1.22-1.22Z"/></g><g class="cls-19"><circle class="cls-20" cx="663.02" cy="31.61" r="0.84"/><path d="M663.48,31.61a.46.46,0,0,1-.92,0,.46.46,0,0,1,.92,0m.76,0A1.22,1.22,0,1,0,663,32.83a1.2,1.2,0,0,0,1.22-1.22Z"/></g><g class="cls-19"><path class="cls-20" d="M658.36,31.61a.84.84,0,1,1,.84.84A.85.85,0,0,1,658.36,31.61Z"/><path d="M659.66,31.61a.49.49,0,0,1-.46.45.48.48,0,0,1-.45-.45.49.49,0,0,1,.45-.46.49.49,0,0,1,.46.46m.76,0a1.22,1.22,0,0,0-2.44,0,1.22,1.22,0,0,0,2.44,0Z"/></g><g class="cls-19"><path class="cls-20" d="M654.24,31.61a.84.84,0,1,1,.84.84A.85.85,0,0,1,654.24,31.61Z"/><path d="M655.46,31.61a.46.46,0,0,1-.91,0,.46.46,0,1,1,.91,0m.77,0A1.23,1.23,0,1,0,655,32.83a1.21,1.21,0,0,0,1.22-1.22Z"/></g><g class="cls-19"><circle class="cls-20" cx="650.88" cy="31.61" r="0.84"/><path d="M651.34,31.61a.46.46,0,0,1-.91,0,.46.46,0,1,1,.91,0m.77,0a1.23,1.23,0,1,0-1.23,1.22,1.21,1.21,0,0,0,1.23-1.22Z"/></g><g class="cls-19"><path class="cls-20" d="M645.92,31.61a.84.84,0,1,1,.84.84A.85.85,0,0,1,645.92,31.61Z"/><path d="M647.14,31.61a.48.48,0,0,1-.45.45.42.42,0,0,1-.39-.45.49.49,0,0,1,.46-.46.43.43,0,0,1,.38.46m.77,0a1.22,1.22,0,1,0-1.22,1.22,1.21,1.21,0,0,0,1.22-1.22Z"/></g><g class="cls-19"><path class="cls-20" d="M664.62,34.89a.84.84,0,1,1,.84.84A.85.85,0,0,1,664.62,34.89Z"/><path d="M665.92,34.89a.46.46,0,1,1-.46-.46.49.49,0,0,1,.46.46m.76,0a1.22,1.22,0,1,0-1.22,1.22,1.25,1.25,0,0,0,1.22-1.22Z"/></g><g class="cls-19"><path class="cls-20" d="M660.81,34.89a.84.84,0,1,1,.84.84A.85.85,0,0,1,660.81,34.89Z"/><path d="M662,34.89a.46.46,0,1,1-.46-.46.49.49,0,0,1,.46.46m.76,0a1.22,1.22,0,1,0-1.22,1.22,1.25,1.25,0,0,0,1.22-1.22Z"/></g><g class="cls-19"><path class="cls-20" d="M656.61,34.89a.84.84,0,1,1,.84.84A.85.85,0,0,1,656.61,34.89Z"/><path d="M657.91,34.89a.46.46,0,1,1-.46-.46.49.49,0,0,1,.46.46m.76,0a1.22,1.22,0,1,0-1.22,1.22,1.32,1.32,0,0,0,1.22-1.22Z"/></g><g class="cls-19"><path class="cls-20" d="M652.49,34.89a.84.84,0,1,1,.84.84A.85.85,0,0,1,652.49,34.89Z"/><path d="M653.71,34.89a.46.46,0,1,1-.46-.46.49.49,0,0,1,.46.46m.76,0a1.22,1.22,0,1,0-1.22,1.22,1.25,1.25,0,0,0,1.22-1.22Z"/></g><g class="cls-19"><path class="cls-20" d="M648.29,34.89a.84.84,0,1,1,.84.84A.85.85,0,0,1,648.29,34.89Z"/><path d="M649.59,34.89a.46.46,0,1,1-.46-.46.49.49,0,0,1,.46.46m.76,0a1.22,1.22,0,1,0-1.22,1.22,1.25,1.25,0,0,0,1.22-1.22Z"/></g><g class="cls-19"><path class="cls-20" d="M666.38,38.55a.84.84,0,1,1,.84.84A.85.85,0,0,1,666.38,38.55Z"/><path d="M667.68,38.55a.46.46,0,1,1-.46-.46.49.49,0,0,1,.46.46m.76,0a1.22,1.22,0,1,0-1.22,1.22,1.21,1.21,0,0,0,1.22-1.22Z"/></g><g class="cls-19"><path class="cls-20" d="M662.26,38.55a.84.84,0,1,1,.84.84A.85.85,0,0,1,662.26,38.55Z"/><path d="M663.48,38.55a.46.46,0,1,1-.46-.46.49.49,0,0,1,.46.46m.76,0A1.22,1.22,0,1,0,663,39.77a1.2,1.2,0,0,0,1.22-1.22Z"/></g><g class="cls-19"><path class="cls-20" d="M658.36,38.55a.84.84,0,1,1,.84.84A.85.85,0,0,1,658.36,38.55Z"/><path d="M659.66,38.55a.49.49,0,0,1-.46.46.46.46,0,0,1,0-.92.49.49,0,0,1,.46.46m.76,0a1.22,1.22,0,1,0-1.22,1.22,1.2,1.2,0,0,0,1.22-1.22Z"/></g><g class="cls-19"><path class="cls-20" d="M654.24,38.55a.84.84,0,1,1,.84.84A.85.85,0,0,1,654.24,38.55Z"/><path d="M655.46,38.55a.46.46,0,1,1-.45-.46.49.49,0,0,1,.45.46m.77,0A1.23,1.23,0,1,0,655,39.77a1.21,1.21,0,0,0,1.22-1.22Z"/></g><g class="cls-19"><path class="cls-20" d="M650,38.55a.84.84,0,1,1,.84.84A.85.85,0,0,1,650,38.55Z"/><path d="M651.34,38.55a.46.46,0,1,1-.46-.46.49.49,0,0,1,.46.46m.77,0a1.23,1.23,0,1,0-1.23,1.22,1.21,1.21,0,0,0,1.23-1.22Z"/></g><g class="cls-19"><path class="cls-20" d="M645.92,38.55a.84.84,0,1,1,.84.84A.85.85,0,0,1,645.92,38.55Z"/><path d="M647.14,38.55a.49.49,0,0,1-.45.46.43.43,0,0,1-.39-.46.49.49,0,0,1,.46-.46.43.43,0,0,1,.38.46m.77,0a1.22,1.22,0,1,0-1.22,1.22,1.21,1.21,0,0,0,1.22-1.22Z"/></g><g class="cls-19"><path class="cls-20" d="M664.62,42.22a.84.84,0,1,1,.84.83A.85.85,0,0,1,664.62,42.22Z"/><path d="M665.92,42.22a.46.46,0,1,1-.46-.46.49.49,0,0,1,.46.46m.76,0a1.22,1.22,0,1,0-1.22,1.22,1.21,1.21,0,0,0,1.22-1.22Z"/></g><g class="cls-19"><circle class="cls-20" cx="661.65" cy="42.22" r="0.84"/><path d="M662,42.22a.46.46,0,1,1-.46-.46.49.49,0,0,1,.46.46m.76,0a1.22,1.22,0,1,0-1.22,1.22,1.21,1.21,0,0,0,1.22-1.22Z"/></g><g class="cls-19"><path class="cls-20" d="M656.61,42.22a.84.84,0,1,1,.84.83A.85.85,0,0,1,656.61,42.22Z"/><path d="M657.91,42.22a.46.46,0,1,1-.46-.46.49.49,0,0,1,.46.46m.76,0a1.22,1.22,0,1,0-1.22,1.22,1.21,1.21,0,0,0,1.22-1.22Z"/></g><g class="cls-19"><path class="cls-20" d="M652.49,42.22a.84.84,0,1,1,.84.83A.85.85,0,0,1,652.49,42.22Z"/><path d="M653.71,42.22a.46.46,0,1,1-.46-.46.49.49,0,0,1,.46.46m.76,0a1.22,1.22,0,1,0-1.22,1.22,1.21,1.21,0,0,0,1.22-1.22Z"/></g><g class="cls-19"><circle class="cls-20" cx="649.13" cy="42.22" r="0.84"/><path d="M649.59,42.22a.46.46,0,1,1-.46-.46.49.49,0,0,1,.46.46m.76,0a1.22,1.22,0,1,0-1.22,1.22,1.21,1.21,0,0,0,1.22-1.22Z"/></g><g class="cls-19"><path class="cls-20" d="M666.38,45.88a.84.84,0,1,1,.84.84A.85.85,0,0,1,666.38,45.88Z"/><path d="M667.68,45.88a.46.46,0,1,1-.92,0,.47.47,0,0,1,.92,0m.76,0a1.22,1.22,0,1,0-1.22,1.22,1.21,1.21,0,0,0,1.22-1.22Z"/></g><g class="cls-19"><path class="cls-20" d="M662.26,45.88a.84.84,0,1,1,.84.84A.85.85,0,0,1,662.26,45.88Z"/><path d="M663.48,45.88a.46.46,0,0,1-.92,0,.47.47,0,0,1,.92,0m.76,0A1.22,1.22,0,1,0,663,47.1a1.2,1.2,0,0,0,1.22-1.22Z"/></g><g class="cls-19"><path class="cls-20" d="M658.36,45.88a.84.84,0,1,1,.84.84A.85.85,0,0,1,658.36,45.88Z"/><path d="M659.66,45.88a.49.49,0,0,1-.46.46.49.49,0,0,1-.45-.46.42.42,0,0,1,.45-.38.43.43,0,0,1,.46.38m.76,0a1.22,1.22,0,1,0-1.22,1.22,1.2,1.2,0,0,0,1.22-1.22Z"/></g><g class="cls-19"><path class="cls-20" d="M654.24,45.88a.84.84,0,1,1,.84.84A.85.85,0,0,1,654.24,45.88Z"/><path d="M655.46,45.88a.46.46,0,1,1-.91,0c0-.23.3-.38.53-.38a.36.36,0,0,1,.38.38m.77,0A1.23,1.23,0,1,0,655,47.1a1.21,1.21,0,0,0,1.22-1.22Z"/></g><g class="cls-19"><path class="cls-20" d="M650,45.88a.84.84,0,1,1,.84.84A.85.85,0,0,1,650,45.88Z"/><path d="M651.34,45.88a.46.46,0,1,1-.91,0,.46.46,0,0,1,.91,0m.77,0a1.23,1.23,0,1,0-1.23,1.22,1.21,1.21,0,0,0,1.23-1.22Z"/></g><g class="cls-19"><path class="cls-20" d="M645.92,45.88a.84.84,0,1,1,.84.84A.85.85,0,0,1,645.92,45.88Z"/><path d="M647.14,45.88a.49.49,0,0,1-.45.46.43.43,0,0,1-.39-.46.43.43,0,0,1,.46-.38.36.36,0,0,1,.38.38m.77,0a1.22,1.22,0,1,0-1.22,1.22,1.21,1.21,0,0,0,1.22-1.22Z"/></g><g class="cls-19"><path class="cls-20" d="M664.62,49.54a.84.84,0,1,1,.84.84A.85.85,0,0,1,664.62,49.54Z"/><path d="M665.92,49.54a.46.46,0,1,1-.46-.46c.23.08.46.23.46.46m.76,0a1.22,1.22,0,1,0-1.22,1.22,1.21,1.21,0,0,0,1.22-1.22Z"/></g><g class="cls-19"><circle class="cls-20" cx="661.65" cy="49.54" r="0.84"/><path d="M662,49.54a.46.46,0,1,1-.46-.46.49.49,0,0,1,.46.46m.76,0a1.22,1.22,0,1,0-1.22,1.22,1.21,1.21,0,0,0,1.22-1.22Z"/></g><g class="cls-19"><path class="cls-20" d="M656.61,49.54a.84.84,0,1,1,.84.84A.85.85,0,0,1,656.61,49.54Z"/><path d="M657.91,49.54a.49.49,0,0,1-.46.46.44.44,0,0,1-.46-.46.45.45,0,0,1,.46-.46.49.49,0,0,1,.46.46m.76,0a1.22,1.22,0,0,0-2.44,0,1.22,1.22,0,0,0,2.44,0Z"/></g><g class="cls-19"><path class="cls-20" d="M652.49,49.54a.84.84,0,1,1,.84.84A.85.85,0,0,1,652.49,49.54Z"/><path d="M653.71,49.54a.46.46,0,1,1-.46-.46.49.49,0,0,1,.46.46m.76,0a1.22,1.22,0,1,0-1.22,1.22,1.21,1.21,0,0,0,1.22-1.22Z"/></g><g class="cls-19"><circle class="cls-20" cx="649.13" cy="49.54" r="0.84"/><path d="M649.59,49.54a.46.46,0,1,1-.46-.46.49.49,0,0,1,.46.46m.76,0a1.22,1.22,0,1,0-1.22,1.22,1.21,1.21,0,0,0,1.22-1.22Z"/></g><g class="cls-19"><path class="cls-20" d="M666.38,53.28a.84.84,0,1,1,.84.84A.85.85,0,0,1,666.38,53.28Z"/><path d="M667.68,53.28a.46.46,0,1,1-.46-.46.49.49,0,0,1,.46.46m.76,0a1.22,1.22,0,1,0-2.44,0,1.2,1.2,0,0,0,1.22,1.22,1.31,1.31,0,0,0,1.22-1.22Z"/></g><g class="cls-19"><path class="cls-20" d="M662.26,53.28a.84.84,0,1,1,.84.84A.85.85,0,0,1,662.26,53.28Z"/><path d="M663.48,53.28a.46.46,0,1,1-.46-.46.49.49,0,0,1,.46.46m.76,0A1.22,1.22,0,1,0,663,54.5a1.25,1.25,0,0,0,1.22-1.22Z"/></g><g class="cls-19"><path class="cls-20" d="M658.36,53.28a.84.84,0,1,1,.84.84A.85.85,0,0,1,658.36,53.28Z"/><path d="M659.66,53.28a.49.49,0,0,1-.46.46.46.46,0,0,1,0-.92.49.49,0,0,1,.46.46m.76,0a1.22,1.22,0,1,0-1.22,1.22,1.25,1.25,0,0,0,1.22-1.22Z"/></g><g class="cls-19"><path class="cls-20" d="M654.24,53.28a.84.84,0,1,1,.84.84A.85.85,0,0,1,654.24,53.28Z"/><path d="M655.46,53.28a.46.46,0,1,1-.45-.46.49.49,0,0,1,.45.46m.77,0A1.23,1.23,0,1,0,655,54.5a1.26,1.26,0,0,0,1.22-1.22Z"/></g><g class="cls-19"><path class="cls-20" d="M650,53.28a.84.84,0,1,1,.84.84A.85.85,0,0,1,650,53.28Z"/><path d="M651.34,53.28a.46.46,0,1,1-.46-.46.49.49,0,0,1,.46.46m.77,0a1.23,1.23,0,1,0-1.23,1.22,1.26,1.26,0,0,0,1.23-1.22Z"/></g><g class="cls-19"><path class="cls-20" d="M645.92,53.28a.84.84,0,1,1,.84.84A.85.85,0,0,1,645.92,53.28Z"/><path d="M647.14,53.28a.49.49,0,0,1-.45.46.43.43,0,0,1-.39-.46.49.49,0,0,1,.46-.46.43.43,0,0,1,.38.46m.77,0a1.22,1.22,0,0,0-2.44,0,1.2,1.2,0,0,0,1.22,1.22,1.31,1.31,0,0,0,1.22-1.22Z"/></g><g class="cls-19"><path class="cls-20" d="M664.62,57a.84.84,0,1,1,.84.84A.85.85,0,0,1,664.62,57Z"/><path d="M665.92,57a.46.46,0,1,1-.46-.46.49.49,0,0,1,.46.46m.76,0a1.22,1.22,0,1,0-1.22,1.22A1.21,1.21,0,0,0,666.68,57Z"/></g><g class="cls-19"><path class="cls-20" d="M660.81,57a.84.84,0,1,1,1.68,0,.84.84,0,0,1-1.68,0Z"/><path d="M662,57a.46.46,0,1,1-.46-.46A.49.49,0,0,1,662,57m.76,0a1.22,1.22,0,1,0-1.22,1.22A1.21,1.21,0,0,0,662.79,57Z"/></g><g class="cls-19"><path class="cls-20" d="M656.61,57a.84.84,0,1,1,.84.84A.85.85,0,0,1,656.61,57Z"/><path d="M657.91,57a.46.46,0,1,1-.46-.46.49.49,0,0,1,.46.46m.76,0a1.22,1.22,0,1,0-1.22,1.22A1.21,1.21,0,0,0,658.67,57Z"/></g><g class="cls-19"><path class="cls-20" d="M652.49,57a.84.84,0,1,1,1.68,0,.84.84,0,1,1-1.68,0Z"/><path d="M653.71,57a.46.46,0,1,1-.46-.46.49.49,0,0,1,.46.46m.76,0a1.22,1.22,0,1,0-1.22,1.22A1.21,1.21,0,0,0,654.47,57Z"/></g><g class="cls-19"><path class="cls-20" d="M648.29,57a.84.84,0,1,1,.84.84A.85.85,0,0,1,648.29,57Z"/><path d="M649.59,57a.46.46,0,1,1-.46-.46.49.49,0,0,1,.46.46m.76,0a1.22,1.22,0,1,0-1.22,1.22A1.21,1.21,0,0,0,650.35,57Z"/></g><g class="cls-19"><path class="cls-20" d="M641.88,9.55a.84.84,0,1,1,.84.84A.85.85,0,0,1,641.88,9.55Z"/><path d="M643.18,9.55a.46.46,0,1,1-.46-.46.49.49,0,0,1,.46.46m.76,0a1.22,1.22,0,1,0-1.22,1.22,1.21,1.21,0,0,0,1.22-1.22Z"/><path class="cls-20" d="M637.76,9.55a.84.84,0,1,1,.84.84A.85.85,0,0,1,637.76,9.55Z"/><path d="M639,9.55a.46.46,0,1,1-.46-.46.49.49,0,0,1,.46.46m.76,0a1.22,1.22,0,1,0-1.22,1.22,1.2,1.2,0,0,0,1.22-1.22Z"/><path class="cls-20" d="M633.56,9.55a.84.84,0,1,1,.84.84A.85.85,0,0,1,633.56,9.55Z"/><path d="M634.86,9.55a.46.46,0,1,1-.46-.46.49.49,0,0,1,.46.46m.76,0a1.22,1.22,0,1,0-1.22,1.22,1.2,1.2,0,0,0,1.22-1.22Z"/><path class="cls-20" d="M629.44,9.55a.84.84,0,1,1,.84.84A.85.85,0,0,1,629.44,9.55Z"/><path d="M630.66,9.55a.46.46,0,1,1-.46-.46.49.49,0,0,1,.46.46m.76,0a1.22,1.22,0,1,0-1.22,1.22,1.2,1.2,0,0,0,1.22-1.22Z"/><path class="cls-20" d="M625.54,9.55a.84.84,0,1,1,.84.84A.85.85,0,0,1,625.54,9.55Z"/><path d="M626.84,9.55a.46.46,0,1,1-.46-.46.49.49,0,0,1,.46.46m.77,0a1.23,1.23,0,1,0-1.23,1.22,1.21,1.21,0,0,0,1.23-1.22Z"/><path class="cls-20" d="M621.42,9.55a.84.84,0,1,1,.84.84A.85.85,0,0,1,621.42,9.55Z"/><path d="M622.64,9.55a.49.49,0,0,1-.45.46.46.46,0,1,1,0-.92.44.44,0,0,1,.45.46m.77,0a1.22,1.22,0,1,0-1.22,1.22,1.21,1.21,0,0,0,1.22-1.22Z"/><path class="cls-20" d="M617.23,9.55a.84.84,0,1,1,.83.84A.84.84,0,0,1,617.23,9.55Z"/><path d="M618.52,9.55a.46.46,0,1,1-.46-.46.49.49,0,0,1,.46.46m.77,0a1.23,1.23,0,1,0-1.23,1.22,1.21,1.21,0,0,0,1.23-1.22Z"/><path class="cls-20" d="M613.1,9.55a.84.84,0,1,1,.84.84A.85.85,0,0,1,613.1,9.55Z"/><path d="M614.33,9.55a.46.46,0,1,1-.46-.46.49.49,0,0,1,.46.46m.76,0a1.22,1.22,0,1,0-1.22,1.22,1.21,1.21,0,0,0,1.22-1.22Z"/></g><g class="cls-19"><path class="cls-20" d="M644.32,13.21a.84.84,0,1,1,.84.84A.85.85,0,0,1,644.32,13.21Z"/><path d="M645.54,13.21a.49.49,0,0,1-.46.46.46.46,0,0,1,0-.92.49.49,0,0,1,.46.46m.76,0a1.22,1.22,0,1,0-1.22,1.22,1.21,1.21,0,0,0,1.22-1.22Z"/><circle class="cls-20" cx="640.96" cy="13.21" r="0.84"/><path d="M641.42,13.21a.46.46,0,1,1-.46-.46.49.49,0,0,1,.46.46m.76,0A1.22,1.22,0,1,0,641,14.43a1.21,1.21,0,0,0,1.22-1.22Z"/><path class="cls-20" d="M636,13.21a.84.84,0,1,1,.84.84A.85.85,0,0,1,636,13.21Z"/><path d="M637.22,13.21a.49.49,0,0,1-.46.46.43.43,0,0,1-.38-.46.49.49,0,0,1,.46-.46.43.43,0,0,1,.38.46m.77,0a1.23,1.23,0,1,0-1.23,1.22A1.21,1.21,0,0,0,638,13.21Z"/><path class="cls-20" d="M631.8,13.21a.84.84,0,1,1,.84.84A.85.85,0,0,1,631.8,13.21Z"/><path d="M633.1,13.21a.46.46,0,1,1-.46-.46.49.49,0,0,1,.46.46m.76,0a1.22,1.22,0,1,0-1.22,1.22,1.21,1.21,0,0,0,1.22-1.22Z"/><circle class="cls-20" cx="628.83" cy="13.21" r="0.84"/><path d="M629.21,13.21a.46.46,0,1,1-.46-.46.49.49,0,0,1,.46.46m.76,0a1.22,1.22,0,1,0-1.22,1.22A1.21,1.21,0,0,0,630,13.21Z"/><path class="cls-20" d="M623.79,13.21a.84.84,0,1,1,.84.84A.85.85,0,0,1,623.79,13.21Z"/><path d="M625.09,13.21a.46.46,0,1,1-.46-.46.49.49,0,0,1,.46.46m.76,0a1.22,1.22,0,1,0-1.22,1.22,1.21,1.21,0,0,0,1.22-1.22Z"/><path class="cls-20" d="M619.67,13.21a.84.84,0,1,1,.84.84A.85.85,0,0,1,619.67,13.21Z"/><path d="M620.89,13.21a.46.46,0,1,1-.46-.46.44.44,0,0,1,.46.46m.76,0a1.22,1.22,0,1,0-1.22,1.22,1.21,1.21,0,0,0,1.22-1.22Z"/><circle class="cls-20" cx="616.31" cy="13.21" r="0.84"/><path d="M616.77,13.21a.46.46,0,1,1-.46-.46.49.49,0,0,1,.46.46m.76,0a1.22,1.22,0,1,0-1.22,1.22,1.21,1.21,0,0,0,1.22-1.22Z"/></g><g class="cls-19"><path class="cls-20" d="M641.88,16.88a.84.84,0,1,1,.84.84A.85.85,0,0,1,641.88,16.88Z"/><path d="M643.18,16.88a.46.46,0,0,1-.92,0,.47.47,0,0,1,.92,0m.76,0a1.22,1.22,0,1,0-1.22,1.22,1.21,1.21,0,0,0,1.22-1.22Z"/><path class="cls-20" d="M637.76,16.88a.84.84,0,1,1,1.68,0,.84.84,0,0,1-1.68,0Z"/><path d="M639,16.88a.46.46,0,0,1-.92,0,.47.47,0,0,1,.92,0m.76,0a1.22,1.22,0,1,0-1.22,1.22,1.21,1.21,0,0,0,1.22-1.22Z"/><path class="cls-20" d="M633.56,16.88a.84.84,0,1,1,.84.84A.85.85,0,0,1,633.56,16.88Z"/><path d="M634.86,16.88a.46.46,0,0,1-.92,0,.47.47,0,0,1,.92,0m.76,0a1.22,1.22,0,1,0-1.22,1.22,1.21,1.21,0,0,0,1.22-1.22Z"/><path class="cls-20" d="M629.44,16.88a.84.84,0,0,1,1.68,0,.84.84,0,0,1-1.68,0Z"/><path d="M630.66,16.88a.46.46,0,1,1-.46-.46.49.49,0,0,1,.46.46m.76,0a1.22,1.22,0,1,0-1.22,1.22,1.21,1.21,0,0,0,1.22-1.22Z"/><path class="cls-20" d="M625.54,16.88a.84.84,0,1,1,.84.84A.85.85,0,0,1,625.54,16.88Z"/><path d="M626.84,16.88a.46.46,0,1,1-.46-.46c.23.07.46.23.46.46m.77,0a1.23,1.23,0,1,0-1.23,1.22,1.22,1.22,0,0,0,1.23-1.22Z"/><path class="cls-20" d="M621.42,16.88a.84.84,0,1,1,.84.84A.85.85,0,0,1,621.42,16.88Z"/><path d="M622.64,16.88a.48.48,0,0,1-.45.45.46.46,0,1,1,0-.91c.3.07.45.23.45.46m.77,0a1.22,1.22,0,1,0-1.22,1.22,1.21,1.21,0,0,0,1.22-1.22Z"/><path class="cls-20" d="M617.23,16.88a.84.84,0,1,1,1.67,0,.84.84,0,1,1-1.67,0Z"/><path d="M618.52,16.88a.46.46,0,0,1-.91,0,.46.46,0,0,1,.91,0m.77,0a1.23,1.23,0,1,0-1.23,1.22,1.22,1.22,0,0,0,1.23-1.22Z"/><path class="cls-20" d="M613.1,16.88a.84.84,0,1,1,.84.84A.85.85,0,0,1,613.1,16.88Z"/><path d="M614.33,16.88a.46.46,0,1,1-.46-.46.49.49,0,0,1,.46.46m.76,0a1.22,1.22,0,1,0-1.22,1.22,1.21,1.21,0,0,0,1.22-1.22Z"/></g><g class="cls-19"><path class="cls-20" d="M644.32,20.54a.84.84,0,1,1,.84.84A.85.85,0,0,1,644.32,20.54Z"/><path d="M645.54,20.54a.49.49,0,0,1-.46.46.46.46,0,0,1,0-.92.49.49,0,0,1,.46.46m.76,0a1.22,1.22,0,1,0-1.22,1.22,1.2,1.2,0,0,0,1.22-1.22Z"/><circle class="cls-20" cx="640.96" cy="20.54" r="0.84"/><path d="M641.42,20.54a.46.46,0,1,1-.46-.46c.23.08.46.23.46.46m.76,0A1.22,1.22,0,1,0,641,21.76a1.2,1.2,0,0,0,1.22-1.22Z"/><path class="cls-20" d="M636,20.54a.84.84,0,1,1,.84.84A.85.85,0,0,1,636,20.54Z"/><path d="M637.22,20.54a.49.49,0,0,1-.46.46c-.22,0-.38-.16-.38-.46a.44.44,0,0,1,.46-.46.43.43,0,0,1,.38.46m.77,0a1.23,1.23,0,1,0-1.23,1.22A1.21,1.21,0,0,0,638,20.54Z"/><path class="cls-20" d="M631.8,20.54a.84.84,0,1,1,.84.84A.85.85,0,0,1,631.8,20.54Z"/><path d="M633.1,20.54a.46.46,0,1,1-.46-.46c.23.08.46.23.46.46m.76,0a1.22,1.22,0,1,0-1.22,1.22,1.2,1.2,0,0,0,1.22-1.22Z"/><circle class="cls-20" cx="628.83" cy="20.54" r="0.84"/><path d="M629.21,20.54a.46.46,0,1,1-.46-.46.49.49,0,0,1,.46.46m.76,0a1.22,1.22,0,1,0-1.22,1.22A1.2,1.2,0,0,0,630,20.54Z"/><path class="cls-20" d="M623.79,20.54a.84.84,0,1,1,.84.84A.85.85,0,0,1,623.79,20.54Z"/><path d="M625.09,20.54a.46.46,0,1,1-.46-.46.49.49,0,0,1,.46.46m.76,0a1.22,1.22,0,1,0-1.22,1.22,1.2,1.2,0,0,0,1.22-1.22Z"/><path class="cls-20" d="M619.67,20.54a.84.84,0,1,1,.84.84A.85.85,0,0,1,619.67,20.54Z"/><path d="M620.89,20.54a.46.46,0,1,1-.46-.46c.31.08.46.23.46.46m.76,0a1.22,1.22,0,1,0-1.22,1.22,1.2,1.2,0,0,0,1.22-1.22Z"/><circle class="cls-20" cx="616.31" cy="20.54" r="0.84"/><path d="M616.77,20.54a.46.46,0,1,1-.46-.46c.23.08.46.23.46.46m.76,0a1.22,1.22,0,1,0-1.22,1.22,1.2,1.2,0,0,0,1.22-1.22Z"/></g><g class="cls-19"><path class="cls-20" d="M641.88,24.28a.84.84,0,1,1,.84.84A.85.85,0,0,1,641.88,24.28Z"/><path d="M643.18,24.28a.46.46,0,1,1-.46-.46.49.49,0,0,1,.46.46m.76,0a1.22,1.22,0,1,0-1.22,1.22,1.26,1.26,0,0,0,1.22-1.22Z"/><path class="cls-20" d="M637.76,24.28a.84.84,0,1,1,.84.84A.85.85,0,0,1,637.76,24.28Z"/><path d="M639,24.28a.46.46,0,1,1-.46-.46.49.49,0,0,1,.46.46m.76,0a1.22,1.22,0,1,0-1.22,1.22,1.25,1.25,0,0,0,1.22-1.22Z"/><path class="cls-20" d="M633.56,24.28a.84.84,0,1,1,.84.84A.85.85,0,0,1,633.56,24.28Z"/><path d="M634.86,24.28a.46.46,0,1,1-.46-.46.49.49,0,0,1,.46.46m.76,0a1.22,1.22,0,1,0-1.22,1.22,1.31,1.31,0,0,0,1.22-1.22Z"/><path class="cls-20" d="M629.44,24.28a.84.84,0,1,1,.84.84A.85.85,0,0,1,629.44,24.28Z"/><path d="M630.66,24.28a.46.46,0,1,1-.46-.46.49.49,0,0,1,.46.46m.76,0a1.22,1.22,0,1,0-1.22,1.22,1.25,1.25,0,0,0,1.22-1.22Z"/><path class="cls-20" d="M625.54,24.28a.84.84,0,1,1,.84.84A.85.85,0,0,1,625.54,24.28Z"/><path d="M626.84,24.28a.46.46,0,1,1-.46-.46.49.49,0,0,1,.46.46m.77,0a1.23,1.23,0,1,0-1.23,1.22,1.26,1.26,0,0,0,1.23-1.22Z"/><path class="cls-20" d="M621.42,24.28a.84.84,0,1,1,.84.84A.85.85,0,0,1,621.42,24.28Z"/><path d="M622.64,24.28a.49.49,0,0,1-.45.46.46.46,0,1,1,0-.92.44.44,0,0,1,.45.46m.77,0a1.22,1.22,0,1,0-1.22,1.22,1.32,1.32,0,0,0,1.22-1.22Z"/><path class="cls-20" d="M617.23,24.28a.84.84,0,1,1,.83.84A.84.84,0,0,1,617.23,24.28Z"/><path d="M618.52,24.28a.46.46,0,1,1-.46-.46.49.49,0,0,1,.46.46m.77,0a1.23,1.23,0,1,0-1.23,1.22,1.26,1.26,0,0,0,1.23-1.22Z"/><path class="cls-20" d="M613.1,24.28a.84.84,0,1,1,.84.84A.85.85,0,0,1,613.1,24.28Z"/><path d="M614.33,24.28a.46.46,0,1,1-.46-.46.49.49,0,0,1,.46.46m.76,0a1.22,1.22,0,1,0-1.22,1.22,1.26,1.26,0,0,0,1.22-1.22Z"/></g><g class="cls-19"><path class="cls-20" d="M644.32,27.94a.84.84,0,1,1,.84.84A.85.85,0,0,1,644.32,27.94Z"/><path d="M645.54,27.94a.49.49,0,0,1-.46.46.46.46,0,0,1,0-.92.49.49,0,0,1,.46.46m.76,0a1.22,1.22,0,1,0-1.22,1.22,1.21,1.21,0,0,0,1.22-1.22Z"/><path class="cls-20" d="M640.12,27.94a.84.84,0,1,1,.84.84A.85.85,0,0,1,640.12,27.94Z"/><path d="M641.42,27.94a.46.46,0,1,1-.46-.46.49.49,0,0,1,.46.46m.76,0A1.22,1.22,0,1,0,641,29.16a1.21,1.21,0,0,0,1.22-1.22Z"/><path class="cls-20" d="M636,27.94a.84.84,0,1,1,.84.84A.85.85,0,0,1,636,27.94Z"/><path d="M637.22,27.94a.49.49,0,0,1-.46.46.43.43,0,0,1-.38-.46.49.49,0,0,1,.46-.46.43.43,0,0,1,.38.46m.77,0a1.21,1.21,0,0,0-1.23-1.22,1.15,1.15,0,0,0-1.14,1.22,1.2,1.2,0,0,0,1.22,1.22A1.14,1.14,0,0,0,638,27.94Z"/><path class="cls-20" d="M631.8,27.94a.84.84,0,1,1,.84.84A.85.85,0,0,1,631.8,27.94Z"/><path d="M633.1,27.94a.46.46,0,1,1-.46-.46.49.49,0,0,1,.46.46m.76,0a1.22,1.22,0,1,0-1.22,1.22,1.21,1.21,0,0,0,1.22-1.22Z"/><path class="cls-20" d="M628,27.94a.84.84,0,1,1,.84.84A.85.85,0,0,1,628,27.94Z"/><path d="M629.21,27.94a.46.46,0,1,1-.46-.46.49.49,0,0,1,.46.46m.76,0a1.22,1.22,0,1,0-1.22,1.22A1.21,1.21,0,0,0,630,27.94Z"/><path class="cls-20" d="M623.79,27.94a.84.84,0,1,1,.84.84A.85.85,0,0,1,623.79,27.94Z"/><path d="M625.09,27.94a.46.46,0,1,1-.46-.46.49.49,0,0,1,.46.46m.76,0a1.22,1.22,0,1,0-1.22,1.22,1.21,1.21,0,0,0,1.22-1.22Z"/><path class="cls-20" d="M619.67,27.94a.84.84,0,1,1,.84.84A.85.85,0,0,1,619.67,27.94Z"/><path d="M620.89,27.94a.46.46,0,1,1-.46-.46.44.44,0,0,1,.46.46m.76,0a1.22,1.22,0,1,0-1.22,1.22,1.21,1.21,0,0,0,1.22-1.22Z"/><path class="cls-20" d="M615.47,27.94a.84.84,0,1,1,.84.84A.85.85,0,0,1,615.47,27.94Z"/><path d="M616.77,27.94a.46.46,0,1,1-.46-.46.49.49,0,0,1,.46.46m.76,0a1.22,1.22,0,1,0-1.22,1.22,1.21,1.21,0,0,0,1.22-1.22Z"/></g><g class="cls-19"><circle class="cls-20" cx="642.72" cy="31.61" r="0.84"/><path d="M643.18,31.61a.46.46,0,0,1-.92,0,.46.46,0,1,1,.92,0m.76,0a1.22,1.22,0,1,0-1.22,1.22,1.21,1.21,0,0,0,1.22-1.22Z"/><path class="cls-20" d="M637.76,31.61a.84.84,0,1,1,1.68,0,.84.84,0,0,1-1.68,0Z"/><path d="M639,31.61a.46.46,0,0,1-.92,0,.46.46,0,0,1,.92,0m.76,0a1.22,1.22,0,1,0-1.22,1.22,1.2,1.2,0,0,0,1.22-1.22Z"/><path class="cls-20" d="M633.56,31.61a.84.84,0,1,1,.84.84A.85.85,0,0,1,633.56,31.61Z"/><path d="M634.86,31.61a.46.46,0,0,1-.92,0,.46.46,0,0,1,.92,0m.76,0a1.22,1.22,0,1,0-1.22,1.22,1.2,1.2,0,0,0,1.22-1.22Z"/><circle class="cls-20" cx="630.2" cy="31.61" r="0.84"/><path d="M630.66,31.61a.46.46,0,0,1-.92,0,.46.46,0,1,1,.92,0m.76,0a1.22,1.22,0,1,0-1.22,1.22,1.2,1.2,0,0,0,1.22-1.22Z"/><path class="cls-20" d="M625.54,31.61a.84.84,0,1,1,.84.84A.85.85,0,0,1,625.54,31.61Z"/><path d="M626.84,31.61a.46.46,0,0,1-.91,0,.46.46,0,1,1,.91,0m.77,0a1.23,1.23,0,1,0-1.23,1.22,1.21,1.21,0,0,0,1.23-1.22Z"/><path class="cls-20" d="M621.42,31.61a.84.84,0,1,1,.84.84A.85.85,0,0,1,621.42,31.61Z"/><path d="M622.64,31.61a.48.48,0,0,1-.45.45.49.49,0,0,1-.46-.45.49.49,0,0,1,.46-.46.44.44,0,0,1,.45.46m.77,0a1.22,1.22,0,1,0-1.22,1.22,1.21,1.21,0,0,0,1.22-1.22Z"/><circle class="cls-20" cx="618.06" cy="31.61" r="0.84"/><path d="M618.52,31.61a.46.46,0,0,1-.91,0,.46.46,0,1,1,.91,0m.77,0a1.23,1.23,0,1,0-1.23,1.22,1.21,1.21,0,0,0,1.23-1.22Z"/><path class="cls-20" d="M613.1,31.61a.84.84,0,1,1,.84.84A.85.85,0,0,1,613.1,31.61Z"/><path d="M614.33,31.61a.46.46,0,0,1-.92,0,.46.46,0,0,1,.92,0m.76,0a1.22,1.22,0,1,0-1.22,1.22,1.21,1.21,0,0,0,1.22-1.22Z"/></g><g class="cls-19"><path class="cls-20" d="M644.32,34.89a.84.84,0,1,1,.84.84A.85.85,0,0,1,644.32,34.89Z"/><path d="M645.54,34.89a.49.49,0,0,1-.46.46.46.46,0,0,1,0-.92.49.49,0,0,1,.46.46m.76,0a1.22,1.22,0,0,0-2.44,0,1.21,1.21,0,0,0,1.22,1.22,1.31,1.31,0,0,0,1.22-1.22Z"/><path class="cls-20" d="M640.12,34.89a.84.84,0,1,1,.84.84A.85.85,0,0,1,640.12,34.89Z"/><path d="M641.42,34.89a.46.46,0,1,1-.46-.46.49.49,0,0,1,.46.46m.76,0a1.22,1.22,0,0,0-2.44,0A1.21,1.21,0,0,0,641,36.11a1.25,1.25,0,0,0,1.22-1.22Z"/><path class="cls-20" d="M636,34.89a.84.84,0,1,1,.84.84A.85.85,0,0,1,636,34.89Z"/><path d="M637.22,34.89a.49.49,0,0,1-.46.46.43.43,0,0,1-.38-.46.49.49,0,0,1,.46-.46.43.43,0,0,1,.38.46m.77,0a1.23,1.23,0,1,0-1.23,1.22A1.26,1.26,0,0,0,638,34.89Z"/><path class="cls-20" d="M631.8,34.89a.84.84,0,1,1,.84.84A.85.85,0,0,1,631.8,34.89Z"/><path d="M633.1,34.89a.46.46,0,1,1-.46-.46.49.49,0,0,1,.46.46m.76,0a1.22,1.22,0,1,0-2.44,0,1.21,1.21,0,0,0,1.22,1.22,1.25,1.25,0,0,0,1.22-1.22Z"/><path class="cls-20" d="M628,34.89a.84.84,0,1,1,.84.84A.85.85,0,0,1,628,34.89Z"/><path d="M629.21,34.89a.46.46,0,1,1-.46-.46.49.49,0,0,1,.46.46m.76,0a1.22,1.22,0,1,0-1.22,1.22A1.25,1.25,0,0,0,630,34.89Z"/><path class="cls-20" d="M623.79,34.89a.84.84,0,1,1,.84.84A.85.85,0,0,1,623.79,34.89Z"/><path d="M625.09,34.89a.46.46,0,1,1-.46-.46.49.49,0,0,1,.46.46m.76,0a1.22,1.22,0,1,0-1.22,1.22,1.25,1.25,0,0,0,1.22-1.22Z"/><path class="cls-20" d="M619.67,34.89a.84.84,0,1,1,.84.84A.85.85,0,0,1,619.67,34.89Z"/><path d="M620.89,34.89a.46.46,0,1,1-.46-.46.44.44,0,0,1,.46.46m.76,0a1.22,1.22,0,1,0-1.22,1.22,1.31,1.31,0,0,0,1.22-1.22Z"/><path class="cls-20" d="M615.47,34.89a.84.84,0,1,1,.84.84A.85.85,0,0,1,615.47,34.89Z"/><path d="M616.77,34.89a.46.46,0,1,1-.46-.46.49.49,0,0,1,.46.46m.76,0a1.22,1.22,0,1,0-1.22,1.22,1.31,1.31,0,0,0,1.22-1.22Z"/></g><g class="cls-19"><path class="cls-20" d="M641.88,38.55a.84.84,0,1,1,.84.84A.85.85,0,0,1,641.88,38.55Z"/><path d="M643.18,38.55a.46.46,0,1,1-.46-.46.49.49,0,0,1,.46.46m.76,0a1.22,1.22,0,1,0-1.22,1.22,1.21,1.21,0,0,0,1.22-1.22Z"/><path class="cls-20" d="M637.76,38.55a.84.84,0,1,1,.84.84A.85.85,0,0,1,637.76,38.55Z"/><path d="M639,38.55a.46.46,0,1,1-.46-.46.49.49,0,0,1,.46.46m.76,0a1.22,1.22,0,1,0-1.22,1.22,1.2,1.2,0,0,0,1.22-1.22Z"/><path class="cls-20" d="M633.56,38.55a.84.84,0,1,1,.84.84A.85.85,0,0,1,633.56,38.55Z"/><path d="M634.86,38.55a.46.46,0,1,1-.46-.46.49.49,0,0,1,.46.46m.76,0a1.22,1.22,0,1,0-1.22,1.22,1.2,1.2,0,0,0,1.22-1.22Z"/><path class="cls-20" d="M629.44,38.55a.84.84,0,1,1,.84.84A.85.85,0,0,1,629.44,38.55Z"/><path d="M630.66,38.55a.46.46,0,1,1-.46-.46.49.49,0,0,1,.46.46m.76,0a1.22,1.22,0,1,0-1.22,1.22,1.2,1.2,0,0,0,1.22-1.22Z"/><path class="cls-20" d="M625.54,38.55a.84.84,0,1,1,.84.84A.85.85,0,0,1,625.54,38.55Z"/><path d="M626.84,38.55a.46.46,0,1,1-.46-.46.49.49,0,0,1,.46.46m.77,0a1.23,1.23,0,1,0-1.23,1.22,1.21,1.21,0,0,0,1.23-1.22Z"/><path class="cls-20" d="M621.42,38.55a.84.84,0,1,1,.84.84A.85.85,0,0,1,621.42,38.55Z"/><path d="M622.64,38.55a.49.49,0,0,1-.45.46.46.46,0,1,1,0-.92.44.44,0,0,1,.45.46m.77,0a1.22,1.22,0,1,0-1.22,1.22,1.21,1.21,0,0,0,1.22-1.22Z"/><path class="cls-20" d="M617.23,38.55a.84.84,0,1,1,.83.84A.84.84,0,0,1,617.23,38.55Z"/><path d="M618.52,38.55a.46.46,0,1,1-.46-.46.49.49,0,0,1,.46.46m.77,0a1.23,1.23,0,1,0-1.23,1.22,1.21,1.21,0,0,0,1.23-1.22Z"/><path class="cls-20" d="M613.1,38.55a.84.84,0,1,1,.84.84A.85.85,0,0,1,613.1,38.55Z"/><path d="M614.33,38.55a.46.46,0,1,1-.46-.46.49.49,0,0,1,.46.46m.76,0a1.22,1.22,0,1,0-1.22,1.22,1.21,1.21,0,0,0,1.22-1.22Z"/></g><g class="cls-19"><path class="cls-20" d="M644.32,42.22a.84.84,0,1,1,.84.83A.85.85,0,0,1,644.32,42.22Z"/><path d="M645.54,42.22a.49.49,0,0,1-.46.45.46.46,0,0,1,0-.91.49.49,0,0,1,.46.46m.76,0a1.22,1.22,0,1,0-1.22,1.22,1.21,1.21,0,0,0,1.22-1.22Z"/><circle class="cls-20" cx="640.96" cy="42.22" r="0.84"/><path d="M641.42,42.22a.46.46,0,1,1-.46-.46.49.49,0,0,1,.46.46m.76,0A1.22,1.22,0,1,0,641,43.44a1.21,1.21,0,0,0,1.22-1.22Z"/><path class="cls-20" d="M636,42.22a.84.84,0,1,1,.84.83A.85.85,0,0,1,636,42.22Z"/><path d="M637.22,42.22a.49.49,0,0,1-.46.45.43.43,0,0,1-.38-.45.49.49,0,0,1,.46-.46.43.43,0,0,1,.38.46m.77,0a1.23,1.23,0,1,0-1.23,1.22A1.22,1.22,0,0,0,638,42.22Z"/><path class="cls-20" d="M631.8,42.22a.84.84,0,1,1,.84.83A.85.85,0,0,1,631.8,42.22Z"/><path d="M633.1,42.22a.46.46,0,1,1-.46-.46.49.49,0,0,1,.46.46m.76,0a1.22,1.22,0,1,0-1.22,1.22,1.21,1.21,0,0,0,1.22-1.22Z"/><circle class="cls-20" cx="628.83" cy="42.22" r="0.84"/><path d="M629.21,42.22a.46.46,0,1,1-.46-.46.49.49,0,0,1,.46.46m.76,0a1.22,1.22,0,1,0-1.22,1.22A1.21,1.21,0,0,0,630,42.22Z"/><path class="cls-20" d="M623.79,42.22a.84.84,0,1,1,.84.83A.85.85,0,0,1,623.79,42.22Z"/><path d="M625.09,42.22a.46.46,0,1,1-.46-.46.49.49,0,0,1,.46.46m.76,0a1.22,1.22,0,1,0-1.22,1.22,1.21,1.21,0,0,0,1.22-1.22Z"/><path class="cls-20" d="M619.67,42.22a.84.84,0,1,1,.84.83A.85.85,0,0,1,619.67,42.22Z"/><path d="M620.89,42.22a.46.46,0,1,1-.46-.46.44.44,0,0,1,.46.46m.76,0a1.22,1.22,0,1,0-1.22,1.22,1.21,1.21,0,0,0,1.22-1.22Z"/><circle class="cls-20" cx="616.31" cy="42.22" r="0.84"/><path d="M616.77,42.22a.46.46,0,1,1-.46-.46.49.49,0,0,1,.46.46m.76,0a1.22,1.22,0,1,0-1.22,1.22,1.21,1.21,0,0,0,1.22-1.22Z"/></g><g class="cls-19"><path class="cls-20" d="M641.88,45.88a.84.84,0,1,1,.84.84A.85.85,0,0,1,641.88,45.88Z"/><path d="M643.18,45.88a.46.46,0,1,1-.92,0,.47.47,0,0,1,.92,0m.76,0a1.22,1.22,0,1,0-1.22,1.22,1.21,1.21,0,0,0,1.22-1.22Z"/><path class="cls-20" d="M637.76,45.88a.84.84,0,1,1,.84.84A.85.85,0,0,1,637.76,45.88Z"/><path d="M639,45.88a.46.46,0,0,1-.92,0,.47.47,0,0,1,.92,0m.76,0a1.22,1.22,0,1,0-1.22,1.22,1.2,1.2,0,0,0,1.22-1.22Z"/><path class="cls-20" d="M633.56,45.88a.84.84,0,1,1,.84.84A.85.85,0,0,1,633.56,45.88Z"/><path d="M634.86,45.88a.46.46,0,0,1-.92,0,.47.47,0,0,1,.92,0m.76,0a1.22,1.22,0,1,0-1.22,1.22,1.2,1.2,0,0,0,1.22-1.22Z"/><path class="cls-20" d="M629.44,45.88a.84.84,0,1,1,.84.84A.85.85,0,0,1,629.44,45.88Z"/><path d="M630.66,45.88a.46.46,0,1,1-.46-.46.49.49,0,0,1,.46.46m.76,0a1.22,1.22,0,1,0-1.22,1.22,1.2,1.2,0,0,0,1.22-1.22Z"/><path class="cls-20" d="M625.54,45.88a.84.84,0,1,1,.84.84A.85.85,0,0,1,625.54,45.88Z"/><path d="M626.84,45.88a.46.46,0,1,1-.46-.46c.23.08.46.23.46.46m.77,0a1.23,1.23,0,1,0-1.23,1.22,1.21,1.21,0,0,0,1.23-1.22Z"/><path class="cls-20" d="M621.42,45.88a.84.84,0,1,1,.84.84A.85.85,0,0,1,621.42,45.88Z"/><path d="M622.64,45.88a.49.49,0,0,1-.45.46.46.46,0,1,1,0-.92c.3.08.45.23.45.46m.77,0a1.22,1.22,0,1,0-1.22,1.22,1.21,1.21,0,0,0,1.22-1.22Z"/><path class="cls-20" d="M617.23,45.88a.84.84,0,1,1,.83.84A.84.84,0,0,1,617.23,45.88Z"/><path d="M618.52,45.88a.46.46,0,1,1-.91,0,.46.46,0,0,1,.91,0m.77,0a1.23,1.23,0,1,0-1.23,1.22,1.21,1.21,0,0,0,1.23-1.22Z"/><path class="cls-20" d="M613.1,45.88a.84.84,0,1,1,.84.84A.85.85,0,0,1,613.1,45.88Z"/><path d="M614.33,45.88a.46.46,0,1,1-.46-.46.49.49,0,0,1,.46.46m.76,0a1.22,1.22,0,1,0-1.22,1.22,1.21,1.21,0,0,0,1.22-1.22Z"/></g><g class="cls-19"><path class="cls-20" d="M644.32,49.54a.84.84,0,1,1,.84.84A.85.85,0,0,1,644.32,49.54Z"/><path d="M645.54,49.54a.49.49,0,0,1-.46.46.46.46,0,0,1,0-.92.49.49,0,0,1,.46.46m.76,0a1.22,1.22,0,1,0-1.22,1.22,1.21,1.21,0,0,0,1.22-1.22Z"/><circle class="cls-20" cx="640.96" cy="49.54" r="0.84"/><path d="M641.42,49.54a.46.46,0,1,1-.46-.46c.23.08.46.23.46.46m.76,0A1.22,1.22,0,1,0,641,50.76a1.21,1.21,0,0,0,1.22-1.22Z"/><path class="cls-20" d="M636,49.54a.84.84,0,1,1,.84.84A.85.85,0,0,1,636,49.54Z"/><path d="M637.22,49.54a.49.49,0,0,1-.46.46c-.22,0-.38-.15-.38-.46a.45.45,0,0,1,.46-.46.43.43,0,0,1,.38.46m.77,0a1.23,1.23,0,1,0-1.23,1.22A1.21,1.21,0,0,0,638,49.54Z"/><path class="cls-20" d="M631.8,49.54a.84.84,0,1,1,.84.84A.85.85,0,0,1,631.8,49.54Z"/><path d="M633.1,49.54a.46.46,0,1,1-.46-.46c.23.08.46.23.46.46m.76,0a1.22,1.22,0,1,0-1.22,1.22,1.21,1.21,0,0,0,1.22-1.22Z"/><circle class="cls-20" cx="628.83" cy="49.54" r="0.84"/><path d="M629.21,49.54a.46.46,0,1,1-.46-.46.49.49,0,0,1,.46.46m.76,0a1.22,1.22,0,1,0-1.22,1.22A1.21,1.21,0,0,0,630,49.54Z"/><path class="cls-20" d="M623.79,49.54a.84.84,0,1,1,.84.84A.85.85,0,0,1,623.79,49.54Z"/><path d="M625.09,49.54a.46.46,0,1,1-.46-.46.49.49,0,0,1,.46.46m.76,0a1.22,1.22,0,1,0-1.22,1.22,1.21,1.21,0,0,0,1.22-1.22Z"/><path class="cls-20" d="M619.67,49.54a.84.84,0,1,1,.84.84A.85.85,0,0,1,619.67,49.54Z"/><path d="M620.89,49.54a.46.46,0,1,1-.46-.46c.31.08.46.23.46.46m.76,0a1.22,1.22,0,1,0-1.22,1.22,1.21,1.21,0,0,0,1.22-1.22Z"/><circle class="cls-20" cx="616.31" cy="49.54" r="0.84"/><path d="M616.77,49.54a.46.46,0,1,1-.46-.46c.23.08.46.23.46.46m.76,0a1.22,1.22,0,1,0-1.22,1.22,1.21,1.21,0,0,0,1.22-1.22Z"/></g><g class="cls-19"><path class="cls-20" d="M641.88,53.28a.84.84,0,1,1,.84.84A.85.85,0,0,1,641.88,53.28Z"/><path d="M643.18,53.28a.46.46,0,1,1-.46-.46.49.49,0,0,1,.46.46m.76,0a1.22,1.22,0,1,0-2.44,0,1.2,1.2,0,0,0,1.22,1.22,1.26,1.26,0,0,0,1.22-1.22Z"/><path class="cls-20" d="M637.76,53.28a.84.84,0,1,1,.84.84A.85.85,0,0,1,637.76,53.28Z"/><path d="M639,53.28a.46.46,0,1,1-.46-.46.49.49,0,0,1,.46.46m.76,0a1.22,1.22,0,1,0-1.22,1.22,1.25,1.25,0,0,0,1.22-1.22Z"/><path class="cls-20" d="M633.56,53.28a.84.84,0,1,1,.84.84A.85.85,0,0,1,633.56,53.28Z"/><path d="M634.86,53.28a.46.46,0,1,1-.46-.46.49.49,0,0,1,.46.46m.76,0a1.22,1.22,0,1,0-1.22,1.22,1.3,1.3,0,0,0,1.22-1.22Z"/><path class="cls-20" d="M629.44,53.28a.84.84,0,1,1,.84.84A.85.85,0,0,1,629.44,53.28Z"/><path d="M630.66,53.28a.46.46,0,1,1-.46-.46.49.49,0,0,1,.46.46m.76,0a1.22,1.22,0,1,0-1.22,1.22,1.25,1.25,0,0,0,1.22-1.22Z"/><path class="cls-20" d="M625.54,53.28a.84.84,0,1,1,.84.84A.85.85,0,0,1,625.54,53.28Z"/><path d="M626.84,53.28a.46.46,0,1,1-.46-.46.49.49,0,0,1,.46.46m.77,0a1.23,1.23,0,1,0-1.23,1.22,1.26,1.26,0,0,0,1.23-1.22Z"/><path class="cls-20" d="M621.42,53.28a.84.84,0,1,1,.84.84A.85.85,0,0,1,621.42,53.28Z"/><path d="M622.64,53.28a.49.49,0,0,1-.45.46.46.46,0,1,1,0-.92.44.44,0,0,1,.45.46m.77,0a1.22,1.22,0,0,0-2.44,0,1.2,1.2,0,0,0,1.22,1.22,1.31,1.31,0,0,0,1.22-1.22Z"/><path class="cls-20" d="M617.23,53.28a.84.84,0,1,1,.83.84A.84.84,0,0,1,617.23,53.28Z"/><path d="M618.52,53.28a.46.46,0,1,1-.46-.46.49.49,0,0,1,.46.46m.77,0a1.23,1.23,0,1,0-1.23,1.22,1.26,1.26,0,0,0,1.23-1.22Z"/><path class="cls-20" d="M613.1,53.28a.84.84,0,1,1,.84.84A.85.85,0,0,1,613.1,53.28Z"/><path d="M614.33,53.28a.46.46,0,1,1-.46-.46.49.49,0,0,1,.46.46m.76,0a1.22,1.22,0,1,0-2.44,0,1.2,1.2,0,0,0,1.22,1.22,1.26,1.26,0,0,0,1.22-1.22Z"/></g><g class="cls-19"><path class="cls-20" d="M644.32,57a.84.84,0,1,1,.84.84A.85.85,0,0,1,644.32,57Z"/><path d="M645.54,57a.49.49,0,0,1-.46.45.46.46,0,0,1,0-.91.49.49,0,0,1,.46.46m.76,0a1.22,1.22,0,1,0-1.22,1.22A1.21,1.21,0,0,0,646.3,57Z"/><path class="cls-20" d="M640.12,57a.84.84,0,1,1,.84.84A.85.85,0,0,1,640.12,57Z"/><path d="M641.42,57a.46.46,0,1,1-.46-.46.49.49,0,0,1,.46.46m.76,0A1.22,1.22,0,1,0,641,58.17,1.21,1.21,0,0,0,642.18,57Z"/><path class="cls-20" d="M636,57a.84.84,0,1,1,.84.84A.85.85,0,0,1,636,57Z"/><path d="M637.22,57a.49.49,0,0,1-.46.45.43.43,0,0,1-.38-.45.49.49,0,0,1,.46-.46.43.43,0,0,1,.38.46m.77,0a1.22,1.22,0,0,0-1.23-1.23A1.15,1.15,0,0,0,635.62,57a1.21,1.21,0,0,0,1.22,1.22A1.15,1.15,0,0,0,638,57Z"/><path class="cls-20" d="M631.8,57a.84.84,0,1,1,.84.84A.85.85,0,0,1,631.8,57Z"/><path d="M633.1,57a.46.46,0,1,1-.46-.46.49.49,0,0,1,.46.46m.76,0a1.22,1.22,0,1,0-1.22,1.22A1.21,1.21,0,0,0,633.86,57Z"/><path class="cls-20" d="M628,57a.84.84,0,1,1,1.68,0A.84.84,0,1,1,628,57Z"/><path d="M629.21,57a.46.46,0,1,1-.46-.46.49.49,0,0,1,.46.46m.76,0a1.22,1.22,0,1,0-1.22,1.22A1.21,1.21,0,0,0,630,57Z"/><path class="cls-20" d="M623.79,57a.84.84,0,1,1,.84.84A.85.85,0,0,1,623.79,57Z"/><path d="M625.09,57a.46.46,0,1,1-.46-.46.49.49,0,0,1,.46.46m.76,0a1.22,1.22,0,1,0-1.22,1.22A1.21,1.21,0,0,0,625.85,57Z"/><path class="cls-20" d="M619.67,57a.84.84,0,1,1,.84.84A.85.85,0,0,1,619.67,57Z"/><path d="M620.89,57a.46.46,0,1,1-.46-.46.44.44,0,0,1,.46.46m.76,0a1.22,1.22,0,1,0-1.22,1.22A1.21,1.21,0,0,0,621.65,57Z"/><path class="cls-20" d="M615.47,57a.84.84,0,1,1,.84.84A.85.85,0,0,1,615.47,57Z"/><path d="M616.77,57a.46.46,0,1,1-.46-.46.49.49,0,0,1,.46.46m.76,0a1.22,1.22,0,1,0-1.22,1.22A1.21,1.21,0,0,0,617.53,57Z"/></g><g class="cls-19"><path class="cls-20" d="M608.3,9.55a.84.84,0,1,1,.84.84A.85.85,0,0,1,608.3,9.55Z"/><path d="M609.59,9.55a.46.46,0,1,1-.45-.46.49.49,0,0,1,.45.46m.77,0a1.23,1.23,0,1,0-1.22,1.22,1.21,1.21,0,0,0,1.22-1.22Z"/><path class="cls-20" d="M604.17,9.55a.84.84,0,1,1,.84.84A.85.85,0,0,1,604.17,9.55Z"/><path d="M605.4,9.55a.46.46,0,1,1-.46-.46.45.45,0,0,1,.46.46m.76,0a1.22,1.22,0,1,0-1.22,1.22,1.21,1.21,0,0,0,1.22-1.22Z"/><path class="cls-20" d="M600,9.55a.84.84,0,1,1,.84.84A.85.85,0,0,1,600,9.55Z"/><path d="M601.27,9.55a.46.46,0,1,1-.45-.46.49.49,0,0,1,.45.46m.77,0a1.23,1.23,0,1,0-1.22,1.22A1.21,1.21,0,0,0,602,9.55Z"/><path class="cls-20" d="M595.85,9.55a.84.84,0,1,1,.84.84A.85.85,0,0,1,595.85,9.55Z"/><path d="M597.08,9.55a.46.46,0,1,1-.46-.46.49.49,0,0,1,.46.46m.76,0a1.22,1.22,0,1,0-1.22,1.22,1.21,1.21,0,0,0,1.22-1.22Z"/><path class="cls-20" d="M592,9.55a.84.84,0,1,1,.84.84A.85.85,0,0,1,592,9.55Z"/><path d="M593.26,9.55a.46.46,0,1,1-.46-.46.49.49,0,0,1,.46.46m.76,0a1.22,1.22,0,1,0-1.22,1.22A1.2,1.2,0,0,0,594,9.55Z"/><path class="cls-20" d="M587.84,9.55a.84.84,0,1,1,.84.84A.85.85,0,0,1,587.84,9.55Z"/><path d="M589.06,9.55a.46.46,0,1,1-.46-.46.44.44,0,0,1,.46.46m.77,0a1.23,1.23,0,1,0-1.23,1.22,1.21,1.21,0,0,0,1.23-1.22Z"/><path class="cls-20" d="M583.64,9.55a.84.84,0,1,1,.84.84A.85.85,0,0,1,583.64,9.55Z"/><path d="M584.94,9.55a.46.46,0,1,1-.46-.46.49.49,0,0,1,.46.46m.76,0a1.22,1.22,0,1,0-1.22,1.22,1.2,1.2,0,0,0,1.22-1.22Z"/><path class="cls-20" d="M579.52,9.55a.84.84,0,1,1,.84.84A.85.85,0,0,1,579.52,9.55Z"/><path d="M580.74,9.55a.46.46,0,1,1-.46-.46.49.49,0,0,1,.46.46m.77,0a1.23,1.23,0,1,0-1.23,1.22,1.21,1.21,0,0,0,1.23-1.22Z"/></g><g class="cls-19"><path class="cls-20" d="M610.74,13.21a.84.84,0,1,1,.84.84A.85.85,0,0,1,610.74,13.21Z"/><path d="M612,13.21a.46.46,0,1,1-.46-.46.49.49,0,0,1,.46.46m.76,0a1.22,1.22,0,1,0-1.22,1.22,1.21,1.21,0,0,0,1.22-1.22Z"/><circle class="cls-20" cx="607.38" cy="13.21" r="0.84"/><path d="M607.84,13.21a.46.46,0,1,1-.46-.46.49.49,0,0,1,.46.46m.76,0a1.22,1.22,0,1,0-1.22,1.22,1.21,1.21,0,0,0,1.22-1.22Z"/><path class="cls-20" d="M602.42,13.21a.84.84,0,1,1,.84.84A.85.85,0,0,1,602.42,13.21Z"/><path d="M603.64,13.21a.46.46,0,1,1-.46-.46.49.49,0,0,1,.46.46m.76,0a1.22,1.22,0,1,0-1.22,1.22,1.21,1.21,0,0,0,1.22-1.22Z"/><path class="cls-20" d="M598.22,13.21a.84.84,0,1,1,.84.84A.85.85,0,0,1,598.22,13.21Z"/><path d="M599.52,13.21a.46.46,0,1,1-.46-.46.49.49,0,0,1,.46.46m.76,0a1.22,1.22,0,1,0-1.22,1.22,1.21,1.21,0,0,0,1.22-1.22Z"/><circle class="cls-20" cx="595.24" cy="13.21" r="0.84"/><path d="M595.63,13.21a.46.46,0,1,1-.46-.46.49.49,0,0,1,.46.46m.76,0a1.22,1.22,0,1,0-2.44,0,1.22,1.22,0,1,0,2.44,0Z"/><path class="cls-20" d="M590.21,13.21a.84.84,0,1,1,.84.84A.85.85,0,0,1,590.21,13.21Z"/><path d="M591.5,13.21a.49.49,0,0,1-.45.46.46.46,0,1,1,0-.92.49.49,0,0,1,.45.46m.77,0a1.22,1.22,0,1,0-2.44,0,1.22,1.22,0,1,0,2.44,0Z"/><path class="cls-20" d="M586.09,13.21a.84.84,0,1,1,.84.84A.85.85,0,0,1,586.09,13.21Z"/><path d="M587.31,13.21a.46.46,0,1,1-.46-.46.45.45,0,0,1,.46.46m.76,0a1.22,1.22,0,1,0-1.22,1.22,1.21,1.21,0,0,0,1.22-1.22Z"/><circle class="cls-20" cx="582.73" cy="13.21" r="0.84"/><path d="M583.19,13.21a.46.46,0,1,1-.46-.46.49.49,0,0,1,.46.46m.76,0a1.22,1.22,0,0,0-2.44,0,1.22,1.22,0,0,0,2.44,0Z"/></g><g class="cls-19"><path class="cls-20" d="M608.3,16.88a.84.84,0,1,1,.84.84A.85.85,0,0,1,608.3,16.88Z"/><path d="M609.59,16.88a.46.46,0,0,1-.91,0,.46.46,0,0,1,.91,0m.77,0a1.23,1.23,0,1,0-1.22,1.22,1.21,1.21,0,0,0,1.22-1.22Z"/><path class="cls-20" d="M604.17,16.88a.84.84,0,1,1,.84.84A.85.85,0,0,1,604.17,16.88Z"/><path d="M605.4,16.88a.46.46,0,1,1-.46-.46c.3.07.46.23.46.46m.76,0a1.22,1.22,0,1,0-1.22,1.22,1.21,1.21,0,0,0,1.22-1.22Z"/><path class="cls-20" d="M600,16.88a.84.84,0,1,1,1.68,0,.84.84,0,1,1-1.68,0Z"/><path d="M601.27,16.88a.46.46,0,1,1-.45-.46.49.49,0,0,1,.45.46m.77,0a1.23,1.23,0,1,0-1.22,1.22A1.21,1.21,0,0,0,602,16.88Z"/><path class="cls-20" d="M595.85,16.88a.84.84,0,1,1,.84.84A.85.85,0,0,1,595.85,16.88Z"/><path d="M597.08,16.88a.46.46,0,1,1-.46-.46.49.49,0,0,1,.46.46m.76,0a1.22,1.22,0,1,0-1.22,1.22,1.21,1.21,0,0,0,1.22-1.22Z"/><path class="cls-20" d="M592,16.88a.84.84,0,1,1,.84.84A.85.85,0,0,1,592,16.88Z"/><path d="M593.26,16.88a.46.46,0,1,1-.46-.46c.23.07.46.23.46.46m.76,0a1.22,1.22,0,1,0-1.22,1.22A1.21,1.21,0,0,0,594,16.88Z"/><path class="cls-20" d="M587.84,16.88a.84.84,0,1,1,.84.84A.85.85,0,0,1,587.84,16.88Z"/><path d="M589.06,16.88a.46.46,0,1,1-.46-.46c.31.07.46.23.46.46m.77,0a1.23,1.23,0,1,0-1.23,1.22,1.22,1.22,0,0,0,1.23-1.22Z"/><path class="cls-20" d="M583.64,16.88a.84.84,0,1,1,.84.84A.85.85,0,0,1,583.64,16.88Z"/><path d="M584.94,16.88a.46.46,0,0,1-.92,0,.47.47,0,0,1,.92,0m.76,0a1.22,1.22,0,1,0-1.22,1.22,1.21,1.21,0,0,0,1.22-1.22Z"/><path class="cls-20" d="M579.52,16.88a.84.84,0,1,1,.84.84A.85.85,0,0,1,579.52,16.88Z"/><path d="M580.74,16.88a.46.46,0,1,1-.46-.46.49.49,0,0,1,.46.46m.77,0a1.23,1.23,0,1,0-1.23,1.22,1.22,1.22,0,0,0,1.23-1.22Z"/></g><g class="cls-19"><path class="cls-20" d="M610.74,20.54a.84.84,0,1,1,.84.84A.85.85,0,0,1,610.74,20.54Z"/><path d="M612,20.54a.46.46,0,1,1-.46-.46.49.49,0,0,1,.46.46m.76,0a1.22,1.22,0,1,0-1.22,1.22,1.2,1.2,0,0,0,1.22-1.22Z"/><circle class="cls-20" cx="607.38" cy="20.54" r="0.84"/><path d="M607.84,20.54a.46.46,0,1,1-.46-.46.49.49,0,0,1,.46.46m.76,0a1.22,1.22,0,1,0-1.22,1.22,1.2,1.2,0,0,0,1.22-1.22Z"/><path class="cls-20" d="M602.42,20.54a.84.84,0,1,1,.84.84A.85.85,0,0,1,602.42,20.54Z"/><path d="M603.64,20.54a.46.46,0,1,1-.46-.46c.23.08.46.23.46.46m.76,0a1.22,1.22,0,1,0-1.22,1.22,1.2,1.2,0,0,0,1.22-1.22Z"/><path class="cls-20" d="M598.22,20.54a.84.84,0,1,1,.84.84A.85.85,0,0,1,598.22,20.54Z"/><path d="M599.52,20.54a.46.46,0,1,1-.46-.46c.23.08.46.23.46.46m.76,0a1.22,1.22,0,1,0-1.22,1.22,1.2,1.2,0,0,0,1.22-1.22Z"/><circle class="cls-20" cx="595.24" cy="20.54" r="0.84"/><path d="M595.63,20.54a.46.46,0,1,1-.46-.46.49.49,0,0,1,.46.46m.76,0a1.22,1.22,0,1,0-1.22,1.22,1.21,1.21,0,0,0,1.22-1.22Z"/><path class="cls-20" d="M590.21,20.54a.84.84,0,1,1,.84.84A.85.85,0,0,1,590.21,20.54Z"/><path d="M591.5,20.54a.49.49,0,0,1-.45.46.46.46,0,1,1,0-.92.49.49,0,0,1,.45.46m.77,0a1.22,1.22,0,1,0-1.22,1.22,1.21,1.21,0,0,0,1.22-1.22Z"/><path class="cls-20" d="M586.09,20.54a.84.84,0,1,1,.84.84A.85.85,0,0,1,586.09,20.54Z"/><path d="M587.31,20.54a.46.46,0,1,1-.46-.46c.3.08.46.23.46.46m.76,0a1.22,1.22,0,1,0-1.22,1.22,1.2,1.2,0,0,0,1.22-1.22Z"/><circle class="cls-20" cx="582.73" cy="20.54" r="0.84"/><path d="M583.19,20.54a.46.46,0,1,1-.46-.46c.23.08.46.23.46.46m.76,0a1.22,1.22,0,1,0-1.22,1.22A1.21,1.21,0,0,0,584,20.54Z"/></g><g class="cls-19"><path class="cls-20" d="M608.3,24.28a.84.84,0,1,1,.84.84A.85.85,0,0,1,608.3,24.28Z"/><path d="M609.59,24.28a.46.46,0,1,1-.45-.46.49.49,0,0,1,.45.46m.77,0a1.23,1.23,0,1,0-1.22,1.22,1.32,1.32,0,0,0,1.22-1.22Z"/><path class="cls-20" d="M604.17,24.28a.84.84,0,1,1,.84.84A.85.85,0,0,1,604.17,24.28Z"/><path d="M605.4,24.28a.46.46,0,1,1-.46-.46.45.45,0,0,1,.46.46m.76,0a1.22,1.22,0,1,0-1.22,1.22,1.32,1.32,0,0,0,1.22-1.22Z"/><path class="cls-20" d="M600,24.28a.84.84,0,1,1,.84.84A.85.85,0,0,1,600,24.28Z"/><path d="M601.27,24.28a.46.46,0,1,1-.45-.46.49.49,0,0,1,.45.46m.77,0a1.23,1.23,0,1,0-1.22,1.22A1.26,1.26,0,0,0,602,24.28Z"/><path class="cls-20" d="M595.85,24.28a.84.84,0,1,1,.84.84A.85.85,0,0,1,595.85,24.28Z"/><path d="M597.08,24.28a.46.46,0,1,1-.46-.46.49.49,0,0,1,.46.46m.76,0a1.22,1.22,0,1,0-1.22,1.22,1.26,1.26,0,0,0,1.22-1.22Z"/><path class="cls-20" d="M592,24.28a.84.84,0,1,1,.84.84A.85.85,0,0,1,592,24.28Z"/><path d="M593.26,24.28a.46.46,0,1,1-.46-.46.49.49,0,0,1,.46.46m.76,0a1.22,1.22,0,1,0-1.22,1.22A1.25,1.25,0,0,0,594,24.28Z"/><path class="cls-20" d="M587.84,24.28a.84.84,0,1,1,.84.84A.85.85,0,0,1,587.84,24.28Z"/><path d="M589.06,24.28a.46.46,0,1,1-.46-.46.44.44,0,0,1,.46.46m.77,0a1.23,1.23,0,1,0-1.23,1.22,1.32,1.32,0,0,0,1.23-1.22Z"/><path class="cls-20" d="M583.64,24.28a.84.84,0,1,1,.84.84A.85.85,0,0,1,583.64,24.28Z"/><path d="M584.94,24.28a.46.46,0,1,1-.46-.46.49.49,0,0,1,.46.46m.76,0a1.22,1.22,0,1,0-1.22,1.22,1.25,1.25,0,0,0,1.22-1.22Z"/><path class="cls-20" d="M579.52,24.28a.84.84,0,1,1,.84.84A.85.85,0,0,1,579.52,24.28Z"/><path d="M580.74,24.28a.46.46,0,1,1-.46-.46.49.49,0,0,1,.46.46m.77,0a1.23,1.23,0,1,0-1.23,1.22,1.26,1.26,0,0,0,1.23-1.22Z"/></g><g class="cls-19"><path class="cls-20" d="M610.74,27.94a.84.84,0,1,1,.84.84A.85.85,0,0,1,610.74,27.94Z"/><path d="M612,27.94a.46.46,0,1,1-.46-.46.49.49,0,0,1,.46.46m.76,0a1.22,1.22,0,1,0-1.22,1.22,1.21,1.21,0,0,0,1.22-1.22Z"/><path class="cls-20" d="M606.54,27.94a.84.84,0,1,1,.84.84A.85.85,0,0,1,606.54,27.94Z"/><path d="M607.84,27.94a.46.46,0,1,1-.46-.46.49.49,0,0,1,.46.46m.76,0a1.22,1.22,0,1,0-1.22,1.22,1.21,1.21,0,0,0,1.22-1.22Z"/><path class="cls-20" d="M602.42,27.94a.84.84,0,1,1,.84.84A.85.85,0,0,1,602.42,27.94Z"/><path d="M603.64,27.94a.46.46,0,1,1-.46-.46.49.49,0,0,1,.46.46m.76,0a1.22,1.22,0,1,0-1.22,1.22,1.21,1.21,0,0,0,1.22-1.22Z"/><path class="cls-20" d="M598.22,27.94a.84.84,0,1,1,.84.84A.85.85,0,0,1,598.22,27.94Z"/><path d="M599.52,27.94a.46.46,0,1,1-.46-.46.49.49,0,0,1,.46.46m.76,0a1.22,1.22,0,1,0-1.22,1.22,1.21,1.21,0,0,0,1.22-1.22Z"/><path class="cls-20" d="M594.4,27.94a.84.84,0,1,1,.84.84A.85.85,0,0,1,594.4,27.94Z"/><path d="M595.63,27.94a.46.46,0,1,1-.46-.46.49.49,0,0,1,.46.46m.76,0a1.22,1.22,0,1,0-2.44,0,1.22,1.22,0,1,0,2.44,0Z"/><path class="cls-20" d="M590.21,27.94a.84.84,0,1,1,.84.84A.85.85,0,0,1,590.21,27.94Z"/><path d="M591.5,27.94a.49.49,0,0,1-.45.46.46.46,0,1,1,0-.92.49.49,0,0,1,.45.46m.77,0a1.22,1.22,0,1,0-2.44,0,1.22,1.22,0,1,0,2.44,0Z"/><path class="cls-20" d="M586.09,27.94a.84.84,0,1,1,.84.84A.85.85,0,0,1,586.09,27.94Z"/><path d="M587.31,27.94a.46.46,0,1,1-.46-.46.45.45,0,0,1,.46.46m.76,0a1.22,1.22,0,1,0-1.22,1.22,1.21,1.21,0,0,0,1.22-1.22Z"/><path class="cls-20" d="M581.89,27.94a.84.84,0,1,1,.84.84A.85.85,0,0,1,581.89,27.94Z"/><path d="M583.19,27.94a.46.46,0,1,1-.46-.46.49.49,0,0,1,.46.46m.76,0a1.22,1.22,0,0,0-2.44,0,1.22,1.22,0,0,0,2.44,0Z"/></g><g class="cls-19"><circle class="cls-20" cx="609.14" cy="31.61" r="0.84"/><path d="M609.59,31.61a.46.46,0,0,1-.91,0,.46.46,0,1,1,.91,0m.77,0a1.23,1.23,0,1,0-1.22,1.22,1.21,1.21,0,0,0,1.22-1.22Z"/><path class="cls-20" d="M604.17,31.61a.84.84,0,1,1,.84.84A.85.85,0,0,1,604.17,31.61Z"/><path d="M605.4,31.61a.46.46,0,0,1-.92,0,.49.49,0,0,1,.46-.46.45.45,0,0,1,.46.46m.76,0a1.22,1.22,0,1,0-1.22,1.22,1.21,1.21,0,0,0,1.22-1.22Z"/><path class="cls-20" d="M600,31.61a.84.84,0,1,1,1.68,0,.84.84,0,1,1-1.68,0Z"/><path d="M601.27,31.61a.46.46,0,0,1-.91,0,.46.46,0,1,1,.91,0m.77,0a1.23,1.23,0,1,0-1.22,1.22A1.21,1.21,0,0,0,602,31.61Z"/><circle class="cls-20" cx="596.62" cy="31.61" r="0.84"/><path d="M597.08,31.61a.46.46,0,0,1-.92,0,.46.46,0,0,1,.92,0m.76,0a1.22,1.22,0,1,0-1.22,1.22,1.21,1.21,0,0,0,1.22-1.22Z"/><path class="cls-20" d="M592,31.61a.84.84,0,1,1,.84.84A.85.85,0,0,1,592,31.61Z"/><path d="M593.26,31.61a.46.46,0,0,1-.92,0,.46.46,0,0,1,.92,0m.76,0a1.22,1.22,0,1,0-1.22,1.22A1.2,1.2,0,0,0,594,31.61Z"/><path class="cls-20" d="M587.84,31.61a.84.84,0,1,1,.84.84A.85.85,0,0,1,587.84,31.61Z"/><path d="M589.06,31.61a.46.46,0,0,1-.91,0,.49.49,0,0,1,.45-.46.44.44,0,0,1,.46.46m.77,0a1.23,1.23,0,1,0-1.23,1.22,1.21,1.21,0,0,0,1.23-1.22Z"/><circle class="cls-20" cx="584.48" cy="31.61" r="0.84"/><path d="M584.94,31.61a.46.46,0,0,1-.92,0,.46.46,0,0,1,.92,0m.76,0a1.22,1.22,0,0,0-2.44,0,1.22,1.22,0,1,0,2.44,0Z"/><path class="cls-20" d="M579.52,31.61a.84.84,0,1,1,.84.84A.85.85,0,0,1,579.52,31.61Z"/><path d="M580.74,31.61a.46.46,0,0,1-.91,0,.46.46,0,1,1,.91,0m.77,0a1.23,1.23,0,1,0-1.23,1.22,1.21,1.21,0,0,0,1.23-1.22Z"/></g><g class="cls-19"><path class="cls-20" d="M610.74,34.89a.84.84,0,1,1,.84.84A.85.85,0,0,1,610.74,34.89Z"/><path d="M612,34.89a.46.46,0,1,1-.46-.46.49.49,0,0,1,.46.46m.76,0a1.22,1.22,0,1,0-1.22,1.22,1.25,1.25,0,0,0,1.22-1.22Z"/><path class="cls-20" d="M606.54,34.89a.84.84,0,1,1,.84.84A.85.85,0,0,1,606.54,34.89Z"/><path d="M607.84,34.89a.46.46,0,1,1-.46-.46.49.49,0,0,1,.46.46m.76,0a1.22,1.22,0,1,0-1.22,1.22,1.25,1.25,0,0,0,1.22-1.22Z"/><path class="cls-20" d="M602.42,34.89a.84.84,0,1,1,.84.84A.85.85,0,0,1,602.42,34.89Z"/><path d="M603.64,34.89a.46.46,0,1,1-.46-.46.49.49,0,0,1,.46.46m.76,0a1.22,1.22,0,1,0-1.22,1.22,1.31,1.31,0,0,0,1.22-1.22Z"/><path class="cls-20" d="M598.22,34.89a.84.84,0,1,1,.84.84A.85.85,0,0,1,598.22,34.89Z"/><path d="M599.52,34.89a.46.46,0,1,1-.46-.46.49.49,0,0,1,.46.46m.76,0a1.22,1.22,0,1,0-1.22,1.22,1.25,1.25,0,0,0,1.22-1.22Z"/><path class="cls-20" d="M594.4,34.89a.84.84,0,1,1,.84.84A.85.85,0,0,1,594.4,34.89Z"/><path d="M595.63,34.89a.46.46,0,1,1-.46-.46.49.49,0,0,1,.46.46m.76,0a1.22,1.22,0,1,0-1.22,1.22,1.26,1.26,0,0,0,1.22-1.22Z"/><path class="cls-20" d="M590.21,34.89a.84.84,0,1,1,.84.84A.85.85,0,0,1,590.21,34.89Z"/><path d="M591.5,34.89a.49.49,0,0,1-.45.46.46.46,0,1,1,0-.92.49.49,0,0,1,.45.46m.77,0a1.22,1.22,0,1,0-1.22,1.22,1.26,1.26,0,0,0,1.22-1.22Z"/><path class="cls-20" d="M586.09,34.89a.84.84,0,1,1,.84.84A.85.85,0,0,1,586.09,34.89Z"/><path d="M587.31,34.89a.46.46,0,1,1-.46-.46.45.45,0,0,1,.46.46m.76,0a1.22,1.22,0,1,0-1.22,1.22,1.31,1.31,0,0,0,1.22-1.22Z"/><path class="cls-20" d="M581.89,34.89a.84.84,0,1,1,.84.84A.85.85,0,0,1,581.89,34.89Z"/><path d="M583.19,34.89a.46.46,0,1,1-.46-.46.49.49,0,0,1,.46.46m.76,0a1.22,1.22,0,1,0-1.22,1.22A1.32,1.32,0,0,0,584,34.89Z"/></g><g class="cls-19"><path class="cls-20" d="M608.3,38.55a.84.84,0,1,1,.84.84A.85.85,0,0,1,608.3,38.55Z"/><path d="M609.59,38.55a.46.46,0,1,1-.45-.46.49.49,0,0,1,.45.46m.77,0a1.23,1.23,0,1,0-1.22,1.22,1.21,1.21,0,0,0,1.22-1.22Z"/><path class="cls-20" d="M604.17,38.55a.84.84,0,1,1,.84.84A.85.85,0,0,1,604.17,38.55Z"/><path d="M605.4,38.55a.46.46,0,1,1-.46-.46.45.45,0,0,1,.46.46m.76,0a1.22,1.22,0,1,0-1.22,1.22,1.21,1.21,0,0,0,1.22-1.22Z"/><path class="cls-20" d="M600,38.55a.84.84,0,1,1,.84.84A.85.85,0,0,1,600,38.55Z"/><path d="M601.27,38.55a.46.46,0,1,1-.45-.46.49.49,0,0,1,.45.46m.77,0a1.23,1.23,0,1,0-1.22,1.22A1.21,1.21,0,0,0,602,38.55Z"/><path class="cls-20" d="M595.85,38.55a.84.84,0,1,1,.84.84A.85.85,0,0,1,595.85,38.55Z"/><path d="M597.08,38.55a.46.46,0,1,1-.46-.46.49.49,0,0,1,.46.46m.76,0a1.22,1.22,0,1,0-1.22,1.22,1.21,1.21,0,0,0,1.22-1.22Z"/><path class="cls-20" d="M592,38.55a.84.84,0,1,1,.84.84A.85.85,0,0,1,592,38.55Z"/><path d="M593.26,38.55a.46.46,0,1,1-.46-.46.49.49,0,0,1,.46.46m.76,0a1.22,1.22,0,1,0-1.22,1.22A1.2,1.2,0,0,0,594,38.55Z"/><path class="cls-20" d="M587.84,38.55a.84.84,0,1,1,.84.84A.85.85,0,0,1,587.84,38.55Z"/><path d="M589.06,38.55a.46.46,0,1,1-.46-.46.44.44,0,0,1,.46.46m.77,0a1.23,1.23,0,1,0-1.23,1.22,1.21,1.21,0,0,0,1.23-1.22Z"/><path class="cls-20" d="M583.64,38.55a.84.84,0,1,1,.84.84A.85.85,0,0,1,583.64,38.55Z"/><path d="M584.94,38.55a.46.46,0,1,1-.46-.46.49.49,0,0,1,.46.46m.76,0a1.22,1.22,0,1,0-1.22,1.22,1.2,1.2,0,0,0,1.22-1.22Z"/><path class="cls-20" d="M579.52,38.55a.84.84,0,1,1,.84.84A.85.85,0,0,1,579.52,38.55Z"/><path d="M580.74,38.55a.46.46,0,1,1-.46-.46.49.49,0,0,1,.46.46m.77,0a1.23,1.23,0,1,0-1.23,1.22,1.21,1.21,0,0,0,1.23-1.22Z"/></g><g class="cls-19"><path class="cls-20" d="M610.74,42.22a.84.84,0,1,1,.84.83A.85.85,0,0,1,610.74,42.22Z"/><path d="M612,42.22a.46.46,0,1,1-.46-.46.49.49,0,0,1,.46.46m.76,0a1.22,1.22,0,1,0-1.22,1.22,1.21,1.21,0,0,0,1.22-1.22Z"/><circle class="cls-20" cx="607.38" cy="42.22" r="0.84"/><path d="M607.84,42.22a.46.46,0,1,1-.46-.46.49.49,0,0,1,.46.46m.76,0a1.22,1.22,0,1,0-1.22,1.22,1.21,1.21,0,0,0,1.22-1.22Z"/><path class="cls-20" d="M602.42,42.22a.84.84,0,1,1,.84.83A.85.85,0,0,1,602.42,42.22Z"/><path d="M603.64,42.22a.46.46,0,1,1-.46-.46.49.49,0,0,1,.46.46m.76,0a1.22,1.22,0,1,0-1.22,1.22,1.21,1.21,0,0,0,1.22-1.22Z"/><path class="cls-20" d="M598.22,42.22a.84.84,0,1,1,.84.83A.85.85,0,0,1,598.22,42.22Z"/><path d="M599.52,42.22a.46.46,0,1,1-.46-.46.49.49,0,0,1,.46.46m.76,0a1.22,1.22,0,1,0-1.22,1.22,1.21,1.21,0,0,0,1.22-1.22Z"/><circle class="cls-20" cx="595.24" cy="42.22" r="0.84"/><path d="M595.63,42.22a.46.46,0,1,1-.46-.46.49.49,0,0,1,.46.46m.76,0a1.22,1.22,0,1,0-1.22,1.22,1.21,1.21,0,0,0,1.22-1.22Z"/><path class="cls-20" d="M590.21,42.22a.84.84,0,1,1,.84.83A.85.85,0,0,1,590.21,42.22Z"/><path d="M591.5,42.22a.48.48,0,0,1-.45.45.46.46,0,1,1,0-.91.49.49,0,0,1,.45.46m.77,0a1.22,1.22,0,1,0-1.22,1.22,1.21,1.21,0,0,0,1.22-1.22Z"/><path class="cls-20" d="M586.09,42.22a.84.84,0,1,1,.84.83A.85.85,0,0,1,586.09,42.22Z"/><path d="M587.31,42.22a.46.46,0,1,1-.46-.46.45.45,0,0,1,.46.46m.76,0a1.22,1.22,0,1,0-1.22,1.22,1.21,1.21,0,0,0,1.22-1.22Z"/><circle class="cls-20" cx="582.73" cy="42.22" r="0.84"/><path d="M583.19,42.22a.46.46,0,1,1-.46-.46.49.49,0,0,1,.46.46m.76,0a1.22,1.22,0,1,0-1.22,1.22A1.21,1.21,0,0,0,584,42.22Z"/></g><g class="cls-19"><path class="cls-20" d="M608.3,45.88a.84.84,0,1,1,.84.84A.85.85,0,0,1,608.3,45.88Z"/><path d="M609.59,45.88a.46.46,0,1,1-.91,0,.46.46,0,0,1,.91,0m.77,0a1.23,1.23,0,1,0-1.22,1.22,1.21,1.21,0,0,0,1.22-1.22Z"/><path class="cls-20" d="M604.17,45.88a.84.84,0,1,1,.84.84A.85.85,0,0,1,604.17,45.88Z"/><path d="M605.4,45.88a.46.46,0,1,1-.46-.46c.3.08.46.23.46.46m.76,0a1.22,1.22,0,1,0-1.22,1.22,1.21,1.21,0,0,0,1.22-1.22Z"/><path class="cls-20" d="M600,45.88a.84.84,0,1,1,.84.84A.85.85,0,0,1,600,45.88Z"/><path d="M601.27,45.88a.46.46,0,1,1-.45-.46.49.49,0,0,1,.45.46m.77,0a1.23,1.23,0,1,0-1.22,1.22A1.21,1.21,0,0,0,602,45.88Z"/><path class="cls-20" d="M595.85,45.88a.84.84,0,1,1,.84.84A.85.85,0,0,1,595.85,45.88Z"/><path d="M597.08,45.88a.46.46,0,1,1-.46-.46.49.49,0,0,1,.46.46m.76,0a1.22,1.22,0,1,0-1.22,1.22,1.21,1.21,0,0,0,1.22-1.22Z"/><path class="cls-20" d="M592,45.88a.84.84,0,1,1,.84.84A.85.85,0,0,1,592,45.88Z"/><path d="M593.26,45.88a.46.46,0,1,1-.46-.46c.23.08.46.23.46.46m.76,0a1.22,1.22,0,1,0-1.22,1.22A1.2,1.2,0,0,0,594,45.88Z"/><path class="cls-20" d="M587.84,45.88a.84.84,0,1,1,.84.84A.85.85,0,0,1,587.84,45.88Z"/><path d="M589.06,45.88a.46.46,0,1,1-.46-.46c.31.08.46.23.46.46m.77,0a1.23,1.23,0,1,0-1.23,1.22,1.21,1.21,0,0,0,1.23-1.22Z"/><path class="cls-20" d="M583.64,45.88a.84.84,0,1,1,.84.84A.85.85,0,0,1,583.64,45.88Z"/><path d="M584.94,45.88a.46.46,0,0,1-.92,0,.47.47,0,0,1,.92,0m.76,0a1.22,1.22,0,1,0-1.22,1.22,1.2,1.2,0,0,0,1.22-1.22Z"/><path class="cls-20" d="M579.52,45.88a.84.84,0,1,1,.84.84A.85.85,0,0,1,579.52,45.88Z"/><path d="M580.74,45.88a.46.46,0,1,1-.46-.46.49.49,0,0,1,.46.46m.77,0a1.23,1.23,0,1,0-1.23,1.22,1.21,1.21,0,0,0,1.23-1.22Z"/></g><g class="cls-19"><path class="cls-20" d="M610.74,49.54a.84.84,0,1,1,.84.84A.85.85,0,0,1,610.74,49.54Z"/><path d="M612,49.54a.46.46,0,1,1-.46-.46.49.49,0,0,1,.46.46m.76,0a1.22,1.22,0,1,0-1.22,1.22,1.21,1.21,0,0,0,1.22-1.22Z"/><circle class="cls-20" cx="607.38" cy="49.54" r="0.84"/><path d="M607.84,49.54a.46.46,0,1,1-.46-.46.49.49,0,0,1,.46.46m.76,0a1.22,1.22,0,1,0-1.22,1.22,1.21,1.21,0,0,0,1.22-1.22Z"/><path class="cls-20" d="M602.42,49.54a.84.84,0,1,1,.84.84A.85.85,0,0,1,602.42,49.54Z"/><path d="M603.64,49.54a.46.46,0,1,1-.46-.46c.23.08.46.23.46.46m.76,0a1.22,1.22,0,1,0-1.22,1.22,1.21,1.21,0,0,0,1.22-1.22Z"/><path class="cls-20" d="M598.22,49.54a.84.84,0,1,1,.84.84A.85.85,0,0,1,598.22,49.54Z"/><path d="M599.52,49.54a.46.46,0,1,1-.46-.46c.23.08.46.23.46.46m.76,0a1.22,1.22,0,1,0-1.22,1.22,1.21,1.21,0,0,0,1.22-1.22Z"/><circle class="cls-20" cx="595.24" cy="49.54" r="0.84"/><path d="M595.63,49.54a.46.46,0,1,1-.46-.46.49.49,0,0,1,.46.46m.76,0a1.22,1.22,0,1,0-2.44,0,1.22,1.22,0,1,0,2.44,0Z"/><path class="cls-20" d="M590.21,49.54a.84.84,0,1,1,.84.84A.85.85,0,0,1,590.21,49.54Z"/><path d="M591.5,49.54a.49.49,0,0,1-.45.46.46.46,0,1,1,0-.92.49.49,0,0,1,.45.46m.77,0a1.22,1.22,0,1,0-2.44,0,1.22,1.22,0,1,0,2.44,0Z"/><path class="cls-20" d="M586.09,49.54a.84.84,0,1,1,.84.84A.85.85,0,0,1,586.09,49.54Z"/><path d="M587.31,49.54a.46.46,0,1,1-.46-.46c.3.08.46.23.46.46m.76,0a1.22,1.22,0,1,0-1.22,1.22,1.21,1.21,0,0,0,1.22-1.22Z"/><circle class="cls-20" cx="582.73" cy="49.54" r="0.84"/><path d="M583.19,49.54a.46.46,0,1,1-.46-.46c.23.08.46.23.46.46m.76,0a1.22,1.22,0,0,0-2.44,0,1.22,1.22,0,0,0,2.44,0Z"/></g><g class="cls-19"><path class="cls-20" d="M608.3,53.28a.84.84,0,1,1,.84.84A.85.85,0,0,1,608.3,53.28Z"/><path d="M609.59,53.28a.46.46,0,1,1-.45-.46.49.49,0,0,1,.45.46m.77,0a1.23,1.23,0,1,0-1.22,1.22,1.31,1.31,0,0,0,1.22-1.22Z"/><path class="cls-20" d="M604.17,53.28a.84.84,0,1,1,.84.84A.85.85,0,0,1,604.17,53.28Z"/><path d="M605.4,53.28a.46.46,0,1,1-.46-.46.45.45,0,0,1,.46.46m.76,0a1.22,1.22,0,0,0-2.44,0,1.2,1.2,0,0,0,1.22,1.22,1.31,1.31,0,0,0,1.22-1.22Z"/><path class="cls-20" d="M600,53.28a.84.84,0,1,1,.84.84A.85.85,0,0,1,600,53.28Z"/><path d="M601.27,53.28a.46.46,0,1,1-.45-.46.49.49,0,0,1,.45.46m.77,0a1.23,1.23,0,1,0-1.22,1.22A1.26,1.26,0,0,0,602,53.28Z"/><path class="cls-20" d="M595.85,53.28a.84.84,0,1,1,.84.84A.85.85,0,0,1,595.85,53.28Z"/><path d="M597.08,53.28a.46.46,0,1,1-.46-.46.49.49,0,0,1,.46.46m.76,0a1.22,1.22,0,1,0-2.44,0,1.2,1.2,0,0,0,1.22,1.22,1.26,1.26,0,0,0,1.22-1.22Z"/><path class="cls-20" d="M592,53.28a.84.84,0,1,1,.84.84A.85.85,0,0,1,592,53.28Z"/><path d="M593.26,53.28a.46.46,0,1,1-.46-.46.49.49,0,0,1,.46.46m.76,0a1.22,1.22,0,1,0-1.22,1.22A1.25,1.25,0,0,0,594,53.28Z"/><path class="cls-20" d="M587.84,53.28a.84.84,0,1,1,.84.84A.85.85,0,0,1,587.84,53.28Z"/><path d="M589.06,53.28a.46.46,0,1,1-.46-.46.44.44,0,0,1,.46.46m.77,0a1.23,1.23,0,1,0-1.23,1.22,1.31,1.31,0,0,0,1.23-1.22Z"/><path class="cls-20" d="M583.64,53.28a.84.84,0,1,1,.84.84A.85.85,0,0,1,583.64,53.28Z"/><path d="M584.94,53.28a.46.46,0,1,1-.46-.46.49.49,0,0,1,.46.46m.76,0a1.22,1.22,0,1,0-1.22,1.22,1.25,1.25,0,0,0,1.22-1.22Z"/><path class="cls-20" d="M579.52,53.28a.84.84,0,1,1,.84.84A.85.85,0,0,1,579.52,53.28Z"/><path d="M580.74,53.28a.46.46,0,1,1-.46-.46.49.49,0,0,1,.46.46m.77,0a1.23,1.23,0,1,0-1.23,1.22,1.26,1.26,0,0,0,1.23-1.22Z"/></g><g class="cls-19"><path class="cls-20" d="M610.74,57a.84.84,0,1,1,.84.84A.85.85,0,0,1,610.74,57Z"/><path d="M612,57a.46.46,0,1,1-.46-.46A.49.49,0,0,1,612,57m.76,0a1.22,1.22,0,1,0-1.22,1.22A1.21,1.21,0,0,0,612.72,57Z"/><path class="cls-20" d="M606.54,57a.84.84,0,1,1,.84.84A.85.85,0,0,1,606.54,57Z"/><path d="M607.84,57a.46.46,0,1,1-.46-.46.49.49,0,0,1,.46.46m.76,0a1.22,1.22,0,1,0-1.22,1.22A1.21,1.21,0,0,0,608.6,57Z"/><path class="cls-20" d="M602.42,57a.84.84,0,1,1,.84.84A.85.85,0,0,1,602.42,57Z"/><path d="M603.64,57a.46.46,0,1,1-.46-.46.49.49,0,0,1,.46.46m.76,0a1.22,1.22,0,1,0-1.22,1.22A1.21,1.21,0,0,0,604.4,57Z"/><path class="cls-20" d="M598.22,57a.84.84,0,1,1,.84.84A.85.85,0,0,1,598.22,57Z"/><path d="M599.52,57a.46.46,0,1,1-.46-.46.49.49,0,0,1,.46.46m.76,0a1.22,1.22,0,1,0-1.22,1.22A1.21,1.21,0,0,0,600.28,57Z"/><path class="cls-20" d="M594.4,57a.84.84,0,1,1,.84.84A.85.85,0,0,1,594.4,57Z"/><path d="M595.63,57a.46.46,0,1,1-.46-.46.49.49,0,0,1,.46.46m.76,0a1.22,1.22,0,1,0-1.22,1.22A1.21,1.21,0,0,0,596.39,57Z"/><path class="cls-20" d="M590.21,57a.84.84,0,0,1,1.68,0,.84.84,0,0,1-1.68,0Z"/><path d="M591.5,57a.48.48,0,0,1-.45.45.46.46,0,1,1,0-.91.49.49,0,0,1,.45.46m.77,0a1.22,1.22,0,1,0-1.22,1.22A1.21,1.21,0,0,0,592.27,57Z"/><path class="cls-20" d="M586.09,57a.84.84,0,1,1,.84.84A.85.85,0,0,1,586.09,57Z"/><path d="M587.31,57a.46.46,0,1,1-.46-.46.45.45,0,0,1,.46.46m.76,0a1.22,1.22,0,1,0-1.22,1.22A1.21,1.21,0,0,0,588.07,57Z"/><path class="cls-20" d="M581.89,57a.84.84,0,1,1,.84.84A.85.85,0,0,1,581.89,57Z"/><path d="M583.19,57a.46.46,0,1,1-.46-.46.49.49,0,0,1,.46.46m.76,0a1.22,1.22,0,1,0-1.22,1.22A1.21,1.21,0,0,0,584,57Z"/></g><g class="cls-19"><path class="cls-20" d="M575.48,9.55a.84.84,0,1,1,.84.84A.85.85,0,0,1,575.48,9.55Z"/><path d="M576.77,9.55a.46.46,0,1,1-.45-.46.49.49,0,0,1,.45.46m.77,0a1.23,1.23,0,1,0-1.22,1.22,1.21,1.21,0,0,0,1.22-1.22Z"/></g><g class="cls-19"><path class="cls-20" d="M571.36,9.55a.84.84,0,1,1,.83.84A.84.84,0,0,1,571.36,9.55Z"/><path d="M572.58,9.55a.46.46,0,1,1-.46-.46.45.45,0,0,1,.46.46m.76,0a1.22,1.22,0,1,0-1.22,1.22,1.2,1.2,0,0,0,1.22-1.22Z"/></g><g class="cls-19"><path class="cls-20" d="M567.16,9.55a.84.84,0,1,1,.84.84A.85.85,0,0,1,567.16,9.55Z"/><path d="M568.45,9.55A.49.49,0,0,1,568,10a.46.46,0,1,1,0-.92.49.49,0,0,1,.45.46m.77,0A1.22,1.22,0,1,0,568,10.77a1.21,1.21,0,0,0,1.22-1.22Z"/></g><g class="cls-19"><path class="cls-20" d="M563,9.55a.84.84,0,1,1,.84.84A.85.85,0,0,1,563,9.55Z"/><path d="M564.26,9.55a.46.46,0,1,1-.46-.46.49.49,0,0,1,.46.46m.76,0a1.22,1.22,0,1,0-1.22,1.22A1.2,1.2,0,0,0,565,9.55Z"/></g><g class="cls-19"><path class="cls-20" d="M577.92,13.21a.84.84,0,1,1,.84.84A.85.85,0,0,1,577.92,13.21Z"/><path d="M579.14,13.21a.46.46,0,1,1-.46-.46.49.49,0,0,1,.46.46m.76,0a1.22,1.22,0,1,0-1.22,1.22,1.21,1.21,0,0,0,1.22-1.22Z"/></g><g class="cls-19"><circle class="cls-20" cx="574.56" cy="13.21" r="0.84"/><path d="M575,13.21a.46.46,0,1,1-.46-.46.49.49,0,0,1,.46.46m.76,0a1.22,1.22,0,1,0-1.22,1.22,1.21,1.21,0,0,0,1.22-1.22Z"/></g><g class="cls-19"><path class="cls-20" d="M569.6,13.21a.84.84,0,1,1,.84.84A.85.85,0,0,1,569.6,13.21Z"/><path d="M570.82,13.21a.46.46,0,1,1-.46-.46.49.49,0,0,1,.46.46m.76,0a1.22,1.22,0,1,0-1.22,1.22,1.21,1.21,0,0,0,1.22-1.22Z"/></g><g class="cls-19"><path class="cls-20" d="M565.4,13.21a.84.84,0,1,1,.84.84A.85.85,0,0,1,565.4,13.21Z"/><path d="M566.7,13.21a.46.46,0,1,1-.46-.46.49.49,0,0,1,.46.46m.76,0a1.22,1.22,0,1,0-1.22,1.22,1.21,1.21,0,0,0,1.22-1.22Z"/></g><g class="cls-19"><circle class="cls-20" cx="562.43" cy="13.21" r="0.84"/><path d="M562.81,13.21a.46.46,0,1,1-.46-.46.49.49,0,0,1,.46.46m.76,0a1.22,1.22,0,1,0-1.22,1.22,1.21,1.21,0,0,0,1.22-1.22Z"/></g><g class="cls-19"><path class="cls-20" d="M575.48,16.88a.84.84,0,1,1,1.68,0,.84.84,0,1,1-1.68,0Z"/><path d="M576.77,16.88a.46.46,0,0,1-.91,0,.43.43,0,0,1,.46-.39.42.42,0,0,1,.45.39m.77,0a1.23,1.23,0,1,0-1.22,1.22,1.21,1.21,0,0,0,1.22-1.22Z"/></g><g class="cls-19"><path class="cls-20" d="M571.36,16.88a.84.84,0,1,1,1.67,0,.84.84,0,1,1-1.67,0Z"/><path d="M572.58,16.88a.46.46,0,1,1-.46-.46c.3.07.46.23.46.46m.76,0a1.22,1.22,0,1,0-1.22,1.22,1.21,1.21,0,0,0,1.22-1.22Z"/></g><g class="cls-19"><path class="cls-20" d="M567.16,16.88a.84.84,0,0,1,1.68,0,.84.84,0,0,1-1.68,0Z"/><path d="M568.45,16.88a.48.48,0,0,1-.45.45.46.46,0,1,1,0-.91.49.49,0,0,1,.45.46m.77,0A1.22,1.22,0,1,0,568,18.1a1.21,1.21,0,0,0,1.22-1.22Z"/></g><g class="cls-19"><path class="cls-20" d="M563,16.88a.84.84,0,1,1,.84.84A.85.85,0,0,1,563,16.88Z"/><path d="M564.26,16.88a.46.46,0,1,1-.46-.46.49.49,0,0,1,.46.46m.76,0a1.22,1.22,0,1,0-1.22,1.22A1.21,1.21,0,0,0,565,16.88Z"/></g><g class="cls-19"><path class="cls-20" d="M577.92,20.54a.84.84,0,1,1,.84.84A.85.85,0,0,1,577.92,20.54Z"/><path d="M579.14,20.54a.46.46,0,1,1-.46-.46.49.49,0,0,1,.46.46m.76,0a1.22,1.22,0,1,0-1.22,1.22,1.2,1.2,0,0,0,1.22-1.22Z"/></g><g class="cls-19"><circle class="cls-20" cx="574.56" cy="20.54" r="0.84"/><path d="M575,20.54a.46.46,0,1,1-.46-.46.49.49,0,0,1,.46.46m.76,0a1.22,1.22,0,1,0-1.22,1.22,1.2,1.2,0,0,0,1.22-1.22Z"/></g><g class="cls-19"><path class="cls-20" d="M569.6,20.54a.84.84,0,1,1,.84.84A.85.85,0,0,1,569.6,20.54Z"/><path d="M570.82,20.54a.46.46,0,1,1-.46-.46c.23.08.46.23.46.46m.76,0a1.22,1.22,0,1,0-1.22,1.22,1.2,1.2,0,0,0,1.22-1.22Z"/></g><g class="cls-19"><path class="cls-20" d="M565.4,20.54a.84.84,0,1,1,.84.84A.85.85,0,0,1,565.4,20.54Z"/><path d="M566.7,20.54a.46.46,0,1,1-.46-.46c.23.08.46.23.46.46m.76,0a1.22,1.22,0,1,0-1.22,1.22,1.2,1.2,0,0,0,1.22-1.22Z"/></g><g class="cls-19"><circle class="cls-20" cx="562.43" cy="20.54" r="0.84"/><path d="M562.81,20.54a.46.46,0,1,1-.46-.46.49.49,0,0,1,.46.46m.76,0a1.22,1.22,0,1,0-1.22,1.22,1.2,1.2,0,0,0,1.22-1.22Z"/></g><g class="cls-19"><path class="cls-20" d="M575.48,24.28a.84.84,0,1,1,.84.84A.85.85,0,0,1,575.48,24.28Z"/><path d="M576.77,24.28a.46.46,0,1,1-.45-.46.49.49,0,0,1,.45.46m.77,0a1.23,1.23,0,1,0-1.22,1.22,1.32,1.32,0,0,0,1.22-1.22Z"/></g><g class="cls-19"><path class="cls-20" d="M571.36,24.28a.84.84,0,1,1,.83.84A.84.84,0,0,1,571.36,24.28Z"/><path d="M572.58,24.28a.46.46,0,1,1-.46-.46.45.45,0,0,1,.46.46m.76,0a1.22,1.22,0,1,0-1.22,1.22,1.31,1.31,0,0,0,1.22-1.22Z"/></g><g class="cls-19"><path class="cls-20" d="M567.16,24.28a.84.84,0,1,1,.84.84A.85.85,0,0,1,567.16,24.28Z"/><path d="M568.45,24.28a.49.49,0,0,1-.45.46.46.46,0,1,1,0-.92.49.49,0,0,1,.45.46m.77,0A1.22,1.22,0,1,0,568,25.5a1.26,1.26,0,0,0,1.22-1.22Z"/></g><g class="cls-19"><path class="cls-20" d="M563,24.28a.84.84,0,1,1,.84.84A.85.85,0,0,1,563,24.28Z"/><path d="M564.26,24.28a.46.46,0,1,1-.46-.46.49.49,0,0,1,.46.46m.76,0a1.22,1.22,0,1,0-1.22,1.22A1.25,1.25,0,0,0,565,24.28Z"/></g><g class="cls-19"><path class="cls-20" d="M577.92,27.94a.84.84,0,1,1,.84.84A.85.85,0,0,1,577.92,27.94Z"/><path d="M579.14,27.94a.46.46,0,1,1-.46-.46.49.49,0,0,1,.46.46m.76,0a1.22,1.22,0,1,0-1.22,1.22,1.21,1.21,0,0,0,1.22-1.22Z"/></g><g class="cls-19"><path class="cls-20" d="M573.72,27.94a.84.84,0,1,1,.84.84A.85.85,0,0,1,573.72,27.94Z"/><path d="M575,27.94a.46.46,0,1,1-.46-.46.49.49,0,0,1,.46.46m.76,0a1.22,1.22,0,1,0-1.22,1.22,1.21,1.21,0,0,0,1.22-1.22Z"/></g><g class="cls-19"><path class="cls-20" d="M569.6,27.94a.84.84,0,1,1,.84.84A.85.85,0,0,1,569.6,27.94Z"/><path d="M570.82,27.94a.46.46,0,1,1-.46-.46.49.49,0,0,1,.46.46m.76,0a1.22,1.22,0,1,0-1.22,1.22,1.21,1.21,0,0,0,1.22-1.22Z"/></g><g class="cls-19"><path class="cls-20" d="M565.4,27.94a.84.84,0,1,1,.84.84A.85.85,0,0,1,565.4,27.94Z"/><path d="M566.7,27.94a.46.46,0,1,1-.46-.46.49.49,0,0,1,.46.46m.76,0a1.22,1.22,0,1,0-1.22,1.22,1.21,1.21,0,0,0,1.22-1.22Z"/></g><g class="cls-19"><path class="cls-20" d="M561.59,27.94a.84.84,0,1,1,.84.84A.85.85,0,0,1,561.59,27.94Z"/><path d="M562.81,27.94a.46.46,0,1,1-.46-.46.49.49,0,0,1,.46.46m.76,0a1.22,1.22,0,1,0-1.22,1.22,1.21,1.21,0,0,0,1.22-1.22Z"/></g><g class="cls-19"><circle class="cls-20" cx="576.32" cy="31.61" r="0.84"/><path d="M576.77,31.61a.46.46,0,0,1-.91,0,.49.49,0,0,1,.46-.46.49.49,0,0,1,.45.46m.77,0a1.23,1.23,0,1,0-1.22,1.22,1.21,1.21,0,0,0,1.22-1.22Z"/></g><g class="cls-19"><path class="cls-20" d="M571.36,31.61a.84.84,0,1,1,1.67,0,.84.84,0,1,1-1.67,0Z"/><path d="M572.58,31.61a.46.46,0,0,1-.92,0,.49.49,0,0,1,.46-.46.45.45,0,0,1,.46.46m.76,0a1.22,1.22,0,1,0-1.22,1.22,1.2,1.2,0,0,0,1.22-1.22Z"/></g><g class="cls-19"><path class="cls-20" d="M567.16,31.61a.84.84,0,0,1,1.68,0,.84.84,0,0,1-1.68,0Z"/><path d="M568.45,31.61a.48.48,0,0,1-.45.45.49.49,0,0,1-.46-.45.49.49,0,0,1,.46-.46.49.49,0,0,1,.45.46m.77,0A1.22,1.22,0,1,0,568,32.83a1.21,1.21,0,0,0,1.22-1.22Z"/></g><g class="cls-19"><circle class="cls-20" cx="563.8" cy="31.61" r="0.84"/><path d="M564.26,31.61a.46.46,0,0,1-.92,0,.46.46,0,0,1,.92,0m.76,0a1.22,1.22,0,1,0-1.22,1.22A1.2,1.2,0,0,0,565,31.61Z"/></g><g class="cls-19"><path class="cls-20" d="M577.92,34.89a.84.84,0,1,1,.84.84A.85.85,0,0,1,577.92,34.89Z"/><path d="M579.14,34.89a.46.46,0,1,1-.46-.46.49.49,0,0,1,.46.46m.76,0a1.22,1.22,0,1,0-2.44,0,1.21,1.21,0,0,0,1.22,1.22,1.25,1.25,0,0,0,1.22-1.22Z"/></g><g class="cls-19"><path class="cls-20" d="M573.72,34.89a.84.84,0,1,1,.84.84A.85.85,0,0,1,573.72,34.89Z"/><path d="M575,34.89a.46.46,0,1,1-.46-.46.49.49,0,0,1,.46.46m.76,0a1.22,1.22,0,1,0-1.22,1.22,1.25,1.25,0,0,0,1.22-1.22Z"/></g><g class="cls-19"><path class="cls-20" d="M569.6,34.89a.84.84,0,1,1,.84.84A.85.85,0,0,1,569.6,34.89Z"/><path d="M570.82,34.89a.46.46,0,1,1-.46-.46.49.49,0,0,1,.46.46m.76,0a1.22,1.22,0,1,0-2.44,0,1.21,1.21,0,0,0,1.22,1.22,1.31,1.31,0,0,0,1.22-1.22Z"/></g><g class="cls-19"><path class="cls-20" d="M565.4,34.89a.84.84,0,1,1,.84.84A.85.85,0,0,1,565.4,34.89Z"/><path d="M566.7,34.89a.46.46,0,1,1-.46-.46.49.49,0,0,1,.46.46m.76,0a1.22,1.22,0,1,0-1.22,1.22,1.25,1.25,0,0,0,1.22-1.22Z"/></g><g class="cls-19"><path class="cls-20" d="M561.59,34.89a.84.84,0,1,1,.84.84A.85.85,0,0,1,561.59,34.89Z"/><path d="M562.81,34.89a.46.46,0,1,1-.46-.46.49.49,0,0,1,.46.46m.76,0a1.22,1.22,0,1,0-1.22,1.22,1.25,1.25,0,0,0,1.22-1.22Z"/></g><g class="cls-19"><path class="cls-20" d="M575.48,38.55a.84.84,0,1,1,.84.84A.85.85,0,0,1,575.48,38.55Z"/><path d="M576.77,38.55a.46.46,0,1,1-.45-.46.49.49,0,0,1,.45.46m.77,0a1.23,1.23,0,1,0-1.22,1.22,1.21,1.21,0,0,0,1.22-1.22Z"/></g><g class="cls-19"><path class="cls-20" d="M571.36,38.55a.84.84,0,1,1,.83.84A.84.84,0,0,1,571.36,38.55Z"/><path d="M572.58,38.55a.46.46,0,1,1-.46-.46.45.45,0,0,1,.46.46m.76,0a1.22,1.22,0,1,0-1.22,1.22,1.2,1.2,0,0,0,1.22-1.22Z"/></g><g class="cls-19"><path class="cls-20" d="M567.16,38.55a.84.84,0,1,1,.84.84A.85.85,0,0,1,567.16,38.55Z"/><path d="M568.45,38.55A.49.49,0,0,1,568,39a.46.46,0,1,1,0-.92.49.49,0,0,1,.45.46m.77,0A1.22,1.22,0,1,0,568,39.77a1.21,1.21,0,0,0,1.22-1.22Z"/></g><g class="cls-19"><path class="cls-20" d="M563,38.55a.84.84,0,1,1,.84.84A.85.85,0,0,1,563,38.55Z"/><path d="M564.26,38.55a.46.46,0,1,1-.46-.46.49.49,0,0,1,.46.46m.76,0a1.22,1.22,0,1,0-1.22,1.22A1.2,1.2,0,0,0,565,38.55Z"/></g><g class="cls-19"><path class="cls-20" d="M577.92,42.22a.84.84,0,1,1,.84.83A.85.85,0,0,1,577.92,42.22Z"/><path d="M579.14,42.22a.46.46,0,1,1-.46-.46.49.49,0,0,1,.46.46m.76,0a1.22,1.22,0,1,0-1.22,1.22,1.21,1.21,0,0,0,1.22-1.22Z"/></g><g class="cls-19"><circle class="cls-20" cx="574.56" cy="42.22" r="0.84"/><path d="M575,42.22a.46.46,0,1,1-.46-.46.49.49,0,0,1,.46.46m.76,0a1.22,1.22,0,1,0-1.22,1.22,1.21,1.21,0,0,0,1.22-1.22Z"/></g><g class="cls-19"><path class="cls-20" d="M569.6,42.22a.84.84,0,1,1,.84.83A.85.85,0,0,1,569.6,42.22Z"/><path d="M570.82,42.22a.46.46,0,1,1-.46-.46.49.49,0,0,1,.46.46m.76,0a1.22,1.22,0,1,0-1.22,1.22,1.21,1.21,0,0,0,1.22-1.22Z"/></g><g class="cls-19"><path class="cls-20" d="M565.4,42.22a.84.84,0,1,1,.84.83A.85.85,0,0,1,565.4,42.22Z"/><path d="M566.7,42.22a.46.46,0,1,1-.46-.46.49.49,0,0,1,.46.46m.76,0a1.22,1.22,0,1,0-1.22,1.22,1.21,1.21,0,0,0,1.22-1.22Z"/></g><g class="cls-19"><circle class="cls-20" cx="562.43" cy="42.22" r="0.84"/><path d="M562.81,42.22a.46.46,0,1,1-.46-.46.49.49,0,0,1,.46.46m.76,0a1.22,1.22,0,1,0-1.22,1.22,1.21,1.21,0,0,0,1.22-1.22Z"/></g><g class="cls-19"><path class="cls-20" d="M575.48,45.88a.84.84,0,1,1,.84.84A.85.85,0,0,1,575.48,45.88Z"/><path d="M576.77,45.88a.46.46,0,1,1-.91,0,.43.43,0,0,1,.46-.38.42.42,0,0,1,.45.38m.77,0a1.23,1.23,0,1,0-1.22,1.22,1.21,1.21,0,0,0,1.22-1.22Z"/></g><g class="cls-19"><path class="cls-20" d="M571.36,45.88a.84.84,0,1,1,.83.84A.84.84,0,0,1,571.36,45.88Z"/><path d="M572.58,45.88a.46.46,0,1,1-.46-.46c.3.08.46.23.46.46m.76,0a1.22,1.22,0,1,0-1.22,1.22,1.2,1.2,0,0,0,1.22-1.22Z"/></g><g class="cls-19"><path class="cls-20" d="M567.16,45.88a.84.84,0,1,1,.84.84A.85.85,0,0,1,567.16,45.88Z"/><path d="M568.45,45.88a.49.49,0,0,1-.45.46.46.46,0,1,1,0-.92.49.49,0,0,1,.45.46m.77,0A1.22,1.22,0,1,0,568,47.1a1.21,1.21,0,0,0,1.22-1.22Z"/></g><g class="cls-19"><path class="cls-20" d="M563,45.88a.84.84,0,1,1,.84.84A.85.85,0,0,1,563,45.88Z"/><path d="M564.26,45.88a.46.46,0,1,1-.46-.46.49.49,0,0,1,.46.46m.76,0a1.22,1.22,0,1,0-1.22,1.22A1.2,1.2,0,0,0,565,45.88Z"/></g><g class="cls-19"><path class="cls-20" d="M577.92,49.54a.84.84,0,1,1,.84.84A.85.85,0,0,1,577.92,49.54Z"/><path d="M579.14,49.54a.46.46,0,1,1-.46-.46.49.49,0,0,1,.46.46m.76,0a1.22,1.22,0,1,0-1.22,1.22,1.21,1.21,0,0,0,1.22-1.22Z"/></g><g class="cls-19"><circle class="cls-20" cx="574.56" cy="49.54" r="0.84"/><path d="M575,49.54a.46.46,0,1,1-.46-.46.49.49,0,0,1,.46.46m.76,0a1.22,1.22,0,1,0-1.22,1.22,1.21,1.21,0,0,0,1.22-1.22Z"/></g><g class="cls-19"><path class="cls-20" d="M569.6,49.54a.84.84,0,1,1,.84.84A.85.85,0,0,1,569.6,49.54Z"/><path d="M570.82,49.54a.46.46,0,1,1-.46-.46c.23.08.46.23.46.46m.76,0a1.22,1.22,0,1,0-1.22,1.22,1.21,1.21,0,0,0,1.22-1.22Z"/></g><g class="cls-19"><path class="cls-20" d="M565.4,49.54a.84.84,0,1,1,.84.84A.85.85,0,0,1,565.4,49.54Z"/><path d="M566.7,49.54a.46.46,0,1,1-.46-.46c.23.08.46.23.46.46m.76,0a1.22,1.22,0,1,0-1.22,1.22,1.21,1.21,0,0,0,1.22-1.22Z"/></g><g class="cls-19"><circle class="cls-20" cx="562.43" cy="49.54" r="0.84"/><path d="M562.81,49.54a.46.46,0,1,1-.46-.46.49.49,0,0,1,.46.46m.76,0a1.22,1.22,0,1,0-1.22,1.22,1.21,1.21,0,0,0,1.22-1.22Z"/></g><g class="cls-19"><path class="cls-20" d="M575.48,53.28a.84.84,0,1,1,.84.84A.85.85,0,0,1,575.48,53.28Z"/><path d="M576.77,53.28a.46.46,0,1,1-.45-.46.49.49,0,0,1,.45.46m.77,0a1.23,1.23,0,1,0-1.22,1.22,1.31,1.31,0,0,0,1.22-1.22Z"/></g><g class="cls-19"><path class="cls-20" d="M571.36,53.28a.84.84,0,1,1,.83.84A.84.84,0,0,1,571.36,53.28Z"/><path d="M572.58,53.28a.46.46,0,1,1-.46-.46.45.45,0,0,1,.46.46m.76,0a1.22,1.22,0,1,0-1.22,1.22,1.3,1.3,0,0,0,1.22-1.22Z"/></g><g class="cls-19"><path class="cls-20" d="M567.16,53.28a.84.84,0,1,1,.84.84A.85.85,0,0,1,567.16,53.28Z"/><path d="M568.45,53.28a.49.49,0,0,1-.45.46.46.46,0,1,1,0-.92.49.49,0,0,1,.45.46m.77,0a1.22,1.22,0,0,0-2.44,0A1.2,1.2,0,0,0,568,54.5a1.26,1.26,0,0,0,1.22-1.22Z"/></g><g class="cls-19"><path class="cls-20" d="M563,53.28a.84.84,0,1,1,.84.84A.85.85,0,0,1,563,53.28Z"/><path d="M564.26,53.28a.46.46,0,1,1-.46-.46.49.49,0,0,1,.46.46m.76,0a1.22,1.22,0,1,0-1.22,1.22A1.25,1.25,0,0,0,565,53.28Z"/></g><g class="cls-19"><path class="cls-20" d="M577.92,57a.84.84,0,1,1,.84.84A.85.85,0,0,1,577.92,57Z"/><path d="M579.14,57a.46.46,0,1,1-.46-.46.49.49,0,0,1,.46.46m.76,0a1.22,1.22,0,1,0-1.22,1.22A1.21,1.21,0,0,0,579.9,57Z"/></g><g class="cls-19"><path class="cls-20" d="M573.72,57a.84.84,0,1,1,.84.84A.85.85,0,0,1,573.72,57Z"/><path d="M575,57a.46.46,0,1,1-.46-.46A.49.49,0,0,1,575,57m.76,0a1.22,1.22,0,1,0-1.22,1.22A1.21,1.21,0,0,0,575.78,57Z"/></g><g class="cls-19"><path class="cls-20" d="M569.6,57a.84.84,0,1,1,.84.84A.85.85,0,0,1,569.6,57Z"/><path d="M570.82,57a.46.46,0,1,1-.46-.46.49.49,0,0,1,.46.46m.76,0a1.22,1.22,0,1,0-1.22,1.22A1.21,1.21,0,0,0,571.58,57Z"/></g><g class="cls-19"><path class="cls-20" d="M565.4,57a.84.84,0,1,1,.84.84A.85.85,0,0,1,565.4,57Z"/><path d="M566.7,57a.46.46,0,1,1-.46-.46.49.49,0,0,1,.46.46m.76,0a1.22,1.22,0,1,0-1.22,1.22A1.21,1.21,0,0,0,567.46,57Z"/></g><g class="cls-19"><path class="cls-20" d="M561.59,57a.84.84,0,1,1,.84.84A.85.85,0,0,1,561.59,57Z"/><path d="M562.81,57a.46.46,0,1,1-.46-.46.49.49,0,0,1,.46.46m.76,0a1.22,1.22,0,1,0-1.22,1.22A1.21,1.21,0,0,0,563.57,57Z"/></g></g><rect class="cls-21" x="360.97" y="6.11" width="3.82" height="52.66"/><path d="M19.8,42.29C8.5,38-3,33.29.72,33.29c3.13,0,11.14-3.44,19.08-7.18Z"/><path d="M19.8,42.29C8.5,38-3,33.29.72,33.29c3.13,0,11.14-3.44,19.08-7.18Z"/><rect x="39.64" y="26.71" width="59.53" height="3.05"/><rect x="39.64" y="41.21" width="59.53" height="3.05"/><rect x="39.64" y="16.79" width="60.3" height="0.76"/></g></g></svg>