<svg xmlns="http://www.w3.org/2000/svg" viewBox="0 0 111.76 763.86"><defs><style>.cls-1,.cls-2,.cls-3,.cls-7,.cls-9{fill:none;}.cls-1{stroke:#e9e8ea;stroke-width:8px;}.cls-1,.cls-2,.cls-3,.cls-9{stroke-miterlimit:10;}.cls-2,.cls-3{stroke:#fff;}.cls-2{stroke-width:6px;}.cls-3{stroke-width:2px;}.cls-4{font-size:18.39px;font-family:MyriadPro-Regular, Myriad Pro;}.cls-4,.cls-8{fill:#fff;}.cls-5{letter-spacing:0em;}.cls-6{letter-spacing:0em;}.cls-9{stroke:#000;}.cls-10{letter-spacing:-0.01em;}.cls-11{letter-spacing:0.01em;}</style></defs><title>Resurs 13</title><g id="Lager_2" data-name="Lager 2"><g id="Layer_1" data-name="Layer 1"><path class="cls-1" d="M46.41,173.69l8.71,7.12a1.81,1.81,0,0,0,2.45-.14L65.35,173"/><ellipse class="cls-2" cx="55.88" cy="47.75" rx="44.09" ry="44.75"/><line class="cls-3" x1="30.75" y1="25.01" x2="81" y2="25.01"/><line class="cls-3" x1="30.75" y1="33.53" x2="81" y2="33.53"/><line class="cls-3" x1="30.75" y1="42.01" x2="81" y2="42.01"/><line class="cls-3" x1="30.75" y1="50.48" x2="81" y2="50.48"/><line class="cls-3" x1="30.75" y1="59.01" x2="81" y2="59.01"/><line class="cls-3" x1="30.75" y1="67.49" x2="81" y2="67.49"/><text class="cls-4" transform="translate(21.96 140.31) scale(0.99 1)">planning</text><ellipse class="cls-2" cx="55.88" cy="254.07" rx="44.09" ry="44.75"/><ellipse class="cls-3" cx="52.14" cy="248.51" rx="18.85" ry="19.13"/><line class="cls-3" x1="65.33" y1="261.9" x2="80.8" y2="275.29"/><text class="cls-4" transform="translate(0 346.63) scale(0.99 1)">d<tspan class="cls-5" x="10.37" y="0">a</tspan><tspan x="19.16" y="0">ta g</tspan><tspan class="cls-5" x="48.28" y="0">a</tspan><tspan x="57.07" y="0">the</tspan><tspan class="cls-6" x="82.57" y="0">r</tspan><tspan x="88.65" y="0">ing</tspan></text><ellipse class="cls-2" cx="55.88" cy="460.39" rx="44.09" ry="44.75"/><rect class="cls-7" x="24.39" y="433.24" width="63.44" height="54.57"/><rect class="cls-8" x="24.39" y="433.24" width="63.12" height="4.26"/><rect class="cls-8" x="24.39" y="462.01" width="63.44" height="25.8"/><rect class="cls-8" x="31.46" y="455.8" width="10.63" height="2.27"/><rect class="cls-8" x="44.38" y="455.8" width="10.63" height="2.27"/><line class="cls-9" x1="56.24" y1="474.24" x2="82.67" y2="474.24"/><line class="cls-9" x1="56.24" y1="466.92" x2="82.67" y2="466.92"/><line class="cls-9" x1="56.24" y1="470.58" x2="82.67" y2="470.58"/><line class="cls-9" x1="56.24" y1="477.9" x2="82.67" y2="477.9"/><line class="cls-9" x1="56.24" y1="481.56" x2="82.67" y2="481.56"/><line class="cls-9" x1="56.93" y1="485.22" x2="83.31" y2="485.22"/><line class="cls-9" x1="27.63" y1="478.04" x2="54.01" y2="478.04"/><line class="cls-9" x1="27.63" y1="470.81" x2="54.01" y2="470.81"/><line class="cls-9" x1="27.63" y1="474.43" x2="54.01" y2="474.43"/><line class="cls-9" x1="27.63" y1="481.61" x2="54.01" y2="481.61"/><line class="cls-9" x1="27.63" y1="485.22" x2="54.01" y2="485.22"/><text class="cls-4" transform="translate(13.49 552.95) scale(0.99 1)">p<tspan class="cls-10" x="10.46" y="0">r</tspan><tspan x="16.29" y="0">odu</tspan><tspan class="cls-11" x="46.88" y="0">c</tspan><tspan x="55.36" y="0">tion</tspan></text><ellipse class="cls-2" cx="55.88" cy="666.71" rx="44.09" ry="44.75"/><polyline class="cls-3" points="38.81 668.33 48.76 679.77 78.7 653.28"/><text class="cls-4" transform="translate(16.47 759.27) scale(0.99 1)"><tspan class="cls-5">v</tspan><tspan x="8.77" y="0">alid</tspan><tspan class="cls-5" x="36.64" y="0">a</tspan><tspan x="45.43" y="0">tion </tspan></text><path class="cls-1" d="M46.41,380l8.71,7.12a1.81,1.81,0,0,0,2.45-.14l7.78-7.67"/><path class="cls-1" d="M46.41,586.33l8.71,7.12a1.81,1.81,0,0,0,2.45-.14l7.78-7.67"/></g></g></svg>