<svg xmlns="http://www.w3.org/2000/svg" viewBox="0 0 111.06 836.6"><defs><style>.cls-1{fill:#00f600;stroke:#e9e8ea;stroke-width:8px;}.cls-1,.cls-2,.cls-3,.cls-6{stroke-miterlimit:10;}.cls-2,.cls-3,.cls-4,.cls-6{fill:none;}.cls-2,.cls-3{stroke:#fff;}.cls-2{stroke-width:6px;}.cls-3{stroke-width:2px;}.cls-5,.cls-7{fill:#fff;}.cls-6{stroke:#000;}.cls-7{font-size:18px;font-family:MyriadPro-Regular, Myriad Pro;}.cls-8{letter-spacing:0em;}.cls-9{letter-spacing:0em;}.cls-10{letter-spacing:-0.01em;}.cls-11{letter-spacing:0.01em;}.cls-12{letter-spacing:0em;}</style></defs><title>Resurs 13</title><g id="Lager_2" data-name="Lager 2"><g id="Layer_1" data-name="Layer 1"><path class="cls-1" d="M64.8,418.77l-8.52,7.08a1.78,1.78,0,0,1-2.41-.14l-7.62-7.62"/><path class="cls-1" d="M64.8,639.35l-8.52,7.07a1.77,1.77,0,0,1-2.41-.13l-7.62-7.62"/><path class="cls-1" d="M64.8,172.19l-8.52,7.08a1.76,1.76,0,0,1-2.41-.14l-7.62-7.62"/><circle class="cls-2" cx="55.53" cy="292.29" r="43.81"/><circle class="cls-3" cx="51.81" cy="286.85" r="18.73"/><line class="cls-3" x1="64.92" y1="299.96" x2="80.29" y2="313.07"/><circle class="cls-2" cx="55.53" cy="539.21" r="43.81"/><rect class="cls-4" x="24.23" y="512.63" width="63.04" height="53.43"/><rect class="cls-5" x="24.23" y="512.63" width="62.73" height="4.17"/><rect class="cls-5" x="24.23" y="540.79" width="63.04" height="25.26"/><rect class="cls-5" x="31.26" y="534.72" width="10.57" height="2.22"/><rect class="cls-5" x="44.1" y="534.72" width="10.57" height="2.22"/><line class="cls-6" x1="55.89" y1="552.77" x2="82.15" y2="552.77"/><line class="cls-6" x1="55.89" y1="545.6" x2="82.15" y2="545.6"/><line class="cls-6" x1="55.89" y1="549.18" x2="82.15" y2="549.18"/><line class="cls-6" x1="55.89" y1="556.35" x2="82.15" y2="556.35"/><line class="cls-6" x1="55.89" y1="559.93" x2="82.15" y2="559.93"/><line class="cls-6" x1="56.57" y1="563.52" x2="82.79" y2="563.52"/><line class="cls-6" x1="27.45" y1="556.49" x2="53.67" y2="556.49"/><line class="cls-6" x1="27.45" y1="549.41" x2="53.67" y2="549.41"/><line class="cls-6" x1="27.45" y1="552.95" x2="53.67" y2="552.95"/><line class="cls-6" x1="27.45" y1="559.98" x2="53.67" y2="559.98"/><line class="cls-6" x1="27.45" y1="563.52" x2="53.67" y2="563.52"/><circle class="cls-2" cx="55.53" cy="46.81" r="43.81"/><line class="cls-3" x1="80.5" y1="69.08" x2="30.56" y2="69.08"/><line class="cls-3" x1="80.5" y1="60.74" x2="30.56" y2="60.74"/><line class="cls-3" x1="80.5" y1="52.44" x2="30.56" y2="52.44"/><line class="cls-3" x1="80.5" y1="44.14" x2="30.56" y2="44.14"/><line class="cls-3" x1="80.5" y1="35.79" x2="30.56" y2="35.79"/><line class="cls-3" x1="80.5" y1="27.49" x2="30.56" y2="27.49"/><circle class="cls-2" cx="55.53" cy="761.54" r="43.81"/><polyline class="cls-3" points="38.57 763.13 48.45 774.33 78.21 748.39"/><text class="cls-7" transform="translate(21.82 117.1)">planning</text><text class="cls-7" transform="translate(0 375.58)">d<tspan class="cls-8" x="10.15" y="0">a</tspan><tspan x="18.76" y="0">ta g</tspan><tspan class="cls-8" x="47.27" y="0">a</tspan><tspan x="55.87" y="0">the</tspan><tspan class="cls-9" x="80.84" y="0">r</tspan><tspan x="86.79" y="0">ing</tspan></text><text class="cls-7" transform="translate(13.41 607.49)">p<tspan class="cls-10" x="10.24" y="0">r</tspan><tspan x="15.95" y="0">odu</tspan><tspan class="cls-11" x="45.9" y="0">c</tspan><tspan x="54.2" y="0">tion</tspan></text><text class="cls-7" transform="translate(16.36 832.1)"><tspan class="cls-8">v</tspan><tspan x="8.59" y="0">alid</tspan><tspan class="cls-8" x="35.87" y="0">a</tspan><tspan class="cls-12" x="44.48" y="0">tion </tspan></text></g></g></svg>