<svg xmlns="http://www.w3.org/2000/svg" xmlns:xlink="http://www.w3.org/1999/xlink" viewBox="0 0 735.09 317.34"><defs><style>.cls-1{fill:#353535;}.cls-2,.cls-21,.cls-23,.cls-31,.cls-40,.cls-41,.cls-43,.cls-51,.cls-55{fill:#fff;}.cls-3{font-size:16.14px;letter-spacing:-0.03em;}.cls-12,.cls-13,.cls-24,.cls-26,.cls-3,.cls-5{fill:#31a3a3;}.cls-3,.cls-5{font-family:Tahoma;}.cls-4{letter-spacing:0em;}.cls-21,.cls-5{font-size:8.07px;}.cls-6{letter-spacing:-0.05em;}.cls-7{letter-spacing:-0.01em;}.cls-8{letter-spacing:-0.02em;}.cls-9{letter-spacing:0em;}.cls-10,.cls-25,.cls-27,.cls-29{fill:none;}.cls-10,.cls-25,.cls-27{stroke:#31a3a3;}.cls-10,.cls-25,.cls-27,.cls-29,.cls-40,.cls-41,.cls-43,.cls-51{stroke-miterlimit:10;}.cls-11{fill:#d89444;}.cls-13,.cls-33,.cls-42,.cls-55{font-size:7.06px;}.cls-13,.cls-17,.cls-21,.cls-23,.cls-24,.cls-26,.cls-31,.cls-36,.cls-42,.cls-49,.cls-55{font-family:SegoeUI-Semilight, Segoe UI;font-weight:300;}.cls-14{letter-spacing:-0.03em;}.cls-15{letter-spacing:0em;}.cls-16{letter-spacing:0.03em;}.cls-17,.cls-23,.cls-24{font-size:6.05px;}.cls-18{letter-spacing:-0.01em;}.cls-19{letter-spacing:-0.01em;}.cls-20{letter-spacing:-0.01em;}.cls-22{letter-spacing:-0.01em;}.cls-25{stroke-width:1.3px;}.cls-26{font-size:5.05px;}.cls-27{stroke-width:6px;}.cls-28{letter-spacing:-0.01em;}.cls-29{stroke:#fff;stroke-width:4px;}.cls-30{letter-spacing:0em;}.cls-31,.cls-36,.cls-49{font-size:11.18px;}.cls-32{letter-spacing:-0.01em;}.cls-33,.cls-54{font-family:SegoeUI-Bold, Segoe UI;font-weight:700;}.cls-34{letter-spacing:-0.03em;}.cls-35{fill:#e2e2e2;}.cls-36{opacity:0.98;}.cls-37{letter-spacing:-0.07em;}.cls-38{fill:url(#linear-gradient);}.cls-39{fill:url(#linear-gradient-2);}.cls-40,.cls-41{stroke:#adadad;}.cls-40{stroke-width:0.8px;}.cls-41{stroke-width:0.42px;}.cls-43,.cls-51{stroke:#494949;}.cls-43{stroke-width:0.75px;}.cls-44{fill:#494949;}.cls-45{letter-spacing:0.04em;}.cls-46{letter-spacing:0em;}.cls-47{letter-spacing:-0.01em;}.cls-48{opacity:0.08;}.cls-50{letter-spacing:0em;}.cls-52{letter-spacing:0em;}.cls-53{letter-spacing:-0.01em;}.cls-54{letter-spacing:0em;}</style><linearGradient id="linear-gradient" x1="625.1" y1="128.65" x2="712.38" y2="128.65" gradientUnits="userSpaceOnUse"><stop offset="0" stop-color="#ff632d"/><stop offset="0" stop-color="#f33d37"/><stop offset="1" stop-color="#db1f37"/></linearGradient><linearGradient id="linear-gradient-2" x1="591.3" y1="128.65" x2="625.1" y2="128.65" gradientUnits="userSpaceOnUse"><stop offset="0" stop-color="#00b745"/><stop offset="0.92" stop-color="#006837"/></linearGradient></defs><title>Resurs 1</title><g id="Lager_2" data-name="Lager 2"><g id="Lager_1-2" data-name="Lager 1"><rect class="cls-1" y="1.01" width="167.5" height="316.33"/><rect class="cls-2" x="6.73" y="22.93" width="154.81" height="274.51"/><path d="M160.81,23.66v273H7.46v-273H160.81m1.47-1.46H6v276H162.28V22.2Z"/><text class="cls-3" transform="translate(66.84 69.57)">V<tspan class="cls-4" x="9.2" y="0">AC</tspan></text><text class="cls-5" transform="translate(47.16 85.21)"><tspan class="cls-6">V</tspan><tspan x="4.45" y="0">et app </tspan><tspan class="cls-7" x="29.6" y="0">f</tspan><tspan x="32.09" y="0">or </tspan><tspan class="cls-8" x="41.91" y="0">r</tspan><tspan class="cls-9" x="44.68" y="0">apid test</tspan></text><text/><circle class="cls-10" cx="84.51" cy="146.56" r="21.69"/><rect class="cls-11" x="40.61" y="213.92" width="86.02" height="26.49" rx="7.37"/><rect class="cls-12" x="6.56" y="270.68" width="77.95" height="27.24"/><rect class="cls-12" x="83.5" y="270.68" width="78.45" height="27.24"/><text class="cls-13" transform="translate(75.19 144.09)"><tspan class="cls-14">S</tspan><tspan class="cls-15" x="3.4" y="0">ta</tspan><tspan class="cls-16" x="9.19" y="0">r</tspan><tspan x="11.78" y="0">ta </tspan><tspan x="0" y="8.48">timer</tspan></text><text class="cls-17" transform="translate(27.26 256.1)">Läs igenom instu<tspan class="cls-18" x="43.86" y="0">k</tspan><tspan x="46.66" y="0">tioner innan </tspan><tspan class="cls-19" x="79.6" y="0">t</tspan><tspan x="81.48" y="0">est </tspan><tspan class="cls-20" x="90.63" y="0">p</tspan><tspan x="94.02" y="0">åbörjas</tspan></text><text class="cls-21" transform="translate(63.17 228.98)">Skanna <tspan class="cls-22" x="27.13" y="0">t</tspan><tspan x="29.63" y="0">est </tspan></text><text class="cls-23" transform="translate(108.08 291.54)">Inställningar</text><text class="cls-23" transform="translate(38.96 291.54)">OM</text><circle class="cls-2" cx="44.15" cy="279.76" r="4.29"/><text class="cls-24" transform="translate(42.65 282.2)">?</text><polygon class="cls-2" points="127.14 282.28 123.21 284.96 118.92 282.9 118.56 278.15 122.49 275.47 126.78 277.53 127.14 282.28"/><circle class="cls-12" cx="122.85" cy="280.21" r="2.27"/><rect class="cls-1" x="189.2" width="167.5" height="316.33"/><rect class="cls-2" x="195.77" y="22.93" width="154.81" height="274.51"/><path d="M349.85,23.66v273H196.5v-273H349.85m1.47-1.46H195v276H351.32V22.2Z"/><text class="cls-3" transform="translate(256.03 69.57)">V<tspan class="cls-4" x="9.2" y="0">AC</tspan></text><text class="cls-5" transform="translate(236.36 85.21)"><tspan class="cls-6">V</tspan><tspan x="4.45" y="0">et app </tspan><tspan class="cls-7" x="29.6" y="0">f</tspan><tspan x="32.09" y="0">or </tspan><tspan class="cls-8" x="41.91" y="0">r</tspan><tspan class="cls-9" x="44.68" y="0">apid test</tspan></text><text/><circle class="cls-25" cx="275.72" cy="146.56" r="28.25"/><rect class="cls-12" x="195.75" y="270.68" width="77.95" height="27.24"/><rect class="cls-12" x="272.69" y="270.68" width="78.45" height="27.24"/><text class="cls-26" transform="translate(255.3 141.57)">Skanna stickan om </text><text class="cls-17" transform="translate(216.45 256.1)">Läs igenom instu<tspan class="cls-18" x="43.86" y="0">k</tspan><tspan x="46.66" y="0">tioner innan </tspan><tspan class="cls-19" x="79.6" y="0">t</tspan><tspan x="81.48" y="0">est </tspan><tspan class="cls-20" x="90.63" y="0">p</tspan><tspan x="94.02" y="0">åbörjas</tspan></text><text class="cls-21" transform="translate(252.37 228.98)">Skanna <tspan class="cls-22" x="27.13" y="0">t</tspan><tspan x="29.63" y="0">est </tspan></text><text class="cls-23" transform="translate(297.27 291.54)">Inställningar</text><text class="cls-23" transform="translate(228.15 291.54)">OM</text><circle class="cls-2" cx="233.34" cy="279.76" r="4.29"/><text class="cls-24" transform="translate(231.84 282.2)">?</text><text class="cls-13" transform="translate(267.43 157.87)">09:23</text><polygon class="cls-2" points="316.33 282.28 312.4 284.96 308.12 282.9 307.76 278.15 311.69 275.47 315.98 277.53 316.33 282.28"/><circle class="cls-12" cx="312.05" cy="280.21" r="2.27"/><rect class="cls-11" x="229.81" y="213.92" width="86.02" height="26.49" rx="7.37"/><path class="cls-27" d="M280.57,118.14A28.27,28.27,0,0,1,302.22,135"/><text class="cls-21" transform="translate(251.86 228.98)">Skanna <tspan class="cls-22" x="27.13" y="0">t</tspan><tspan x="29.63" y="0">est </tspan></text><text class="cls-21" transform="translate(407.76 224.44)">Skanna <tspan class="cls-28" x="27.13" y="0">t</tspan><tspan x="29.63" y="0">est </tspan></text><rect class="cls-1" x="378.39" width="167.5" height="316.33"/><rect x="385.1" y="22.2" width="156.28" height="275.97"/><path class="cls-12" d="M385.1,35.08s72.43,22.06,156.25.06V22.2H385Z"/><polyline class="cls-29" points="427.83 107.32 427.83 74.17 450.63 74.17"/><polyline class="cls-29" points="450.63 258.82 427.83 258.82 427.83 223.19"/><polyline class="cls-29" points="498.97 223.19 498.97 258.82 478.53 258.82"/><polyline class="cls-29" points="478.53 74.17 498.97 74.17 498.97 107.32"/><text class="cls-21" transform="translate(420.37 166.92)">Håll stickan inom rama<tspan class="cls-30" x="78.75" y="0">r</tspan><tspan x="81.47" y="0">na</tspan></text><text class="cls-31" transform="translate(434 35.97) scale(1.08 1)">skanna <tspan class="cls-32" x="36.38" y="0">t</tspan><tspan x="39.85" y="0">est </tspan></text><rect class="cls-1" x="567.59" width="167.5" height="316.33"/><text class="cls-33" transform="translate(627.31 264.79) scale(1.08 1)">Skicka</text><rect class="cls-2" x="574.65" y="18.9" width="154.81" height="274.51"/><path d="M728.73,19.63v273H575.38v-273H728.73m1.47-1.47H573.92v276H730.2v-276Z"/><path class="cls-12" d="M574.29,30.54S646,52.6,729,30.6V17.66H574.14Z"/><text class="cls-31" transform="translate(629.75 31.93) scale(1.08 1)"><tspan class="cls-34">R</tspan><tspan x="6.14" y="0">esultat</tspan></text><rect class="cls-2" x="585.14" y="49.34" width="133.41" height="123.31"/><path class="cls-35" d="M718.14,49.74V172.25H585.54V49.74h132.6m.8-.8H584.74V173.05h134.2V48.94Z"/><text class="cls-36" transform="translate(625.71 69.77) scale(1.08 1)">NEG<tspan class="cls-37" x="21.34" y="0">A</tspan><tspan x="27.65" y="0">TIV</tspan></text><rect class="cls-38" x="625.1" y="115.54" width="87.28" height="26.24"/><rect class="cls-39" x="591.3" y="115.54" width="33.8" height="26.24"/><line class="cls-40" x1="591.09" y1="107.21" x2="591.09" y2="141.77"/><line class="cls-41" x1="625.08" y1="108.98" x2="625.08" y2="115.54"/><text class="cls-42" transform="translate(587.13 105.78) scale(1.08 1)">0,3</text><text class="cls-42" transform="translate(620.93 108.3) scale(1.08 1)">0,5</text><line class="cls-43" x1="603.73" y1="115.79" x2="603.73" y2="168.01"/><path class="cls-44" d="M601.48,112h3.94a.43.43,0,0,1,.36.65L604,115.52a.43.43,0,0,1-.7,0l-2.15-2.87A.43.43,0,0,1,601.48,112Z"/><path class="cls-44" d="M605.92,145.3H602a.42.42,0,0,1-.36-.64l1.8-2.87a.42.42,0,0,1,.69,0l2.15,2.87A.42.42,0,0,1,605.92,145.3Z"/><text class="cls-42" transform="translate(604.79 167.83) scale(1.08 1)">0,39</text><text class="cls-42" transform="translate(615.38 155.73) scale(1.08 1)">0,11 från b<tspan class="cls-45" x="30.39" y="0">r</tspan><tspan class="cls-46" x="33.06" y="0">y</tspan><tspan x="36.39" y="0">tpun</tspan><tspan class="cls-47" x="50.47" y="0">kt</tspan><tspan x="55.92" y="0">en</tspan></text><rect class="cls-48" x="609.46" y="75.17" width="84.76" height="17.15" rx="2.83"/><text class="cls-36" transform="translate(614.11 87.43) scale(1.08 1)">0,39 ng/ml tk1</text><rect class="cls-2" x="584.61" y="177.46" width="133.45" height="109.74"/><path class="cls-35" d="M717.68,177.84v109H585v-109H717.68m.76-.75H584.23V287.58H718.44V177.09Z"/><text class="cls-49" transform="translate(609.57 194.39) scale(1.08 1)">Skicka till jou<tspan class="cls-50" x="61.69" y="0">r</tspan><tspan x="65.46" y="0">nal</tspan></text><line class="cls-51" x1="595.33" y1="212.4" x2="706.83" y2="212.4"/><text class="cls-42" transform="translate(595.2 220.81) scale(1.08 1)">Dju<tspan class="cls-52" x="10.33" y="0">r</tspan><tspan x="12.71" y="0">nummer</tspan></text><rect class="cls-11" x="609.21" y="251.76" width="86.02" height="26.49" rx="7.37"/><ellipse class="cls-12" cx="606.18" cy="233.09" rx="10.85" ry="6.56"/><ellipse class="cls-2" cx="610.72" cy="233.09" rx="4.29" ry="4.04"/><text class="cls-42" transform="translate(623.96 236.95) scale(1.08 1)"><tspan class="cls-53">K</tspan><tspan x="3.81" y="0">opplat till </tspan><tspan class="cls-54" x="34.18" y="0">Link</tspan></text><text class="cls-55" transform="translate(641.11 267.73) scale(1.08 1)">Skicka</text></g></g></svg>