<svg xmlns="http://www.w3.org/2000/svg" viewBox="0 0 332 627"><defs><style>.cls-1{fill:#353535;}.cls-18,.cls-19,.cls-2{fill:#fff;}.cls-3{font-size:32px;}.cls-11,.cls-12,.cls-20,.cls-3,.cls-5{fill:#31a3a3;}.cls-3,.cls-5{font-family:Tahoma;}.cls-4{letter-spacing:-0.03em;}.cls-18,.cls-5{font-size:16px;}.cls-6{letter-spacing:-0.05em;}.cls-7{letter-spacing:-0.01em;}.cls-8{letter-spacing:-0.02em;}.cls-9{fill:none;stroke:#31a3a3;stroke-miterlimit:10;}.cls-10{fill:#d89444;}.cls-12{font-size:14px;}.cls-12,.cls-15,.cls-18,.cls-19,.cls-20{font-family:SegoeUI-Semilight, Segoe UI;font-weight:300;}.cls-13{letter-spacing:-0.03em;}.cls-14{letter-spacing:0.03em;}.cls-15,.cls-19,.cls-20{font-size:12px;}.cls-16{letter-spacing:-0.01em;}.cls-17{letter-spacing:-0.01em;}</style></defs><title>Resurs 10</title><g id="Lager_2" data-name="Lager 2"><g id="Layer_1" data-name="Layer 1"><rect class="cls-1" width="332" height="627"/><rect class="cls-2" x="12.62" y="42.73" width="308.29" height="545.54"/><path d="M320.18,43.46V587.54H13.35V43.46H320.18M321.64,42H11.88V589H321.64V42Z"/><text class="cls-3" transform="translate(132.48 135.89)"><tspan class="cls-4">V</tspan><tspan x="18.23" y="0">AC</tspan></text><text class="cls-5" transform="translate(93.48 166.89)"><tspan class="cls-6">V</tspan><tspan x="8.81" y="0">et app </tspan><tspan class="cls-7" x="58.67" y="0">f</tspan><tspan x="63.61" y="0">or </tspan><tspan class="cls-8" x="83.06" y="0">r</tspan><tspan x="88.55" y="0">apid test</tspan></text><text/><circle class="cls-9" cx="167.5" cy="288.5" r="43"/><rect class="cls-10" x="80.5" y="422" width="170.5" height="52.5" rx="7.37"/><rect class="cls-11" x="13" y="534.5" width="154.5" height="54"/><rect class="cls-11" x="165.5" y="534.5" width="155.5" height="54"/><text class="cls-12" transform="translate(149.02 283.6)"><tspan class="cls-13">S</tspan><tspan x="6.75" y="0">ta</tspan><tspan class="cls-14" x="18.21" y="0">r</tspan><tspan x="23.36" y="0">ta </tspan><tspan x="0" y="16.8">timer</tspan></text><text class="cls-15" transform="translate(54.02 505.6)">Läs igenom instu<tspan class="cls-16" x="86.94" y="0">k</tspan><tspan x="92.48" y="0">tioner innan </tspan><tspan class="cls-16" x="157.78" y="0">t</tspan><tspan x="161.5" y="0">est </tspan><tspan class="cls-17" x="179.64" y="0">p</tspan><tspan x="186.36" y="0">åbörjas</tspan></text><text class="cls-18" transform="translate(125.22 451.86)">Skanna <tspan class="cls-16" x="53.77" y="0">t</tspan><tspan x="58.73" y="0">est </tspan></text><text class="cls-19" transform="translate(214.22 575.86)">Inställningar</text><text class="cls-19" transform="translate(77.22 575.86)">OM</text><circle class="cls-2" cx="87.5" cy="552.5" r="8.5"/><text class="cls-20" transform="translate(84.53 557.35)">?</text><polygon class="cls-2" points="252 557.5 244.21 562.81 235.71 558.72 235 549.32 242.79 544 251.29 548.09 252 557.5"/><circle class="cls-11" cx="243.5" cy="553.41" r="4.5"/></g></g></svg>