<svg xmlns="http://www.w3.org/2000/svg" viewBox="0 0 332 627"><defs><style>.cls-1{fill:#353535;}.cls-15,.cls-16,.cls-2{fill:#fff;}.cls-3{font-size:32px;}.cls-10,.cls-11,.cls-17,.cls-18,.cls-3,.cls-5{fill:#31a3a3;}.cls-3,.cls-5{font-family:Tahoma;}.cls-4{letter-spacing:-0.03em;}.cls-15,.cls-5{font-size:16px;}.cls-6{letter-spacing:-0.05em;}.cls-7{letter-spacing:-0.01em;}.cls-8{letter-spacing:-0.02em;}.cls-20,.cls-9{fill:none;stroke:#31a3a3;stroke-miterlimit:10;}.cls-9{stroke-width:1.3px;}.cls-11{font-size:10px;}.cls-11,.cls-12,.cls-15,.cls-16,.cls-17,.cls-18{font-family:SegoeUI-Semilight, Segoe UI;font-weight:300;}.cls-12,.cls-16,.cls-17{font-size:12px;}.cls-13{letter-spacing:-0.01em;}.cls-14{letter-spacing:-0.01em;}.cls-18{font-size:14px;}.cls-19{fill:#d89444;}.cls-20{stroke-width:6px;}</style></defs><title>Resurs 11</title><g id="Lager_2" data-name="Lager 2"><g id="Layer_1" data-name="Layer 1"><rect class="cls-1" width="332" height="627"/></g><g id="Layer_2" data-name="Layer 2"><rect class="cls-2" x="12.32" y="44.73" width="308.29" height="545.54"/><path d="M319.88,45.46V589.54H13.05V45.46H319.88M321.34,44H11.59V591H321.34V44Z"/><text class="cls-3" transform="translate(132.48 137.89)"><tspan class="cls-4">V</tspan><tspan x="18.23" y="0">AC</tspan></text><text class="cls-5" transform="translate(93.48 168.89)"><tspan class="cls-6">V</tspan><tspan x="8.81" y="0">et app </tspan><tspan class="cls-7" x="58.67" y="0">f</tspan><tspan x="63.61" y="0">or </tspan><tspan class="cls-8" x="83.06" y="0">r</tspan><tspan x="88.55" y="0">apid test</tspan></text><text/><circle class="cls-9" cx="171.5" cy="290.5" r="56"/><rect class="cls-10" x="13" y="536.5" width="154.5" height="54"/><rect class="cls-10" x="165.5" y="536.5" width="155.5" height="54"/><text class="cls-11" transform="translate(131.02 280.6)">Skanna stickan om </text><text class="cls-12" transform="translate(54.02 507.6)">Läs igenom instu<tspan class="cls-13" x="86.94" y="0">k</tspan><tspan x="92.48" y="0">tioner innan </tspan><tspan class="cls-13" x="157.78" y="0">t</tspan><tspan x="161.5" y="0">est </tspan><tspan class="cls-14" x="179.64" y="0">p</tspan><tspan x="186.36" y="0">åbörjas</tspan></text><text class="cls-15" transform="translate(125.22 453.86)">Skanna <tspan class="cls-13" x="53.77" y="0">t</tspan><tspan x="58.73" y="0">est </tspan></text><text class="cls-16" transform="translate(214.22 577.86)">Inställningar</text><text class="cls-16" transform="translate(77.22 577.86)">OM</text><circle class="cls-2" cx="87.5" cy="554.5" r="8.5"/><text class="cls-17" transform="translate(84.53 559.35)">?</text><text class="cls-18" transform="translate(155.06 312.9)">09:23</text><polygon class="cls-2" points="252 559.5 244.21 564.81 235.71 560.72 235 551.32 242.79 546 251.29 550.09 252 559.5"/><circle class="cls-10" cx="243.5" cy="555.41" r="4.5"/><rect class="cls-19" x="80.5" y="424" width="170.5" height="52.5" rx="7.37"/><path class="cls-20" d="M181.1,234.16A56.07,56.07,0,0,1,224,267.53"/><text class="cls-15" transform="translate(124.22 453.86)">Skanna <tspan class="cls-13" x="53.77" y="0">t</tspan><tspan x="58.73" y="0">est </tspan></text></g></g></svg>