<svg xmlns="http://www.w3.org/2000/svg" xmlns:xlink="http://www.w3.org/1999/xlink" viewBox="0 0 332 627"><defs><style>.cls-1{fill:#353535;}.cls-13,.cls-2,.cls-27{font-size:14px;}.cls-2,.cls-26{font-family:SegoeUI-Bold, Segoe UI;font-weight:700;}.cls-12,.cls-14,.cls-22,.cls-27,.cls-3,.cls-5{fill:#fff;}.cls-4{fill:#31a3a3;}.cls-20,.cls-5,.cls-8{font-size:22.17px;}.cls-13,.cls-20,.cls-27,.cls-5,.cls-8{font-family:SegoeUI-Semilight, Segoe UI;font-weight:300;}.cls-6{letter-spacing:-0.03em;}.cls-7{fill:#e2e2e2;}.cls-8{opacity:0.98;}.cls-9{letter-spacing:-0.07em;}.cls-10{fill:url(#linear-gradient);}.cls-11{fill:url(#linear-gradient-2);}.cls-12{stroke:#adadad;stroke-width:0.42px;}.cls-12,.cls-14,.cls-22{stroke-miterlimit:10;}.cls-14,.cls-22{stroke:#494949;}.cls-14{stroke-width:0.75px;}.cls-15{fill:#494949;}.cls-16{letter-spacing:0.04em;}.cls-17{letter-spacing:0em;}.cls-18{letter-spacing:-0.01em;}.cls-19{opacity:0.08;}.cls-21{letter-spacing:0em;}.cls-23{letter-spacing:0em;}.cls-24{fill:#d89444;}.cls-25{letter-spacing:-0.01em;}</style><linearGradient id="linear-gradient" x1="114" y1="255" x2="287" y2="255" gradientUnits="userSpaceOnUse"><stop offset="0" stop-color="#ff632d"/><stop offset="0" stop-color="#f33d37"/><stop offset="1" stop-color="#db1f37"/></linearGradient><linearGradient id="linear-gradient-2" x1="47" y1="255" x2="114" y2="255" gradientUnits="userSpaceOnUse"><stop offset="0" stop-color="#00b745"/><stop offset="0.92" stop-color="#006837"/></linearGradient></defs><title>Resurs 13</title><g id="Lager_2" data-name="Lager 2"><g id="Layer_1" data-name="Layer 1"><rect class="cls-1" width="332" height="627"/></g><g id="Layer_2" data-name="Layer 2"><text class="cls-2" transform="translate(118.37 524.83) scale(1.08 1)">Skicka</text></g><g id="Layer_4" data-name="Layer 4"><rect class="cls-3" x="13.29" y="36.73" width="308.29" height="545.54"/><path d="M320.85,37.46V581.54H14V37.46H320.85M322.31,36H12.55V583H322.31V36Z"/><path class="cls-4" d="M13.3,60.53s142.16,43.73,306.7.12V35H13Z"/><text class="cls-5" transform="translate(123.22 63.3) scale(1.08 1)"><tspan class="cls-6">R</tspan><tspan x="12.17" y="0">esultat</tspan></text><rect class="cls-3" x="34.4" y="97.4" width="265.2" height="245.2"/><path class="cls-7" d="M299.2,97.8V342.2H34.8V97.8H299.2m.8-.8H34V343H300V97Z"/><text class="cls-8" transform="translate(115.22 138.3) scale(1.08 1)">NEG<tspan class="cls-9" x="42.3" y="0">A</tspan><tspan x="54.81" y="0">TIV</tspan></text><rect class="cls-10" x="114" y="229" width="173" height="52"/><rect class="cls-11" x="47" y="229" width="67" height="52"/><line class="cls-12" x1="113.95" y1="216" x2="113.95" y2="229"/><text class="cls-13" transform="translate(38.74 209.66) scale(1.08 1)">0,3</text><text class="cls-13" transform="translate(275.74 209.66) scale(1.08 1)">2,0</text><text class="cls-13" transform="translate(105.74 214.66) scale(1.08 1)">0,5</text><line class="cls-14" x1="71.64" y1="229.5" x2="71.64" y2="333"/><path class="cls-15" d="M67.17,222H75a.83.83,0,0,1,.71,1.28L72.15,229a.84.84,0,0,1-1.38.06l-4.27-5.68A.84.84,0,0,1,67.17,222Z"/><path class="cls-15" d="M76,288H68.17a.84.84,0,0,1-.71-1.28L71,281A.84.84,0,0,1,72.4,281l4.26,5.68A.84.84,0,0,1,76,288Z"/><text class="cls-13" transform="translate(73.74 332.66) scale(1.08 1)">0,39</text><text class="cls-13" transform="translate(94.74 308.66) scale(1.08 1)">0,11 från b<tspan class="cls-16" x="60.23" y="0">r</tspan><tspan class="cls-17" x="65.54" y="0">y</tspan><tspan x="72.13" y="0">tpun</tspan><tspan class="cls-18" x="100.03" y="0">kt</tspan><tspan x="110.84" y="0">en</tspan></text><rect class="cls-19" x="83" y="149" width="168" height="34" rx="2.83"/><text class="cls-8" transform="translate(92.22 173.3) scale(1.08 1)">0,39 ng/ml tk1</text><rect class="cls-3" x="33.38" y="351.38" width="265.25" height="218.25"/><path class="cls-7" d="M298.25,351.75v217.5H33.75V351.75h264.5M299,351H33V570H299V351Z"/><text class="cls-20" transform="translate(83.22 385.3) scale(1.08 1)">Skicka till jou<tspan class="cls-21" x="122.28" y="0">r</tspan><tspan x="129.75" y="0">nal</tspan></text><line class="cls-22" x1="55" y1="421" x2="276" y2="421"/><text class="cls-13" transform="translate(54.74 437.66) scale(1.08 1)">Dju<tspan class="cls-23" x="20.47" y="0">r</tspan><tspan x="25.18" y="0">nummer</tspan></text><rect class="cls-24" x="82.5" y="499" width="170.5" height="52.5" rx="7.37"/><ellipse class="cls-4" cx="76.5" cy="462" rx="21.5" ry="13"/><ellipse class="cls-3" cx="85.5" cy="462" rx="8.5" ry="8"/><text class="cls-13" transform="translate(111.74 469.66) scale(1.08 1)"><tspan class="cls-25">K</tspan><tspan x="7.56" y="0">opplat till </tspan><tspan class="cls-26" x="67.76" y="0">Link</tspan></text><text class="cls-27" transform="translate(145.74 530.66) scale(1.08 1)">Skicka</text></g></g></svg>